G04 DipTrace Beta 2.9.0.1*
G04 BottomMask.gbr*
%MOMM*%
G04 #@! TF.FileFunction,Soldermask,Bot*
G04 #@! TF.Part,Single*
%ADD48R,1.5X2.1*%
%ADD50R,2.35X3.45*%
%ADD52R,2.35X1.15*%
%ADD54R,1.3X0.8*%
%ADD58R,0.85X1.25*%
%ADD60R,1.2X1.55*%
%ADD62C,1.25*%
%ADD64R,1.25X1.25*%
%ADD66C,2.0*%
%ADD68R,2.0X2.0*%
%ADD78R,2.9X1.8*%
%ADD80R,1.3X1.2*%
%ADD82R,1.5X1.7*%
%ADD84R,1.7X1.5*%
%FSLAX35Y35*%
G04*
G71*
G90*
G75*
G01*
G04 BotMask*
%LPD*%
D84*
X1174930Y2038600D3*
Y2228600D3*
X1360013Y2040100D3*
Y2230100D3*
X1562100Y2038600D3*
Y2228600D3*
D82*
X1527983Y3526523D3*
X1337983D3*
D84*
X743370Y2535860D3*
Y2345860D3*
X1831027Y2859667D3*
Y3049667D3*
X904267Y3821663D3*
Y3631663D3*
D80*
X1546937Y2437153D3*
X1376937D3*
X1546937Y3135753D3*
X1376937D3*
D82*
X2109063Y695560D3*
X1919063D3*
D84*
X1416890Y1218647D3*
Y1408647D3*
D78*
X560453Y202240D3*
Y482240D3*
D68*
X152400Y4445000D3*
D66*
Y4191000D3*
Y3937000D3*
Y3683000D3*
Y3429000D3*
Y3175000D3*
Y2921000D3*
Y2667000D3*
Y2413000D3*
Y2159000D3*
Y1905000D3*
Y1651000D3*
Y1397000D3*
Y1143000D3*
Y889000D3*
Y635000D3*
D64*
X1549400Y5092700D3*
D62*
X1422400D3*
X1295400D3*
X1168400D3*
X1041400D3*
X1549400Y4965700D3*
X1422400D3*
X1295400D3*
X1168400D3*
X1041400D3*
D68*
X2438400Y635000D3*
D66*
Y889000D3*
Y1143000D3*
Y1397000D3*
Y1651000D3*
Y1905000D3*
Y2159000D3*
Y2413000D3*
Y2667000D3*
Y2921000D3*
Y3175000D3*
Y3429000D3*
Y3683000D3*
Y3937000D3*
Y4191000D3*
Y4445000D3*
D60*
X1364863Y3728067D3*
X1514863D3*
D58*
X2151447Y4908823D3*
X1961447D3*
X2056447Y5138823D3*
X439013Y882243D3*
X629013D3*
X534013Y652243D3*
D82*
X1973230Y4764717D3*
X2163230D3*
D84*
X1308293Y4137600D3*
Y3947600D3*
D82*
X906420Y4048580D3*
X1096420D3*
X1663477Y496383D3*
X1853477D3*
X628560Y1068487D3*
X438560D3*
D84*
X717010Y4781800D3*
Y4971800D3*
D52*
X2210220Y1369247D3*
Y1139247D3*
Y909247D3*
D50*
X1630220Y1139247D3*
D54*
X1889160Y349623D3*
Y254623D3*
Y159623D3*
X1619160D3*
Y349623D3*
D48*
X1548597Y2947743D3*
X998597D3*
X1548597Y2627743D3*
X998597D3*
M02*
