G04 DipTrace Beta 2.9.0.1*
G04 BottomPaste.gbr*
%MOMM*%
G04 #@! TF.FileFunction,Paste,Bot*
G04 #@! TF.Part,Single*
%ADD50R,1.0X0.4*%
%ADD52R,1.95X3.05*%
%ADD54R,1.95X0.75*%
%ADD56R,0.9X0.4*%
%ADD60R,0.45X0.85*%
%ADD62R,0.8X1.15*%
%ADD78R,2.5X1.4*%
%ADD80R,0.9X0.8*%
%ADD82R,1.1X1.3*%
%ADD84R,1.3X1.1*%
%FSLAX35Y35*%
G04*
G71*
G90*
G75*
G01*
G04 BotPaste*
%LPD*%
D84*
X1174930Y2038600D3*
Y2228600D3*
X1360013Y2040100D3*
Y2230100D3*
X1562100Y2038600D3*
Y2228600D3*
D82*
X1527983Y3526523D3*
X1337983D3*
D84*
X743370Y2535860D3*
Y2345860D3*
X1831027Y2859667D3*
Y3049667D3*
X904267Y3821663D3*
Y3631663D3*
D80*
X1546937Y2437153D3*
X1376937D3*
X1559007Y2783337D3*
X1389007D3*
D82*
X2109063Y695560D3*
X1919063D3*
D84*
X1416890Y1218647D3*
Y1408647D3*
D78*
X560453Y202240D3*
Y482240D3*
D62*
X1364863Y3728067D3*
X1514863D3*
D60*
X2151447Y4908823D3*
X1961447D3*
X2056447Y5138823D3*
X439013Y882243D3*
X629013D3*
X534013Y652243D3*
D82*
X1973230Y4764717D3*
X2163230D3*
D84*
X1308293Y4137600D3*
Y3947600D3*
D82*
X906420Y4048580D3*
X1096420D3*
X1663477Y496383D3*
X1853477D3*
X628560Y1068487D3*
X438560D3*
D84*
X717010Y4781800D3*
Y4971800D3*
D54*
X2210220Y1369247D3*
Y1139247D3*
Y909247D3*
D52*
X1630220Y1139247D3*
D56*
X1889160Y349623D3*
Y254623D3*
Y159623D3*
X1619160D3*
Y349623D3*
D50*
X1573047Y2650033D3*
X943047D3*
X1573047Y2560033D3*
X943047D3*
M02*
