G04 DipTrace Beta 2.9.0.1*
G04 BottomSilk.gbr*
%MOMM*%
G04 #@! TF.FileFunction,Legend,Bot*
G04 #@! TF.Part,Single*
%ADD10C,0.25*%
%ADD33O,0.39127X0.39172*%
%ADD87C,0.19608*%
%FSLAX35Y35*%
G04*
G71*
G90*
G75*
G01*
G04 BotSilk*
%LPD*%
X1109980Y1933547D2*
D10*
X1239880D1*
X1295063Y1935047D2*
X1424963D1*
X1497150Y1933547D2*
X1627050D1*
X1633037Y3461573D2*
Y3591473D1*
X808320Y2640913D2*
X678420D1*
X1766077Y2754613D2*
X1895977D1*
X969217Y3926717D2*
X839317D1*
X2214117Y630610D2*
Y760510D1*
X1322923Y1115407D2*
X1452823D1*
X685463Y312320D2*
Y372160D1*
X435443Y312320D2*
Y372160D1*
X25396Y4571814D2*
X279400D1*
Y508186D1*
X25396D1*
Y4571814D1*
X2565404Y508186D2*
X2311400D1*
Y4571814D1*
X2565404D1*
Y508186D1*
D33*
X2229803Y4871463D3*
X2206433Y4998823D2*
D10*
X1906447D1*
Y5048824D1*
X2206433D1*
Y4998823D1*
D33*
X360657Y919604D3*
X384027Y792244D2*
D10*
X684013D1*
Y742243D1*
X384027D1*
Y792244D1*
D33*
X2266964Y1466603D3*
X2040269Y1469243D2*
D10*
Y809275D1*
X1760271Y1469243D2*
Y809275D1*
X2040269D2*
X1760271D1*
X2040269Y1469243D2*
X1760271D1*
D33*
X1891598Y387988D3*
X1784227Y354613D2*
D10*
Y154613D1*
X1724129D1*
Y354613D1*
X1784227D1*
X1603047Y2675038D2*
X913047D1*
Y2535028D1*
X1603047D1*
Y2675038D1*
X1458072Y2670028D2*
Y2540038D1*
X949243Y2005135D2*
D87*
X937170Y2011172D1*
X924957Y2023385D1*
X918920Y2035458D1*
Y2059745D1*
X924957Y2071958D1*
X937170Y2084031D1*
X949243Y2090208D1*
X967493Y2096245D1*
X997957Y2096244D1*
X1016066Y2090208D1*
X1028280Y2084031D1*
X1040353Y2071958D1*
X1046530Y2059744D1*
Y2035458D1*
X1040353Y2023385D1*
X1028280Y2011171D1*
X1016066Y2005135D1*
X943347Y1965919D2*
X937170Y1953706D1*
X919060Y1935456D1*
X1046530D1*
X1346953Y1813866D2*
X1334880Y1819903D1*
X1322667Y1832116D1*
X1316630Y1844190D1*
Y1868476D1*
X1322667Y1880689D1*
X1334880Y1892763D1*
X1346953Y1898939D1*
X1365203Y1904976D1*
X1395667D1*
X1413776Y1898939D1*
X1425990Y1892762D1*
X1438063Y1880689D1*
X1444240Y1868476D1*
Y1844189D1*
X1438063Y1832116D1*
X1425990Y1819903D1*
X1413776Y1813866D1*
X1347094Y1768474D2*
X1341057D1*
X1328844Y1762437D1*
X1322807Y1756401D1*
X1316771Y1744187D1*
X1316770Y1719901D1*
X1322807Y1707828D1*
X1328844Y1701791D1*
X1341057Y1695614D1*
X1353130D1*
X1365344Y1701791D1*
X1383453Y1713864D1*
X1444240Y1774651D1*
Y1689578D1*
X1713043Y2046220D2*
X1700970Y2052256D1*
X1688757Y2064470D1*
X1682720Y2076543D1*
Y2100829D1*
X1688757Y2113043D1*
X1700970Y2125116D1*
X1713043Y2131293D1*
X1731293Y2137329D1*
X1761757D1*
X1779866Y2131293D1*
X1792080Y2125116D1*
X1804153Y2113043D1*
X1810330Y2100829D1*
Y2076543D1*
X1804153Y2064470D1*
X1792080Y2052256D1*
X1779866Y2046220D1*
X1682861Y1994791D2*
X1682860Y1928108D1*
X1731434Y1964468D1*
Y1946218D1*
X1737470Y1934145D1*
X1743507Y1928108D1*
X1761757Y1921931D1*
X1773830D1*
X1792080Y1928108D1*
X1804293Y1940181D1*
X1810330Y1958431D1*
Y1976681D1*
X1804293Y1994791D1*
X1798116Y2000827D1*
X1786043Y2007004D1*
X1811718Y3553210D2*
X1817754Y3565283D1*
X1829968Y3577497D1*
X1842041Y3583533D1*
X1866327D1*
X1878541Y3577497D1*
X1890614Y3565283D1*
X1896791Y3553210D1*
X1902827Y3534960D1*
Y3504497D1*
X1896791Y3486387D1*
X1890614Y3474174D1*
X1878541Y3462101D1*
X1866327Y3455924D1*
X1842041D1*
X1829968Y3462101D1*
X1817754Y3474174D1*
X1811718Y3486387D1*
X1711716Y3455924D2*
Y3583393D1*
X1772502Y3498460D1*
X1681393D1*
X527213Y2462970D2*
X515140Y2469006D1*
X502927Y2481220D1*
X496890Y2493293D1*
Y2517579D1*
X502927Y2529793D1*
X515140Y2541866D1*
X527213Y2548043D1*
X545463Y2554079D1*
X575927D1*
X594036Y2548043D1*
X606250Y2541866D1*
X618323Y2529793D1*
X624500Y2517579D1*
Y2493293D1*
X618323Y2481220D1*
X606250Y2469006D1*
X594036Y2462970D1*
X497030Y2350895D2*
X497031Y2411541D1*
X551640Y2417577D1*
X545604Y2411541D1*
X539427Y2393291D1*
Y2375181D1*
X545604Y2356931D1*
X557677Y2344718D1*
X575927Y2338681D1*
X588000D1*
X606250Y2344718D1*
X618463Y2356931D1*
X624500Y2375181D1*
Y2393291D1*
X618463Y2411541D1*
X612286Y2417577D1*
X600213Y2423754D1*
X1979613Y2984666D2*
X1967540Y2990703D1*
X1955327Y3002916D1*
X1949290Y3014990D1*
Y3039276D1*
X1955327Y3051489D1*
X1967540Y3063563D1*
X1979613Y3069739D1*
X1997863Y3075776D1*
X2028327D1*
X2046436Y3069739D1*
X2058650Y3063562D1*
X2070723Y3051489D1*
X2076900Y3039276D1*
Y3014989D1*
X2070723Y3002916D1*
X2058650Y2990703D1*
X2046436Y2984666D1*
X2076900Y2921164D2*
X1949430Y2860378D1*
X1949431Y2945451D1*
X870223Y3429543D2*
X858150Y3435579D1*
X845937Y3447793D1*
X839900Y3459866D1*
Y3484152D1*
X845937Y3496366D1*
X858150Y3508439D1*
X870223Y3514616D1*
X888473Y3520652D1*
X918937D1*
X937046Y3514616D1*
X949260Y3508439D1*
X961333Y3496366D1*
X967510Y3484152D1*
Y3459866D1*
X961333Y3447793D1*
X949260Y3435579D1*
X937046Y3429543D1*
X840041Y3360004D2*
X846077Y3378114D1*
X858150Y3384291D1*
X870364D1*
X882437Y3378114D1*
X888614Y3366041D1*
X894650Y3341754D1*
X900687Y3323504D1*
X912900Y3311431D1*
X924973Y3305395D1*
X943223D1*
X955296Y3311431D1*
X961473Y3317468D1*
X967510Y3335718D1*
Y3360004D1*
X961473Y3378114D1*
X955296Y3384291D1*
X943223Y3390327D1*
X924973D1*
X912900Y3384291D1*
X900687Y3372077D1*
X894650Y3353968D1*
X888614Y3329681D1*
X882437Y3317468D1*
X870364Y3311431D1*
X858150D1*
X846077Y3317468D1*
X840040Y3335718D1*
X840041Y3360004D1*
X1756021Y2464547D2*
X1762058Y2476620D1*
X1774271Y2488833D1*
X1786344Y2494870D1*
X1810631D1*
X1822844Y2488833D1*
X1834917Y2476620D1*
X1841094Y2464547D1*
X1847131Y2446297D1*
Y2415833D1*
X1841094Y2397724D1*
X1834917Y2385510D1*
X1822844Y2373437D1*
X1810631Y2367260D1*
X1786344D1*
X1774271Y2373437D1*
X1762058Y2385510D1*
X1756021Y2397724D1*
X1637769Y2452333D2*
X1643946Y2434083D1*
X1656019Y2421870D1*
X1674269Y2415833D1*
X1680306D1*
X1698556Y2421870D1*
X1710629Y2434083D1*
X1716806Y2452333D1*
Y2458370D1*
X1710629Y2476620D1*
X1698556Y2488693D1*
X1680306Y2494730D1*
X1674269D1*
X1656019Y2488693D1*
X1643946Y2476620D1*
X1637769Y2452333D1*
Y2421870D1*
X1643946Y2391547D1*
X1656019Y2373297D1*
X1674269Y2367260D1*
X1686342D1*
X1704592Y2373297D1*
X1710629Y2385510D1*
X1521789Y2971277D2*
X1527826Y2983350D1*
X1540039Y2995563D1*
X1552112Y3001600D1*
X1576399D1*
X1588612Y2995563D1*
X1600685Y2983350D1*
X1606862Y2971277D1*
X1612899Y2953027D1*
Y2922563D1*
X1606862Y2904454D1*
X1600685Y2892240D1*
X1588612Y2880167D1*
X1576399Y2873990D1*
X1552112D1*
X1540039Y2880167D1*
X1527826Y2892240D1*
X1521789Y2904454D1*
X1482573Y2977173D2*
X1470360Y2983350D1*
X1452110Y3001460D1*
Y2873990D1*
X1376394Y3001460D2*
X1394644Y2995423D1*
X1406858Y2977173D1*
X1412894Y2946850D1*
Y2928600D1*
X1406858Y2898277D1*
X1394644Y2880027D1*
X1376394Y2873990D1*
X1364321D1*
X1346071Y2880027D1*
X1333998Y2898277D1*
X1327821Y2928600D1*
Y2946850D1*
X1333998Y2977173D1*
X1346071Y2995423D1*
X1364321Y3001460D1*
X1376394D1*
X1333998Y2977173D2*
X1406858Y2898277D1*
X2111448Y551417D2*
X2117484Y563490D1*
X2129698Y575703D1*
X2141771Y581740D1*
X2166057D1*
X2178271Y575703D1*
X2190344Y563490D1*
X2196521Y551417D1*
X2202557Y533167D1*
Y502703D1*
X2196521Y484594D1*
X2190344Y472380D1*
X2178271Y460307D1*
X2166057Y454130D1*
X2141771D1*
X2129698Y460307D1*
X2117484Y472380D1*
X2111448Y484594D1*
X2072232Y557313D2*
X2060019Y563490D1*
X2041769Y581600D1*
Y454130D1*
X2002553Y557313D2*
X1990339Y563490D1*
X1972089Y581600D1*
Y454130D1*
X1345687Y980409D2*
X1333614Y986446D1*
X1321400Y998659D1*
X1315364Y1010732D1*
Y1035019D1*
X1321400Y1047232D1*
X1333614Y1059305D1*
X1345687Y1065482D1*
X1363937Y1071519D1*
X1394400D1*
X1412510Y1065482D1*
X1424723Y1059305D1*
X1436796Y1047232D1*
X1442973Y1035019D1*
Y1010732D1*
X1436796Y998659D1*
X1424723Y986446D1*
X1412510Y980409D1*
X1339790Y941194D2*
X1333614Y928980D1*
X1315504Y910730D1*
X1442973D1*
X1345827Y865338D2*
X1339790D1*
X1327577Y859301D1*
X1321540Y853265D1*
X1315504Y841051D1*
Y816765D1*
X1321540Y804692D1*
X1327577Y798655D1*
X1339790Y792478D1*
X1351863D1*
X1364077Y798655D1*
X1382187Y810728D1*
X1442973Y871514D1*
Y786442D1*
X815295Y390433D2*
X894331D1*
Y262824D1*
Y329647D2*
X845758D1*
X776079Y366006D2*
X763865Y372183D1*
X745615Y390293D1*
Y262824D1*
X282474Y4757550D2*
Y4660404D1*
X288511Y4642154D1*
X294688Y4636117D1*
X306761Y4629940D1*
X318974D1*
X331048Y4636117D1*
X337084Y4642154D1*
X343261Y4660404D1*
Y4672477D1*
X237082Y4727086D2*
Y4733123D1*
X231045Y4745336D1*
X225009Y4751373D1*
X212795Y4757410D1*
X188509D1*
X176436Y4751373D1*
X170399Y4745336D1*
X164222Y4733123D1*
Y4721050D1*
X170399Y4708836D1*
X182472Y4690727D1*
X243259Y4629940D1*
X158186D1*
X2464063Y4767893D2*
Y4670747D1*
X2470099Y4652497D1*
X2476276Y4646461D1*
X2488349Y4640284D1*
X2500563D1*
X2512636Y4646461D1*
X2518672Y4652497D1*
X2524849Y4670747D1*
Y4682820D1*
X2364060Y4640284D2*
Y4767753D1*
X2424847Y4682820D1*
X2333737D1*
X1774456Y3806370D2*
Y3678760D1*
X1701596D1*
X1662381Y3781943D2*
X1650167Y3788120D1*
X1631917Y3806230D1*
Y3678760D1*
X2409883Y5064280D2*
X2421956Y5058384D1*
X2434169Y5046170D1*
X2440206Y5033957D1*
X2446383Y5015707D1*
Y4985384D1*
X2440206Y4967134D1*
X2434169Y4955061D1*
X2421956Y4942847D1*
X2409883Y4936811D1*
X2385596D1*
X2373383Y4942847D1*
X2361310Y4955061D1*
X2355273Y4967134D1*
X2349096Y4985384D1*
Y5015707D1*
X2355273Y5033957D1*
X2361310Y5046170D1*
X2373383Y5058384D1*
X2385596Y5064280D1*
X2409883D1*
X2391633Y4961097D2*
X2355273Y4924597D1*
X2309881Y5039853D2*
X2297667Y5046030D1*
X2279417Y5064140D1*
Y4936670D1*
X914134Y876430D2*
X926207Y870534D1*
X938421Y858320D1*
X944457Y846107D1*
X950634Y827857D1*
Y797534D1*
X944457Y779284D1*
X938421Y767211D1*
X926207Y754997D1*
X914134Y748961D1*
X889848D1*
X877634Y754997D1*
X865561Y767211D1*
X859525Y779284D1*
X853348Y797534D1*
Y827857D1*
X859525Y846107D1*
X865561Y858320D1*
X877634Y870534D1*
X889848Y876430D1*
X914134D1*
X895884Y773247D2*
X859525Y736747D1*
X807955Y845966D2*
Y852003D1*
X801919Y864216D1*
X795882Y870253D1*
X783669Y876290D1*
X759382D1*
X747309Y870253D1*
X741272Y864216D1*
X735096Y852003D1*
Y839930D1*
X741272Y827716D1*
X753346Y809607D1*
X814132Y748820D1*
X729059D1*
X1850656Y4688390D2*
X1796046D1*
X1777796Y4694567D1*
X1771619Y4700604D1*
X1765583Y4712677D1*
Y4724890D1*
X1771619Y4736963D1*
X1777796Y4743140D1*
X1796046Y4749177D1*
X1850656D1*
Y4621567D1*
X1808119Y4688390D2*
X1765583Y4621567D1*
X1665581D2*
Y4749036D1*
X1726367Y4664104D1*
X1635257D1*
X1496567Y4140431D2*
Y4085821D1*
X1490390Y4067571D1*
X1484353Y4061395D1*
X1472280Y4055358D1*
X1460067D1*
X1447994Y4061395D1*
X1441817Y4067572D1*
X1435780Y4085821D1*
Y4140431D1*
X1563390D1*
X1496567Y4097894D2*
X1563390Y4055358D1*
X1435920Y3943283D2*
X1435921Y4003929D1*
X1490530Y4009965D1*
X1484494Y4003929D1*
X1478317Y3985679D1*
Y3967569D1*
X1484494Y3949319D1*
X1496567Y3937106D1*
X1514817Y3931069D1*
X1526890D1*
X1545140Y3937106D1*
X1557353Y3949319D1*
X1563390Y3967569D1*
Y3985679D1*
X1557353Y4003929D1*
X1551176Y4009965D1*
X1539103Y4016142D1*
X798339Y4061987D2*
X743730D1*
X725480Y4068164D1*
X719303Y4074200D1*
X713266Y4086273D1*
Y4098487D1*
X719303Y4110560D1*
X725480Y4116737D1*
X743730Y4122773D1*
X798339D1*
Y3995164D1*
X755803Y4061987D2*
X713266Y3995164D1*
X601191Y4104523D2*
X607227Y4116596D1*
X625477Y4122633D1*
X637550D1*
X655800Y4116596D1*
X668014Y4098346D1*
X674050Y4068023D1*
Y4037700D1*
X668014Y4013414D1*
X655800Y4001200D1*
X637550Y3995164D1*
X631514D1*
X613404Y4001200D1*
X601191Y4013414D1*
X595154Y4031664D1*
Y4037700D1*
X601191Y4055950D1*
X613404Y4068023D1*
X631514Y4074060D1*
X637550D1*
X655800Y4068023D1*
X668014Y4055950D1*
X674050Y4037700D1*
X1543488Y495870D2*
X1488878D1*
X1470628Y502047D1*
X1464451Y508084D1*
X1458415Y520157D1*
Y532370D1*
X1464451Y544443D1*
X1470628Y550620D1*
X1488878Y556657D1*
X1543488D1*
Y429047D1*
X1500951Y495870D2*
X1458415Y429047D1*
X1394912D2*
X1334126Y556516D1*
X1419199D1*
X630106Y1241553D2*
X575496D1*
X557246Y1247730D1*
X551069Y1253767D1*
X545033Y1265840D1*
Y1278053D1*
X551069Y1290126D1*
X557246Y1296303D1*
X575496Y1302340D1*
X630106D1*
Y1174730D1*
X587569Y1241553D2*
X545033Y1174730D1*
X426781Y1259803D2*
X432958Y1241553D1*
X445031Y1229340D1*
X463281Y1223303D1*
X469317D1*
X487567Y1229340D1*
X499640Y1241553D1*
X505817Y1259803D1*
Y1265840D1*
X499640Y1284090D1*
X487567Y1296163D1*
X469317Y1302200D1*
X463281D1*
X445031Y1296163D1*
X432958Y1284090D1*
X426781Y1259803D1*
Y1229340D1*
X432958Y1199017D1*
X445031Y1180767D1*
X463281Y1174730D1*
X475354D1*
X493604Y1180767D1*
X499640Y1192980D1*
X716533Y4658194D2*
Y4603584D1*
X710356Y4585334D1*
X704320Y4579157D1*
X692247Y4573121D1*
X680033D1*
X667960Y4579157D1*
X661783Y4585334D1*
X655747Y4603584D1*
Y4658194D1*
X783356D1*
X716533Y4615657D2*
X783356Y4573121D1*
X680174Y4533905D2*
X673997Y4521692D1*
X655887Y4503442D1*
X783356D1*
X655887Y4427726D2*
X661924Y4445976D1*
X680174Y4458190D1*
X710497Y4464226D1*
X728747D1*
X759070Y4458190D1*
X777320Y4445976D1*
X783357Y4427726D1*
X783356Y4415653D1*
X777320Y4397403D1*
X759070Y4385330D1*
X728747Y4379153D1*
X710497D1*
X680174Y4385330D1*
X661924Y4397403D1*
X655887Y4415653D1*
Y4427726D1*
X680174Y4385330D2*
X759070Y4458190D1*
X1710504Y943785D2*
Y852675D1*
X1704468Y834425D1*
X1692254Y822352D1*
X1674004Y816175D1*
X1661931D1*
X1643681Y822352D1*
X1631468Y834425D1*
X1625431Y852675D1*
Y943785D1*
X1574002Y943645D2*
X1507319D1*
X1543679Y895071D1*
X1525429D1*
X1513356Y889035D1*
X1507319Y882998D1*
X1501142Y864748D1*
Y852675D1*
X1507319Y834425D1*
X1519392Y822212D1*
X1537642Y816175D1*
X1555892D1*
X1574002Y822212D1*
X1580039Y828389D1*
X1586215Y840462D1*
X2184189Y290397D2*
Y199287D1*
X2178153Y181037D1*
X2165939Y168964D1*
X2147689Y162787D1*
X2135616D1*
X2117366Y168964D1*
X2105153Y181037D1*
X2099116Y199287D1*
Y290397D1*
X1999114Y162787D2*
Y290256D1*
X2059900Y205324D1*
X1968791D1*
X855876Y2749943D2*
X807303Y2689157D1*
Y2622334D1*
X758730Y2749943D2*
X807303Y2689157D1*
X719514Y2725516D2*
X707301Y2731693D1*
X689051Y2749803D1*
Y2622334D1*
M02*
