M48
METRIC,0000.00
T01C0.5
T02C0.7
T03C1.2
%
T01
X+001631Y+004027
X+001664Y+004455
X+001918Y+004356
X+002021Y+004445
X+001809Y+004858
X+001553Y+004785
X+002203Y+005121
X+002291Y+005232
X+001080Y+003675
X+000725Y+003701
X+000934Y+003199
X+000779Y+002846
X+001231Y+002366
X+001870Y+002249
X+001949Y+002374
X+001863Y+002688
X+002151Y+001815
X+002151Y+001669
X+002015Y+001668
X+002063Y+001544
X+001820Y+001664
X+001742Y+001768
X+001593Y+001527
X+001306Y+001689
X+001249Y+001554
X+001223Y+001417
X+001616Y+000702
X+002295Y+000307
X+000787Y+000589
X+000108Y+004773
T02
X+001549Y+005093
X+001422Y+005093
X+001295Y+005093
X+001168Y+005093
X+001041Y+005093
X+001041Y+004966
X+001168Y+004966
X+001295Y+004966
X+001422Y+004966
X+001549Y+004966
T03
X+000152Y+004445
X+000152Y+004191
X+000406Y+004191
X+000152Y+003937
X+000152Y+003683
X+000152Y+003429
X+000152Y+003175
X+000152Y+002921
X+000152Y+002667
X+000152Y+002413
X+000152Y+002159
X+000152Y+001905
X+000152Y+001651
X+000152Y+001397
X+000152Y+001143
X+000152Y+000889
X+000152Y+000635
X+002438Y+000635
X+002438Y+000889
X+002438Y+001143
X+002438Y+001397
X+002438Y+001651
X+002438Y+001905
X+002438Y+002159
X+002438Y+002413
X+002438Y+002667
X+002438Y+002921
X+002438Y+003175
X+002438Y+003429
X+002438Y+003683
X+002438Y+003937
X+002438Y+004191
X+002438Y+004445
X+002184Y+004445
X+001930Y+004191
T00
M30
