M48
METRIC,0000.00
T01C0.6
T02C1.2
%
T01
X+001549Y+005093
X+001422Y+005093
X+001295Y+005093
X+001168Y+005093
X+001041Y+005093
X+001041Y+004966
X+001168Y+004966
X+001295Y+004966
X+001422Y+004966
X+001549Y+004966
X+001558Y+004780
X+001792Y+004968
X+002197Y+005108
X+002324Y+005222
X+001814Y+004461
X+001936Y+004256
X+001633Y+004029
X+001511Y+004465
X+001080Y+003675
X+000725Y+003701
X+000722Y+003537
X+000934Y+003199
X+000786Y+002855
X+001231Y+002366
X+001860Y+002240
X+001949Y+002374
X+001863Y+002688
X+002149Y+001850
X+002149Y+001700
X+002030Y+001613
X+002182Y+001508
X+001825Y+001630
X+001750Y+001759
X+001571Y+001531
X+001307Y+001682
X+001212Y+001568
X+001223Y+001417
X+001617Y+000684
X+002295Y+000307
X+000787Y+000589
X+000114Y+004780
T02
X+000152Y+004445
X+000152Y+004191
X+000406Y+004191
X+000406Y+003937
X+000152Y+003937
X+000152Y+003683
X+000152Y+003429
X+000152Y+003175
X+000152Y+002921
X+000152Y+002667
X+000152Y+002413
X+000152Y+002159
X+000152Y+001905
X+000152Y+001651
X+000152Y+001397
X+000152Y+001143
X+000152Y+000889
X+000152Y+000635
X+002438Y+000635
X+002438Y+000889
X+002438Y+001143
X+002438Y+001397
X+002438Y+001651
X+002438Y+001905
X+002438Y+002159
X+002438Y+002413
X+002438Y+002667
X+002438Y+002921
X+002438Y+003175
X+002438Y+003429
X+002438Y+003683
X+002438Y+003937
X+002438Y+004191
X+002184Y+004191
X+002184Y+004445
X+002438Y+004445
T00
M30
