G04 DipTrace Beta 2.9.0.1*
G04 Top.gbr*
%MOMM*%
G04 #@! TF.FileFunction,Copper,L1,Top*
G04 #@! TF.Part,Single*
%AMOUTLINE0*
4,1,4,
0.75,-0.65,
-0.75,-0.65,
-0.75,0.65,
0.75,0.65,
0.75,-0.65,
0*%
%AMOUTLINE3*
4,1,4,
0.45962,0.67175,
0.67175,0.45962,
-0.45962,-0.67175,
-0.67175,-0.45962,
0.45962,0.67175,
0*%
%AMOUTLINE6*
4,1,4,
-0.67175,0.45962,
-0.45962,0.67175,
0.67175,-0.45962,
0.45962,-0.67175,
-0.67175,0.45962,
0*%
G04 #@! TA.AperFunction,Conductor,NotC*
%ADD14C,0.4064*%
G04 #@! TA.AperFunction,CopperBalancing*
%ADD15C,0.3556*%
G04 #@! TA.AperFunction,Conductor,NotC*
%ADD16C,0.254*%
%ADD17C,0.4*%
G04 #@! TA.AperFunction,CopperBalancing*
%ADD18C,0.635*%
G04 #@! TA.AperFunction,SMDPad,CuDef*
%ADD19R,1.5X1.3*%
%ADD20R,1.3X1.5*%
%ADD23R,1.9X1.9*%
%ADD24R,1.8X1.9*%
%ADD25R,2.1X1.6*%
%ADD26R,0.4X1.35*%
G04 #@! TA.AperFunction,ComponentPad*
%ADD27R,1.7X1.7*%
%ADD28C,1.7*%
%ADD29R,1.05X1.05*%
%ADD30C,1.05*%
G04 #@! TA.AperFunction,SMDPad,CuDef*
%ADD34R,1.6X2.2*%
%ADD35R,1.1X0.6*%
G04 #@! TA.AperFunction,ViaPad*
%ADD39C,1.0*%
%ADD41C,1.8*%
G04 #@! TA.AperFunction,SMDPad,CuDef*
%ADD89OUTLINE0*%
%ADD92OUTLINE3*%
%ADD95OUTLINE6*%
%FSLAX35Y35*%
G04*
G71*
G90*
G75*
G01*
G04 Top*
%LPD*%
X457200Y4781800D2*
D14*
X588933D1*
X651480Y4844347D1*
Y5163123D1*
X719873Y5231517D1*
X2291063D1*
X2406517Y5116063D1*
Y4978283D1*
X2413000Y4971800D1*
X1630640Y4026970D2*
Y4196933D1*
X1797290Y4363583D1*
Y4598777D1*
X1740843Y4655223D1*
X1439797D1*
X1303383Y4791637D1*
X592583D1*
X651480Y4844347D1*
X1630640Y4026970D2*
Y3359500D1*
X1399520Y3128380D1*
X1004343D1*
X933660Y3199063D1*
X779220Y2845973D2*
D16*
X790692D1*
X1051447Y2585218D1*
X1645417Y1991248D2*
X1785719Y1850947D1*
X1831637D1*
X1878727Y1803857D1*
Y1723250D1*
X1819850Y1664373D1*
X1306207Y1688953D2*
X1251399Y1743761D1*
X1192869D1*
X2129123Y397550D2*
D14*
X1926423D1*
X1925923Y398050D1*
X1425400Y419903D2*
D17*
Y496217D1*
D14*
X1482437Y553253D1*
X1770720D1*
X1925923Y398050D1*
X1016092Y2549863D2*
D16*
X1329263Y2236691D1*
Y2165980D1*
X1378723Y2116520D1*
X1574706Y1920537D1*
X1157513Y1779116D2*
Y1779270D1*
X1378723Y2000480D1*
Y2116520D1*
X1645417Y2479152D2*
X1643065D1*
X1423237Y2259323D1*
X1312263D1*
X1329263Y2236690D1*
X1663797Y4455283D2*
D14*
X1678377D1*
X1666810Y4443717D1*
X1375683D1*
X1295400Y4524000D1*
X107967Y4773427D2*
X97353D1*
X103757Y4779830D1*
X252030D1*
X254000Y4781800D1*
X1295400Y4524000D2*
Y4585203D1*
X1219693Y4660910D1*
X349927D1*
X229037Y4781800D1*
X254000D1*
X1231163Y2365620D2*
D16*
X1329263Y2236690D1*
X725470Y3700607D2*
D15*
X927730D1*
X1098483Y3871360D1*
X1183860D1*
X1292000Y3979500D1*
Y4520600D1*
X1295400Y4524000D1*
X2295480Y306673D2*
D16*
Y335880D1*
D14*
X2234410Y396950D1*
X2129723D1*
D16*
X2129123Y397550D1*
X1405000Y838200D2*
D14*
X1493357D1*
X1529600Y874443D1*
Y1181660D1*
X1465963Y1245297D1*
X1394653D1*
X1223223Y1416727D1*
X152400Y4445000D2*
Y4680200D1*
X254000Y4781800D1*
X1862850Y2688017D2*
D16*
X1783571D1*
X1610062Y2514507D1*
X2203037Y5121477D2*
D15*
Y4978563D1*
X2209800Y4971800D1*
X985400Y407403D2*
X958800D1*
Y195803D1*
X915400Y152403D1*
X1175400D1*
X1415400D1*
X1675400D1*
X1649033D1*
Y363770D1*
X1605400Y407403D1*
X1925923Y208050D2*
X1731047D1*
X1675400Y152403D1*
X2129123Y207550D2*
X1926423D1*
X1925923Y208050D1*
X1610062Y1955893D2*
D16*
X1741703Y1824251D1*
Y1768377D1*
X457200Y4971800D2*
D15*
X254000D1*
X1295400Y3604000D2*
X1150640D1*
X1079753Y3674887D1*
X2209800Y4781800D2*
X2413000D1*
X786667Y588913D2*
D14*
X896743D1*
X1078713D1*
X1165400Y502227D1*
Y419903D1*
X1135000Y838200D2*
X1052967D1*
X974470Y759703D1*
Y666640D1*
X896743Y588913D1*
X1716128Y2408441D2*
D16*
X1840690Y2533003D1*
X1964340D1*
X2205777Y2291567D1*
Y2137623D1*
X2438400Y1905000D1*
X1680772Y2443797D2*
X1826336Y2589360D1*
X2008040D1*
X2438400Y2159000D1*
X1503996Y2620573D2*
X1785806Y2902383D1*
X2419783D1*
X2438400Y2921000D1*
X1468640Y2655929D2*
X1772948Y2960237D1*
X2223637D1*
X2438400Y3175000D1*
X1433285Y2691284D2*
X1760691Y3018690D1*
X2091993D1*
X2299677Y3226373D1*
Y3290277D1*
X2438400Y3429000D1*
X1397930Y2726639D2*
X1749934Y3078643D1*
X2072290D1*
X2241283Y3247637D1*
Y3485883D1*
X2438400Y3683000D1*
X1192869Y2726639D2*
X1323453D1*
X1743447Y3146633D1*
X2052980D1*
X2184330Y3277983D1*
Y3682930D1*
X2438400Y3937000D1*
X1157513Y2691284D2*
X1085167Y2763631D1*
Y2848627D1*
X1132633Y2896093D1*
X1419400D1*
X1726350Y3203043D1*
X2026757D1*
X2125877Y3302163D1*
Y3878477D1*
X2438400Y4191000D1*
X1122158Y2655929D2*
Y2657305D1*
X1032960Y2746503D1*
Y2873093D1*
X1107267Y2947400D1*
X1394070D1*
X1710043Y3263373D1*
X2003353D1*
X2065923Y3325943D1*
Y4072523D1*
X2438400Y4445000D1*
X1086803Y2620573D2*
X949880Y2757496D1*
Y2827390D1*
X731000Y3046270D1*
Y3238003D1*
X626143Y3342860D1*
Y3717257D1*
X152400Y4191000D1*
X910026Y2443797D2*
X545273Y2808549D1*
Y3130233D1*
X260637Y3414870D1*
X166530D1*
X152400Y3429000D1*
X874671Y2408441D2*
X485427Y2797685D1*
Y2956423D1*
X273503Y3168347D1*
X159053D1*
X152400Y3175000D1*
X839315Y2373086D2*
X304548Y2907853D1*
X165547D1*
X152400Y2921000D1*
X803960Y2337730D2*
X468497Y2673193D1*
X146207D1*
X152400Y2667000D1*
Y2413000D2*
X456943D1*
X730203Y2139740D1*
X796889D1*
X803960Y2132670D1*
X839315Y2097314D2*
X837638D1*
X762237Y2021913D1*
X721017D1*
X580880Y2162050D1*
X155450D1*
X152400Y2159000D1*
X874671Y2061959D2*
X766135Y1953423D1*
X200823D1*
X152400Y1905000D1*
X910026Y2026603D2*
X908837D1*
X779843Y1897610D1*
X399010D1*
X152400Y1651000D1*
X945381Y1991248D2*
X785910Y1831777D1*
X587177D1*
X152400Y1397000D1*
X980737Y1955893D2*
X979786D1*
X801807Y1777913D1*
X623687D1*
X322137Y1476363D1*
Y1312737D1*
X152400Y1143000D1*
X1016092Y1920537D2*
X815361Y1719807D1*
X653200D1*
X385860Y1452467D1*
Y1122460D1*
X152400Y889000D1*
X1051447Y1885182D2*
Y1884831D1*
X834557Y1667940D1*
X683647D1*
X442720Y1427013D1*
Y925320D1*
X152400Y635000D1*
X1751483Y2097314D2*
X1827411Y2021387D1*
X2094957D1*
X2250527Y1865817D1*
Y1584873D1*
X2438400Y1397000D1*
X1786838Y2132670D2*
Y2138293D1*
X2098743D1*
X2312013Y1925023D1*
Y1777387D1*
X2438400Y1651000D1*
X1574706Y2549863D2*
X1810320Y2785477D1*
X1904053D1*
X2287240Y2402290D1*
X2427690D1*
X2438400Y2413000D1*
X1539351Y2585218D2*
X1796566Y2842433D1*
X1928030D1*
X2098657Y2671807D1*
X2433593D1*
X2438400Y2667000D1*
X980737Y2514507D2*
X668597Y2826647D1*
Y3212787D1*
X559043Y3322340D1*
Y3648037D1*
X270080Y3937000D1*
X152400D1*
X945381Y2479152D2*
X608750Y2815783D1*
Y3179983D1*
X482887Y3305847D1*
Y3446723D1*
X256363Y3673247D1*
X162153D1*
X152400Y3683000D1*
X1397930Y1743761D2*
X1399293D1*
X1433037Y1710017D1*
Y1466413D1*
X1521673Y1377777D1*
X1949623D1*
X2438400Y889000D1*
X1433285Y1779116D2*
X1498933Y1713468D1*
Y1484450D1*
X1544563Y1438820D1*
X2142580D1*
X2438400Y1143000D1*
X1918240Y4355690D2*
D15*
Y4610143D1*
X1755670Y4772713D1*
X1565193D1*
X1552563Y4785343D1*
X1680772Y2026603D2*
D16*
X1806346Y1901030D1*
X1918997D1*
X2151057Y1668970D1*
X2020727Y4445000D2*
D15*
Y4645487D1*
X1808680Y4857533D1*
X1716128Y2061959D2*
D16*
X1822343Y1955743D1*
X2010320D1*
X2151057Y1815007D1*
X1086803Y1849827D2*
X906827Y1669851D1*
Y1320303D1*
X1237653Y989477D1*
Y642370D1*
Y550790D1*
X1230400D1*
Y419903D1*
X1135000Y743200D2*
X1136823D1*
X1237653Y642370D1*
X1122158Y1814471D2*
X962343Y1654657D1*
Y1335010D1*
X1290413Y1006940D1*
Y628383D1*
Y547510D1*
X1295400D1*
Y419903D1*
X1405000Y743200D2*
Y742970D1*
X1290413Y628383D1*
X1360400Y419903D2*
Y551100D1*
X1472097Y662797D1*
X1576823D1*
X1616233Y702207D1*
X1726767D1*
X1804343Y779783D1*
Y815840D1*
X1853217Y864713D1*
X1786838Y2337730D2*
X1845540D1*
X1877360Y2305910D1*
Y2241860D1*
X1869850Y2249370D1*
X1751483Y2373086D2*
X1842097Y2463700D1*
X1859377D1*
X1948920Y2374157D1*
X1503996Y1849827D2*
X1601303Y1752519D1*
Y1647367D1*
X1749167Y1499503D1*
X2018710D1*
X2063380Y1544173D1*
X1539351Y1885182D2*
X1651467Y1773066D1*
Y1694627D1*
X1786840Y1559253D1*
X1920487D1*
X2029120Y1667887D1*
X2015120D1*
X1663217Y864713D2*
Y1139950D1*
X1249287Y1553880D1*
X1592780Y1526997D2*
X1550120Y1569657D1*
Y1732992D1*
X1468640Y1814471D1*
D39*
X1630640Y4026970D3*
X933660Y3199063D3*
X779220Y2845973D3*
X1630640Y4026970D3*
X1819850Y1664373D3*
X2291063Y5231517D3*
X1306207Y1688953D3*
X1663797Y4455283D3*
X107967Y4773427D3*
X1231163Y2365620D3*
X725470Y3700607D3*
X2295480Y306673D3*
X1223223Y1416727D3*
X1862850Y2688017D3*
X2203037Y5121477D3*
X1741703Y1768377D3*
X1079753Y3674887D3*
X786667Y588913D3*
X1918240Y4355690D3*
X1552563Y4785343D3*
X2151057Y1668970D3*
X2020727Y4445000D3*
X1808680Y4857533D3*
X2151057Y1815007D3*
X1616233Y702207D3*
X1869850Y2249370D3*
X1948920Y2374157D3*
X2063380Y1544173D3*
X2015120Y1667887D3*
X1249287Y1553880D3*
X1592780Y1526997D3*
D41*
X1930400Y4191000D3*
X2184400Y4445000D3*
X406400Y4191000D3*
X1251247Y2559383D2*
D18*
X1338760D1*
X1188740Y2496217D2*
X1402260D1*
X1125240Y2433050D2*
X1465760D1*
X1061740Y2369883D2*
X1528267D1*
X999233Y2306717D2*
X1591767D1*
X935733Y2243550D2*
X1655267D1*
X980380Y2180383D2*
X1610617D1*
X1041897Y2117217D2*
X1549103D1*
X1102420Y2054050D2*
X1487587D1*
X1163937Y1990883D2*
X1427063D1*
X1225450Y1927717D2*
X1365547D1*
X1295107Y1849237D2*
X1669960Y2234900D1*
X1295657Y2609143D1*
X921197Y2234530D1*
X1283990Y1860743D1*
X104637Y5173043D2*
X923390D1*
X1693127D2*
X2071350D1*
X2334080D2*
X2487077D1*
X581877Y5109877D2*
X898583D1*
X1693127D2*
X2043570D1*
X623550Y5046710D2*
X905530D1*
X1693127D2*
X2043570D1*
X623550Y4983543D2*
X898583D1*
X1693127D2*
X1753850D1*
X1863783D2*
X2043570D1*
X623550Y4920377D2*
X905530D1*
X1934230D2*
X2043570D1*
X622557Y4857210D2*
X950177D1*
X1961020D2*
X2043570D1*
X623550Y4794043D2*
X1411547D1*
X1305183Y4730877D2*
X1422460D1*
X1625660Y4667710D2*
X1709203D1*
X1466910Y4604543D2*
X1771710D1*
X1774487Y4541377D2*
X1809413D1*
X1401427Y4288710D2*
X1778653D1*
X1401427Y4225543D2*
X1752857D1*
X1401427Y4162377D2*
X1750873D1*
X1401427Y4099210D2*
X1774687D1*
X1401427Y4036043D2*
X1842153D1*
X1401427Y3972877D2*
X1962210D1*
X1373643Y3909710D2*
X1962210D1*
X1311137Y3846543D2*
X1962210D1*
X1466910Y3783377D2*
X1962210D1*
X1466910Y3720210D2*
X1962210D1*
X1466910Y3657043D2*
X1962210D1*
X815043Y3593877D2*
X965060D1*
X1466910D2*
X1962210D1*
X730707Y3530710D2*
X1072217D1*
X1466910D2*
X1962210D1*
X730707Y3467543D2*
X1123810D1*
X1466910D2*
X1962210D1*
X730707Y3404377D2*
X1962210D1*
X772377Y3341210D2*
X1644710D1*
X826950Y3278043D2*
X1580217D1*
X834887Y3214877D2*
X1516717D1*
X834887Y3151710D2*
X1454210D1*
X834887Y3088543D2*
X1390710D1*
X896403Y3025377D2*
X1041460D1*
X2369790Y5121890D2*
X2492820D1*
X2493010Y5236330D1*
X2273737Y5236210D1*
X2289367Y5225383D1*
X2311190Y5202423D1*
X2327067Y5175010D1*
X2336123Y5144657D1*
X2338063Y5122200D1*
X2369890Y5120897D1*
X96887Y5121890D2*
X532200D1*
X563220Y5116037D1*
X589967Y5099277D1*
X608767Y5073920D1*
X617290Y5036800D1*
X617107Y4905830D1*
X613343Y4872417D1*
X617290Y4846800D1*
Y4766433D1*
X1219693Y4766320D1*
X1250967Y4761573D1*
X1283977Y4744450D1*
X1310367Y4719310D1*
X1434910Y4719090D1*
X1424383Y4742687D1*
X1417977Y4773710D1*
X1418967Y4805370D1*
X1424960Y4827337D1*
X1385003Y4833290D1*
X1358457Y4844223D1*
X1320877Y4830490D1*
X1289277Y4828247D1*
X1258003Y4833290D1*
X1231457Y4844223D1*
X1193877Y4830490D1*
X1162277Y4828247D1*
X1131003Y4833290D1*
X1104457Y4844223D1*
X1066877Y4830490D1*
X1035277Y4828247D1*
X1004003Y4833290D1*
X974710Y4845353D1*
X948953Y4863797D1*
X928097Y4887643D1*
X913247Y4915627D1*
X905190Y4946263D1*
X904353Y4977933D1*
X910787Y5008953D1*
X919550Y5027803D1*
X905190Y5073263D1*
X904353Y5104933D1*
X910787Y5135953D1*
X924140Y5164680D1*
X943710Y5189590D1*
X968460Y5209367D1*
X997077Y5222957D1*
X1028043Y5229640D1*
X1059717Y5229067D1*
X1090420Y5221260D1*
X1103597Y5214407D1*
X1124077Y5222957D1*
X1155043Y5229640D1*
X1186717Y5229067D1*
X1217420Y5221260D1*
X1230597Y5214407D1*
X1251077Y5222957D1*
X1282043Y5229640D1*
X1313717Y5229067D1*
X1344420Y5221260D1*
X1357597Y5214407D1*
X1378077Y5222957D1*
X1411810Y5230290D1*
X1686990D1*
X1686397Y4955110D1*
X1683343Y4934230D1*
X1672597Y4904430D1*
X1653170Y4875823D1*
X1675327Y4875583D1*
X1683420Y4908123D1*
X1698643Y4935900D1*
X1719920Y4959370D1*
X1746073Y4977240D1*
X1775670Y4988530D1*
X1807083Y4992613D1*
X1838583Y4989273D1*
X1868440Y4978687D1*
X1895010Y4961440D1*
X1916833Y4938480D1*
X1932710Y4911067D1*
X1941767Y4880713D1*
X1942830Y4868400D1*
X2049100Y4762597D1*
X2049710Y5121890D1*
X2068560D1*
X2069440Y5141503D1*
X2077777Y5172067D1*
X2093000Y5199843D1*
X2114277Y5223313D1*
X2133073Y5236157D1*
X96877Y5236210D1*
X97790Y5122110D1*
X1256320Y3799090D2*
X1460490D1*
Y3408910D1*
X1130310D1*
Y3503167D1*
X1119393Y3505990D1*
X1090387Y3520803D1*
X1068780Y3540380D1*
X1038617Y3546213D1*
X1009783Y3559330D1*
X984797Y3578800D1*
X964337Y3604470D1*
X927730Y3597737D1*
X813630D1*
X777537Y3575953D1*
X747077Y3567257D1*
X724330Y3566273D1*
X723933Y3382890D1*
X800147Y3307150D1*
X818593Y3281480D1*
X827860Y3250280D1*
X828790Y3206253D1*
Y3086200D1*
X969230Y2946337D1*
X1038120Y3016547D1*
X1063790Y3034993D1*
X1094990Y3044260D1*
X1139017Y3045190D1*
X1354320D1*
X1640897Y3332520D1*
X1666567Y3350967D1*
X1697767Y3360233D1*
X1741793Y3361163D1*
X1963050D1*
X1968133Y3389443D1*
Y4019483D1*
X1919687Y4016237D1*
X1888347Y4021037D1*
X1858383Y4031407D1*
X1830783Y4047010D1*
X1806450Y4067337D1*
X1786180Y4091720D1*
X1770640Y4119357D1*
X1760337Y4149343D1*
X1755613Y4180693D1*
X1756620Y4212387D1*
X1763327Y4243373D1*
X1775510Y4272647D1*
X1794817Y4301400D1*
X1790060Y4313033D1*
X1783653Y4344057D1*
X1784643Y4375717D1*
X1792980Y4406280D1*
X1808203Y4434057D1*
X1815517Y4442123D1*
X1815370Y4567027D1*
X1712900Y4670003D1*
X1621723Y4669843D1*
X1604630Y4660690D1*
X1574170Y4651993D1*
X1542520Y4650627D1*
X1511427Y4656670D1*
X1482593Y4669787D1*
X1459950Y4687433D1*
X1460490Y4549427D1*
X1567177Y4549127D1*
X1575037Y4557120D1*
X1601190Y4574990D1*
X1630787Y4586280D1*
X1662200Y4590363D1*
X1693700Y4587023D1*
X1723557Y4576437D1*
X1750127Y4559190D1*
X1771950Y4536230D1*
X1787827Y4508817D1*
X1796883Y4478463D1*
X1798887Y4455283D1*
X1795173Y4423823D1*
X1784237Y4394097D1*
X1766677Y4367730D1*
X1743460Y4346180D1*
X1715863Y4330630D1*
X1685403Y4321933D1*
X1653753Y4320567D1*
X1622660Y4326610D1*
X1596530Y4338497D1*
X1460490Y4338090D1*
Y4328910D1*
X1394013D1*
X1394870Y4044350D1*
Y3979500D1*
X1390010Y3948253D1*
X1375197Y3919247D1*
X1342290Y3884310D1*
X1257173Y3799193D1*
X2413000Y5121767D2*
D15*
Y4971800D1*
X1549400Y5230167D2*
Y5092700D1*
X1686867D1*
X457200Y4781800D2*
X617177D1*
D19*
X2129123Y397550D3*
Y207550D3*
X2413000Y4971800D3*
Y4781800D3*
X254000Y4971800D3*
Y4781800D3*
D23*
X1415400Y152403D3*
X1175400D3*
D24*
X915400D3*
X1675400D3*
D25*
X985400Y407403D3*
X1605400D3*
D26*
X1165400Y419903D3*
X1230400D3*
X1295400D3*
X1360400D3*
X1425400D3*
D27*
X152400Y4445000D3*
D28*
Y4191000D3*
Y3937000D3*
Y3683000D3*
Y3429000D3*
Y3175000D3*
Y2921000D3*
Y2667000D3*
Y2413000D3*
Y2159000D3*
Y1905000D3*
Y1651000D3*
Y1397000D3*
Y1143000D3*
Y889000D3*
Y635000D3*
D29*
X1549400Y5092700D3*
D30*
X1422400D3*
X1295400D3*
X1168400D3*
X1041400D3*
X1549400Y4965700D3*
X1422400D3*
X1295400D3*
X1168400D3*
X1041400D3*
D27*
X2438400Y635000D3*
D28*
Y889000D3*
Y1143000D3*
Y1397000D3*
Y1651000D3*
Y1905000D3*
Y2159000D3*
Y2413000D3*
Y2667000D3*
Y2921000D3*
Y3175000D3*
Y3429000D3*
Y3683000D3*
Y3937000D3*
Y4191000D3*
Y4445000D3*
D19*
X2209800Y4971800D3*
Y4781800D3*
D20*
X1853217Y864713D3*
X1663217D3*
D19*
X1925923Y208050D3*
Y398050D3*
D89*
X457200Y4781800D3*
Y4971800D3*
D34*
X1295400Y3604000D3*
Y4524000D3*
D35*
X1405000Y743200D3*
Y838200D3*
Y933200D3*
X1135000D3*
Y838200D3*
Y743200D3*
D92*
X1786838Y2337730D3*
X1751483Y2373086D3*
X1716128Y2408441D3*
X1680772Y2443797D3*
X1645417Y2479152D3*
X1610062Y2514507D3*
X1574706Y2549863D3*
X1539351Y2585218D3*
X1503996Y2620573D3*
X1468640Y2655929D3*
X1433285Y2691284D3*
X1397930Y2726639D3*
D95*
X1192869D3*
X1157513Y2691284D3*
X1122158Y2655929D3*
X1086803Y2620573D3*
X1051447Y2585218D3*
X1016092Y2549863D3*
X980737Y2514507D3*
X945381Y2479152D3*
X910026Y2443797D3*
X874671Y2408441D3*
X839315Y2373086D3*
X803960Y2337730D3*
D92*
Y2132670D3*
X839315Y2097314D3*
X874671Y2061959D3*
X910026Y2026603D3*
X945381Y1991248D3*
X980737Y1955893D3*
X1016092Y1920537D3*
X1051447Y1885182D3*
X1086803Y1849827D3*
X1122158Y1814471D3*
X1157513Y1779116D3*
X1192869Y1743761D3*
D95*
X1397930D3*
X1433285Y1779116D3*
X1468640Y1814471D3*
X1503996Y1849827D3*
X1539351Y1885182D3*
X1574706Y1920537D3*
X1610062Y1955893D3*
X1645417Y1991248D3*
X1680772Y2026603D3*
X1716128Y2061959D3*
X1751483Y2097314D3*
X1786838Y2132670D3*
M02*
