G04 DipTrace Beta 2.9.0.1*
G04 Top.gbr*
%MOMM*%
G04 #@! TF.FileFunction,Copper,L1,Top*
G04 #@! TF.Part,Single*
%AMOUTLINE0*
4,1,4,
0.75,-0.65,
-0.75,-0.65,
-0.75,0.65,
0.75,0.65,
0.75,-0.65,
0*%
%AMOUTLINE3*
4,1,4,
0.45962,0.67175,
0.67175,0.45962,
-0.45962,-0.67175,
-0.67175,-0.45962,
0.45962,0.67175,
0*%
%AMOUTLINE6*
4,1,4,
-0.67175,0.45962,
-0.45962,0.67175,
0.67175,-0.45962,
0.45962,-0.67175,
-0.67175,0.45962,
0*%
G04 #@! TA.AperFunction,Conductor,NotC*
%ADD14C,0.4064*%
G04 #@! TA.AperFunction,CopperBalancing*
%ADD15C,0.3556*%
G04 #@! TA.AperFunction,Conductor,NotC*
%ADD16C,0.254*%
%ADD17C,0.4*%
G04 #@! TA.AperFunction,CopperBalancing*
%ADD18C,0.635*%
G04 #@! TA.AperFunction,SMDPad,CuDef*
%ADD19R,1.5X1.3*%
%ADD20R,1.3X1.5*%
%ADD23R,1.9X1.9*%
%ADD24R,1.8X1.9*%
%ADD25R,2.1X1.6*%
%ADD26R,0.4X1.35*%
G04 #@! TA.AperFunction,ComponentPad*
%ADD27R,1.7X1.7*%
%ADD28C,1.7*%
%ADD29R,1.05X1.05*%
%ADD30C,1.05*%
G04 #@! TA.AperFunction,SMDPad,CuDef*
%ADD34R,1.6X2.2*%
%ADD35R,1.1X0.6*%
G04 #@! TA.AperFunction,ViaPad*
%ADD39C,1.0*%
%ADD41C,1.8*%
G04 #@! TA.AperFunction,SMDPad,CuDef*
%ADD89OUTLINE0*%
%ADD92OUTLINE3*%
%ADD95OUTLINE6*%
%FSLAX35Y35*%
G04*
G71*
G90*
G75*
G01*
G04 Top*
%LPD*%
X457200Y4781800D2*
D14*
X588933D1*
X651480Y4844347D1*
Y5163123D1*
X719873Y5231517D1*
X2291063D1*
X2406517Y5116063D1*
Y4978283D1*
X2413000Y4971800D1*
X1630640Y4026970D2*
Y4196933D1*
X1797290Y4363583D1*
Y4598777D1*
X1740843Y4655223D1*
X1439797D1*
X1303383Y4791637D1*
X592583D1*
X651480Y4844347D1*
X1630640Y4026970D2*
Y3359500D1*
X1399520Y3128380D1*
X1004343D1*
X933660Y3199063D1*
X779220Y2845973D2*
D16*
X790692D1*
X1051447Y2585218D1*
X1645417Y1991248D2*
X1785719Y1850947D1*
X1831637D1*
X1878727Y1803857D1*
Y1723250D1*
X1819850Y1664373D1*
X1306207Y1688953D2*
X1251399Y1743761D1*
X1192869D1*
X2129123Y397550D2*
D14*
X1926423D1*
X1925923Y398050D1*
X1425400Y419903D2*
D17*
Y496217D1*
D14*
X1482437Y553253D1*
X1770720D1*
X1925923Y398050D1*
X1016092Y2549863D2*
D16*
X1329263Y2236691D1*
Y2165980D1*
X1378723Y2116520D1*
X1574706Y1920537D1*
X1157513Y1779116D2*
Y1779270D1*
X1378723Y2000480D1*
Y2116520D1*
X1645417Y2479152D2*
X1643065D1*
X1423237Y2259323D1*
X1312263D1*
X1329263Y2236691D1*
X1663797Y4455283D2*
D14*
X1678377D1*
X1666810Y4443717D1*
X1375683D1*
X1295400Y4524000D1*
X107967Y4773427D2*
X97353D1*
X103757Y4779830D1*
X252030D1*
X254000Y4781800D1*
X1295400Y4524000D2*
Y4585203D1*
X1219693Y4660910D1*
X349927D1*
X229037Y4781800D1*
X254000D1*
X1231163Y2365620D2*
D16*
X1329263Y2236691D1*
X725470Y3700607D2*
D15*
X927730D1*
X1098483Y3871360D1*
X1183860D1*
X1292000Y3979500D1*
Y4520600D1*
X1295400Y4524000D1*
X2295480Y306673D2*
D16*
Y335880D1*
D14*
X2234410Y396950D1*
X2129723D1*
D16*
X2129123Y397550D1*
X1405000Y838200D2*
D14*
X1493357D1*
X1529600Y874443D1*
Y1181660D1*
X1465963Y1245297D1*
X1394653D1*
X1223223Y1416727D1*
X152400Y4445000D2*
Y4680200D1*
X254000Y4781800D1*
X1862850Y2688017D2*
D16*
X1783571D1*
X1610062Y2514507D1*
X2203037Y5121477D2*
D15*
Y4978563D1*
X2209800Y4971800D1*
X985400Y407403D2*
X958800D1*
Y195803D1*
X915400Y152403D1*
X1175400D1*
X1415400D1*
X1675400D1*
X1649033D1*
Y363770D1*
X1605400Y407403D1*
X1925923Y208050D2*
X1731047D1*
X1675400Y152403D1*
X2129123Y207550D2*
X1926423D1*
X1925923Y208050D1*
X1610062Y1955893D2*
D16*
X1741703Y1824251D1*
Y1768377D1*
X457200Y4971800D2*
D15*
X254000D1*
X1295400Y3604000D2*
X1150640D1*
X1079753Y3674887D1*
X2209800Y4781800D2*
X2413000D1*
X786667Y588913D2*
D14*
X896743D1*
X1078713D1*
X1165400Y502227D1*
Y419903D1*
X1135000Y838200D2*
X1052967D1*
X974470Y759703D1*
Y666640D1*
X896743Y588913D1*
X1716128Y2408441D2*
D16*
X1840690Y2533003D1*
X1964340D1*
X2205777Y2291567D1*
Y2137623D1*
X2438400Y1905000D1*
X1680772Y2443797D2*
X1826336Y2589360D1*
X2008040D1*
X2438400Y2159000D1*
X1503996Y2620573D2*
X1785806Y2902383D1*
X2419783D1*
X2438400Y2921000D1*
X1468640Y2655929D2*
X1772948Y2960237D1*
X2223637D1*
X2438400Y3175000D1*
X1433285Y2691284D2*
X1760691Y3018690D1*
X2091993D1*
X2299677Y3226373D1*
Y3290277D1*
X2438400Y3429000D1*
X1397930Y2726639D2*
X1749934Y3078643D1*
X2072290D1*
X2241283Y3247637D1*
Y3485883D1*
X2438400Y3683000D1*
X1192869Y2726639D2*
X1323453D1*
X1743447Y3146633D1*
X2052980D1*
X2184330Y3277983D1*
Y3682930D1*
X2438400Y3937000D1*
X1157513Y2691284D2*
X1085167Y2763631D1*
Y2848627D1*
X1132633Y2896093D1*
X1419400D1*
X1726350Y3203043D1*
X2026757D1*
X2125877Y3302163D1*
Y3878477D1*
X2438400Y4191000D1*
X1122158Y2655929D2*
Y2657305D1*
X1032960Y2746503D1*
Y2873093D1*
X1107267Y2947400D1*
X1394070D1*
X1710043Y3263373D1*
X2003353D1*
X2065923Y3325943D1*
Y4072523D1*
X2438400Y4445000D1*
X1086803Y2620573D2*
X949880Y2757496D1*
Y2827390D1*
X731000Y3046270D1*
Y3238003D1*
X626143Y3342860D1*
Y3717257D1*
X152400Y4191000D1*
X910026Y2443797D2*
X545273Y2808549D1*
Y3130233D1*
X260637Y3414870D1*
X166530D1*
X152400Y3429000D1*
X874671Y2408441D2*
X485427Y2797685D1*
Y2956423D1*
X273503Y3168347D1*
X159053D1*
X152400Y3175000D1*
X839315Y2373086D2*
X304548Y2907853D1*
X165547D1*
X152400Y2921000D1*
X803960Y2337730D2*
X468497Y2673193D1*
X146207D1*
X152400Y2667000D1*
Y2413000D2*
X456943D1*
X730203Y2139740D1*
X796889D1*
X803960Y2132670D1*
X839315Y2097314D2*
X837638D1*
X762237Y2021913D1*
X721017D1*
X580880Y2162050D1*
X155450D1*
X152400Y2159000D1*
X874671Y2061959D2*
X766135Y1953423D1*
X200823D1*
X152400Y1905000D1*
X910026Y2026603D2*
X908837D1*
X779843Y1897610D1*
X399010D1*
X152400Y1651000D1*
X945381Y2479152D2*
X608750Y2815783D1*
Y3179983D1*
X482887Y3305847D1*
Y3446723D1*
X256363Y3673247D1*
X162153D1*
X152400Y3683000D1*
X980737Y2514507D2*
X668597Y2826647D1*
Y3212787D1*
X559043Y3322340D1*
Y3648037D1*
X270080Y3937000D1*
X152400D1*
X945381Y1991248D2*
X785910Y1831777D1*
X587177D1*
X152400Y1397000D1*
X980737Y1955893D2*
X979786D1*
X801807Y1777913D1*
X623687D1*
X322137Y1476363D1*
Y1312737D1*
X152400Y1143000D1*
X1751483Y2097314D2*
X1827411Y2021387D1*
X2094957D1*
X2250527Y1865817D1*
Y1584873D1*
X2438400Y1397000D1*
X1786838Y2132670D2*
Y2138293D1*
X2098743D1*
X2312013Y1925023D1*
Y1777387D1*
X2438400Y1651000D1*
X1574706Y2549863D2*
X1810320Y2785477D1*
X1904053D1*
X2287240Y2402290D1*
X2427690D1*
X2438400Y2413000D1*
X1539351Y2585218D2*
X1796566Y2842433D1*
X1928030D1*
X2098657Y2671807D1*
X2433593D1*
X2438400Y2667000D1*
X1016092Y1920537D2*
X815361Y1719807D1*
X653200D1*
X385860Y1452467D1*
Y1122460D1*
X152400Y889000D1*
X1051447Y1885182D2*
Y1884831D1*
X834557Y1667940D1*
X683647D1*
X442720Y1427013D1*
Y925320D1*
X152400Y635000D1*
X1397930Y1743761D2*
X1399293D1*
X1433037Y1710017D1*
Y1466413D1*
X1521673Y1377777D1*
X1949623D1*
X2438400Y889000D1*
X1433285Y1779116D2*
X1498933Y1713468D1*
Y1484450D1*
X1544563Y1438820D1*
X2142580D1*
X2438400Y1143000D1*
X1918240Y4355690D2*
D15*
Y4610143D1*
X1755670Y4772713D1*
X1565193D1*
X1552563Y4785343D1*
X1680772Y2026603D2*
D16*
X1806346Y1901030D1*
X1918997D1*
X2151057Y1668970D1*
X2020727Y4445000D2*
D15*
Y4645487D1*
X1808680Y4857533D1*
X1716128Y2061959D2*
D16*
X1822343Y1955743D1*
X2010320D1*
X2151057Y1815007D1*
X1086803Y1849827D2*
X906827Y1669851D1*
Y1320303D1*
X1237653Y989477D1*
Y642370D1*
Y550790D1*
X1230400D1*
Y419903D1*
X1135000Y743200D2*
X1136823D1*
X1237653Y642370D1*
X1122158Y1814471D2*
X962343Y1654657D1*
Y1335010D1*
X1290413Y1006940D1*
Y628383D1*
Y547510D1*
X1295400D1*
Y419903D1*
X1405000Y743200D2*
Y742970D1*
X1290413Y628383D1*
X1360400Y419903D2*
Y551100D1*
X1472097Y662797D1*
X1576823D1*
X1616233Y702207D1*
X1726767D1*
X1804343Y779783D1*
Y815840D1*
X1853217Y864713D1*
X1786838Y2337730D2*
X1845540D1*
X1877360Y2305910D1*
Y2241860D1*
X1869850Y2249370D1*
X1751483Y2373086D2*
X1842097Y2463700D1*
X1859377D1*
X1948920Y2374157D1*
X1503996Y1849827D2*
X1601303Y1752519D1*
Y1647367D1*
X1749167Y1499503D1*
X2018710D1*
X2063380Y1544173D1*
X1539351Y1885182D2*
X1651467Y1773066D1*
Y1694627D1*
X1786840Y1559253D1*
X1920487D1*
X2029120Y1667887D1*
X2015120D1*
X1663217Y864713D2*
Y1139950D1*
X1249287Y1553880D1*
X1592780Y1526997D2*
X1550120Y1569657D1*
Y1732992D1*
X1468640Y1814471D1*
D39*
X1630640Y4026970D3*
X933660Y3199063D3*
X779220Y2845973D3*
X1630640Y4026970D3*
X1819850Y1664373D3*
X2291063Y5231517D3*
X1306207Y1688953D3*
X1663797Y4455283D3*
X107967Y4773427D3*
X1231163Y2365620D3*
X725470Y3700607D3*
X2295480Y306673D3*
X1223223Y1416727D3*
X1862850Y2688017D3*
X2203037Y5121477D3*
X1741703Y1768377D3*
X1079753Y3674887D3*
X786667Y588913D3*
X1918240Y4355690D3*
X1552563Y4785343D3*
X2151057Y1668970D3*
X2020727Y4445000D3*
X1808680Y4857533D3*
X2151057Y1815007D3*
X1616233Y702207D3*
X1869850Y2249370D3*
X1948920Y2374157D3*
X2063380Y1544173D3*
X2015120Y1667887D3*
X1249287Y1553880D3*
X1592780Y1526997D3*
D41*
X1930400Y4191000D3*
X2184400Y4445000D3*
X406400Y4191000D3*
X1251248Y2559383D2*
D18*
X1338759D1*
X1188740Y2496217D2*
X1402259D1*
X1125240Y2433050D2*
X1465759D1*
X1061740Y2369883D2*
X1528266D1*
X999232Y2306717D2*
X1591766D1*
X935732Y2243550D2*
X1655266D1*
X980380Y2180383D2*
X1610618D1*
X1041896Y2117217D2*
X1549102D1*
X1102420Y2054050D2*
X1487587D1*
X1163935Y1990883D2*
X1427063D1*
X1225451Y1927717D2*
X1365548D1*
X1295106Y1849236D2*
X1669961Y2234899D1*
X1295655Y2609143D1*
X921196Y2234530D1*
X1283989Y1860743D1*
X104636Y5173043D2*
X923389D1*
X1693128D2*
X2071350D1*
X2334081D2*
X2487077D1*
X581878Y5109877D2*
X898585D1*
X1693128D2*
X2043569D1*
X623550Y5046710D2*
X905530D1*
X1693128D2*
X2043569D1*
X623550Y4983543D2*
X898585D1*
X1693128D2*
X1753850D1*
X1863785D2*
X2043569D1*
X623550Y4920377D2*
X905530D1*
X1934230D2*
X2043569D1*
X622558Y4857210D2*
X950178D1*
X1961019D2*
X2043569D1*
X623550Y4794043D2*
X1411545D1*
X1305183Y4730877D2*
X1422460D1*
X1625660Y4667710D2*
X1709202D1*
X1466910Y4604543D2*
X1771710D1*
X1774488Y4541377D2*
X1809413D1*
X1401425Y4288710D2*
X1778655D1*
X1401425Y4225543D2*
X1752858D1*
X1401425Y4162377D2*
X1750874D1*
X1401425Y4099210D2*
X1774686D1*
X1401425Y4036043D2*
X1842155D1*
X1401425Y3972877D2*
X1962210D1*
X1373644Y3909710D2*
X1962210D1*
X1311136Y3846543D2*
X1962210D1*
X1466910Y3783377D2*
X1962210D1*
X1466910Y3720210D2*
X1962210D1*
X1466910Y3657043D2*
X1962210D1*
X815042Y3593877D2*
X965061D1*
X1466910D2*
X1962210D1*
X730706Y3530710D2*
X1072217D1*
X1466910D2*
X1962210D1*
X730706Y3467543D2*
X1123811D1*
X1466910D2*
X1962210D1*
X730706Y3404377D2*
X1962210D1*
X772378Y3341210D2*
X1644710D1*
X826949Y3278043D2*
X1580217D1*
X834886Y3214877D2*
X1516717D1*
X834886Y3151710D2*
X1454210D1*
X834886Y3088543D2*
X1390710D1*
X896402Y3025377D2*
X1041460D1*
X2369790Y5121890D2*
X2492821D1*
X2493010Y5236329D1*
X2273737Y5236210D1*
X2289366Y5225383D1*
X2311190Y5202423D1*
X2327066Y5175012D1*
X2336123Y5144657D1*
X2338064Y5122201D1*
X2369890Y5120898D1*
X96887Y5121890D2*
X532200D1*
X563218Y5116035D1*
X589968Y5099276D1*
X608768Y5073918D1*
X617290Y5036800D1*
X617107Y4905831D1*
X613343Y4872415D1*
X617290Y4846800D1*
Y4766433D1*
X1219693Y4766320D1*
X1250965Y4761575D1*
X1283976Y4744451D1*
X1310366Y4719310D1*
X1434912Y4719090D1*
X1424384Y4742688D1*
X1417975Y4773710D1*
X1418966Y4805371D1*
X1424958Y4827337D1*
X1385002Y4833290D1*
X1358456Y4844222D1*
X1320878Y4830489D1*
X1289278Y4828246D1*
X1258002Y4833290D1*
X1231456Y4844222D1*
X1193878Y4830489D1*
X1162278Y4828246D1*
X1131002Y4833290D1*
X1104456Y4844222D1*
X1066878Y4830489D1*
X1035278Y4828246D1*
X1004002Y4833290D1*
X974709Y4845353D1*
X948952Y4863796D1*
X928095Y4887642D1*
X913246Y4915625D1*
X905190Y4946263D1*
X904355Y4977932D1*
X910785Y5008952D1*
X919549Y5027804D1*
X905190Y5073263D1*
X904355Y5104932D1*
X910785Y5135952D1*
X924140Y5164679D1*
X943711Y5189591D1*
X968461Y5209366D1*
X997077Y5222955D1*
X1028043Y5229640D1*
X1059718Y5229065D1*
X1090421Y5221261D1*
X1103595Y5214408D1*
X1124077Y5222955D1*
X1155043Y5229640D1*
X1186718Y5229065D1*
X1217421Y5221261D1*
X1230595Y5214408D1*
X1251077Y5222955D1*
X1282043Y5229640D1*
X1313718Y5229065D1*
X1344421Y5221261D1*
X1357595Y5214408D1*
X1378077Y5222955D1*
X1411811Y5230289D1*
X1686991D1*
X1686395Y4955109D1*
X1683343Y4934231D1*
X1672595Y4904430D1*
X1653170Y4875825D1*
X1675326Y4875584D1*
X1683420Y4908122D1*
X1698644Y4935900D1*
X1719919Y4959370D1*
X1746074Y4977240D1*
X1775671Y4988528D1*
X1807083Y4992614D1*
X1838584Y4989272D1*
X1868440Y4978687D1*
X1895010Y4961440D1*
X1916833Y4938479D1*
X1932710Y4911068D1*
X1941766Y4880714D1*
X1942831Y4868399D1*
X2049099Y4762595D1*
X2049710Y5121890D1*
X2068562D1*
X2069440Y5141505D1*
X2077776Y5172065D1*
X2093001Y5199844D1*
X2114275Y5223313D1*
X2133074Y5236158D1*
X96877Y5236210D1*
X97790Y5122108D1*
X1256319Y3799089D2*
X1460491D1*
Y3408909D1*
X1130311D1*
Y3503167D1*
X1119392Y3505991D1*
X1090388Y3520803D1*
X1068779Y3540380D1*
X1038616Y3546213D1*
X1009783Y3559330D1*
X984796Y3578801D1*
X964337Y3604470D1*
X927730Y3597736D1*
X813628D1*
X777535Y3575953D1*
X747076Y3567256D1*
X724329Y3566274D1*
X723934Y3382889D1*
X800148Y3307152D1*
X818594Y3281481D1*
X827861Y3250279D1*
X828790Y3206253D1*
Y3086199D1*
X969230Y2946337D1*
X1038119Y3016548D1*
X1063790Y3034994D1*
X1094991Y3044261D1*
X1139017Y3045190D1*
X1354321D1*
X1640895Y3332521D1*
X1666566Y3350967D1*
X1697768Y3360234D1*
X1741793Y3361164D1*
X1963051D1*
X1968133Y3389443D1*
Y4019482D1*
X1919687Y4016238D1*
X1888346Y4021035D1*
X1858384Y4031406D1*
X1830783Y4047011D1*
X1806449Y4067337D1*
X1786179Y4091718D1*
X1770639Y4119355D1*
X1760338Y4149342D1*
X1755614Y4180695D1*
X1756621Y4212385D1*
X1763327Y4243374D1*
X1775512Y4272646D1*
X1794817Y4301401D1*
X1790061Y4313035D1*
X1783652Y4344057D1*
X1784643Y4375718D1*
X1792980Y4406278D1*
X1808204Y4434057D1*
X1815517Y4442125D1*
X1815370Y4567026D1*
X1712901Y4670002D1*
X1621725Y4669843D1*
X1604629Y4660690D1*
X1574169Y4651992D1*
X1542521Y4650627D1*
X1511426Y4656669D1*
X1482593Y4669786D1*
X1459949Y4687432D1*
X1460490Y4549426D1*
X1567176Y4549127D1*
X1575035Y4557120D1*
X1601190Y4574990D1*
X1630788Y4586278D1*
X1662200Y4590364D1*
X1693700Y4587022D1*
X1723556Y4576437D1*
X1750126Y4559190D1*
X1771950Y4536229D1*
X1787826Y4508818D1*
X1796883Y4478464D1*
X1798887Y4455283D1*
X1795173Y4423825D1*
X1784235Y4394096D1*
X1766675Y4367732D1*
X1743459Y4346181D1*
X1715862Y4330630D1*
X1685402Y4321932D1*
X1653755Y4320567D1*
X1622659Y4326609D1*
X1596529Y4338497D1*
X1460490Y4338090D1*
Y4328910D1*
X1394013D1*
X1394870Y4044350D1*
Y3979500D1*
X1390009Y3948252D1*
X1375197Y3919248D1*
X1342289Y3884309D1*
X1257173Y3799193D1*
X2413000Y5121766D2*
D15*
Y4971800D1*
X1549400Y5230165D2*
Y5092700D1*
X1686867D1*
X457200Y4781800D2*
X617176D1*
D19*
X2129123Y397550D3*
Y207550D3*
X2413000Y4971800D3*
Y4781800D3*
X254000Y4971800D3*
Y4781800D3*
D23*
X1415400Y152403D3*
X1175400D3*
D24*
X915400D3*
X1675400D3*
D25*
X985400Y407403D3*
X1605400D3*
D26*
X1165400Y419903D3*
X1230400D3*
X1295400D3*
X1360400D3*
X1425400D3*
D27*
X152400Y4445000D3*
D28*
Y4191000D3*
Y3937000D3*
Y3683000D3*
Y3429000D3*
Y3175000D3*
Y2921000D3*
Y2667000D3*
Y2413000D3*
Y2159000D3*
Y1905000D3*
Y1651000D3*
Y1397000D3*
Y1143000D3*
Y889000D3*
Y635000D3*
D29*
X1549400Y5092700D3*
D30*
X1422400D3*
X1295400D3*
X1168400D3*
X1041400D3*
X1549400Y4965700D3*
X1422400D3*
X1295400D3*
X1168400D3*
X1041400D3*
D27*
X2438400Y635000D3*
D28*
Y889000D3*
Y1143000D3*
Y1397000D3*
Y1651000D3*
Y1905000D3*
Y2159000D3*
Y2413000D3*
Y2667000D3*
Y2921000D3*
Y3175000D3*
Y3429000D3*
Y3683000D3*
Y3937000D3*
Y4191000D3*
Y4445000D3*
D19*
X2209800Y4971800D3*
Y4781800D3*
D20*
X1853217Y864713D3*
X1663217D3*
D19*
X1925923Y208050D3*
Y398050D3*
D89*
X457200Y4781800D3*
Y4971800D3*
D34*
X1295400Y3604000D3*
Y4524000D3*
D35*
X1405000Y743200D3*
Y838200D3*
Y933200D3*
X1135000D3*
Y838200D3*
Y743200D3*
D92*
X1786838Y2337730D3*
X1751483Y2373086D3*
X1716128Y2408441D3*
X1680772Y2443797D3*
X1645417Y2479152D3*
X1610062Y2514507D3*
X1574706Y2549863D3*
X1539351Y2585218D3*
X1503996Y2620573D3*
X1468640Y2655929D3*
X1433285Y2691284D3*
X1397930Y2726639D3*
D95*
X1192869D3*
X1157513Y2691284D3*
X1122158Y2655929D3*
X1086803Y2620573D3*
X1051447Y2585218D3*
X1016092Y2549863D3*
X980737Y2514507D3*
X945381Y2479152D3*
X910026Y2443797D3*
X874671Y2408441D3*
X839315Y2373086D3*
X803960Y2337730D3*
D92*
Y2132670D3*
X839315Y2097314D3*
X874671Y2061959D3*
X910026Y2026603D3*
X945381Y1991248D3*
X980737Y1955893D3*
X1016092Y1920537D3*
X1051447Y1885182D3*
X1086803Y1849827D3*
X1122158Y1814471D3*
X1157513Y1779116D3*
X1192869Y1743761D3*
D95*
X1397930D3*
X1433285Y1779116D3*
X1468640Y1814471D3*
X1503996Y1849827D3*
X1539351Y1885182D3*
X1574706Y1920537D3*
X1610062Y1955893D3*
X1645417Y1991248D3*
X1680772Y2026603D3*
X1716128Y2061959D3*
X1751483Y2097314D3*
X1786838Y2132670D3*
M02*
