G04 DipTrace Beta 2.9.0.1*
G04 TopDimension.gbr*
%MOMM*%
G04 #@! TF.FileFunction,Drawing,Top*
G04 #@! TF.Part,Single*
%ADD13C,0.035*%
%ADD91C,0.15686*%
%FSLAX35Y35*%
G04*
G71*
G90*
G75*
G01*
G04 TopDimension*
%LPD*%
D13*
X0Y-415373D1*
X2590800Y0D2*
Y-415373D1*
X1295400Y-365373D2*
X100000D1*
G36*
X0D2*
X100000Y-345373D1*
Y-385373D1*
X0Y-365373D1*
G37*
X1295400D2*
D13*
X2490800D1*
G36*
X2590800D2*
X2490800Y-385373D1*
Y-345373D1*
X2590800Y-365373D1*
G37*
X0Y5334000D2*
D13*
X-304000D1*
X0Y0D2*
X-304000D1*
X-254000Y2667000D2*
Y5234000D1*
G36*
Y5334000D2*
X-234000Y5234000D1*
X-274000D1*
X-254000Y5334000D1*
G37*
Y2667000D2*
D13*
Y100000D1*
G36*
Y0D2*
X-274000Y100000D1*
X-234000D1*
X-254000Y0D1*
G37*
X1141911Y-251812D2*
D91*
X1151682Y-246870D1*
X1166282Y-232383D1*
Y-334358D1*
X1226855Y-232383D2*
X1212255Y-237212D1*
X1202484Y-251812D1*
X1197655Y-276070D1*
Y-290670D1*
X1202484Y-314929D1*
X1212255Y-329529D1*
X1226855Y-334358D1*
X1236513D1*
X1251113Y-329529D1*
X1260771Y-314929D1*
X1265713Y-290670D1*
Y-276070D1*
X1260771Y-251812D1*
X1251113Y-237212D1*
X1236513Y-232383D1*
X1226855D1*
X1260771Y-251812D2*
X1202484Y-314929D1*
X1302027Y-256641D2*
Y-251812D1*
X1306856Y-242041D1*
X1311686Y-237212D1*
X1321456Y-232383D1*
X1340886D1*
X1350544Y-237212D1*
X1355373Y-242041D1*
X1360315Y-251812D1*
Y-261470D1*
X1355373Y-271241D1*
X1345715Y-285729D1*
X1297086Y-334358D1*
X1365144D1*
X1425717Y-232383D2*
X1411117Y-237212D1*
X1401346Y-251812D1*
X1396517Y-276070D1*
Y-290670D1*
X1401346Y-314929D1*
X1411117Y-329529D1*
X1425717Y-334358D1*
X1435375D1*
X1449975Y-329529D1*
X1459633Y-314929D1*
X1464575Y-290670D1*
Y-276070D1*
X1459633Y-251812D1*
X1449975Y-237212D1*
X1435375Y-232383D1*
X1425717D1*
X1459633Y-251812D2*
X1401346Y-314929D1*
X-362732Y2518453D2*
X-367561D1*
X-377332Y2523282D1*
X-382161Y2528111D1*
X-386991Y2537882D1*
Y2557311D1*
X-382161Y2566970D1*
X-377332Y2571799D1*
X-367561Y2576740D1*
X-357903D1*
X-348132Y2571799D1*
X-333645Y2562140D1*
X-285015Y2513511D1*
Y2581570D1*
X-367561Y2612942D2*
X-372503Y2622713D1*
X-386991Y2637313D1*
X-285015D1*
X-386991Y2697886D2*
X-382161Y2683286D1*
X-367561Y2673515D1*
X-343303Y2668686D1*
X-328703D1*
X-304445Y2673515D1*
X-289845Y2683286D1*
X-285015Y2697886D1*
Y2707544D1*
X-289845Y2722144D1*
X-304445Y2731802D1*
X-328703Y2736744D1*
X-343303D1*
X-367561Y2731802D1*
X-382161Y2722144D1*
X-386991Y2707544D1*
Y2697886D1*
X-367561Y2731802D2*
X-304445Y2673515D1*
X-386991Y2797317D2*
X-382161Y2782717D1*
X-367561Y2772946D1*
X-343303Y2768117D1*
X-328703D1*
X-304445Y2772946D1*
X-289845Y2782717D1*
X-285015Y2797317D1*
Y2806975D1*
X-289845Y2821575D1*
X-304445Y2831233D1*
X-328703Y2836175D1*
X-343303D1*
X-367561Y2831233D1*
X-382161Y2821575D1*
X-386991Y2806975D1*
Y2797317D1*
X-367561Y2831233D2*
X-304445Y2772946D1*
M02*
