G04 DipTrace Beta 2.9.0.1*
G04 TopDimension.gbr*
%MOMM*%
G04 #@! TF.FileFunction,Drawing,Top*
G04 #@! TF.Part,Single*
%ADD13C,0.035*%
%ADD89C,0.15686*%
%FSLAX35Y35*%
G04*
G71*
G90*
G75*
G01*
G04 TopDimension*
%LPD*%
D13*
X0Y-415373D1*
X2590800Y0D2*
Y-415373D1*
X1295400Y-365373D2*
X100000D1*
G36*
X0D2*
X100000Y-345373D1*
Y-385373D1*
X0Y-365373D1*
G37*
X1295400D2*
D13*
X2490800D1*
G36*
X2590800D2*
X2490800Y-385373D1*
Y-345373D1*
X2590800Y-365373D1*
G37*
X0Y5334000D2*
D13*
X-304000D1*
X0Y0D2*
X-304000D1*
X-254000Y2667000D2*
Y5234000D1*
G36*
Y5334000D2*
X-234000Y5234000D1*
X-274000D1*
X-254000Y5334000D1*
G37*
Y2667000D2*
D13*
Y100000D1*
G36*
Y0D2*
X-274000Y100000D1*
X-234000D1*
X-254000Y0D1*
G37*
X1128696Y-256641D2*
D89*
Y-251812D1*
X1133525Y-242041D1*
X1138354Y-237212D1*
X1148125Y-232383D1*
X1167554D1*
X1177213Y-237212D1*
X1182042Y-242041D1*
X1186983Y-251812D1*
Y-261470D1*
X1182042Y-271241D1*
X1172383Y-285729D1*
X1123754Y-334358D1*
X1191813D1*
X1281473Y-232383D2*
X1232956D1*
X1228127Y-276070D1*
X1232956Y-271241D1*
X1247556Y-266300D1*
X1262044D1*
X1276644Y-271241D1*
X1286414Y-280900D1*
X1291244Y-295500D1*
Y-305158D1*
X1286414Y-319758D1*
X1276644Y-329529D1*
X1262044Y-334358D1*
X1247556D1*
X1232956Y-329529D1*
X1228127Y-324587D1*
X1223185Y-314929D1*
X1327445Y-324587D2*
X1322616Y-329529D1*
X1327445Y-334358D1*
X1332387Y-329529D1*
X1327445Y-324587D1*
X1426989Y-266300D2*
X1422047Y-280900D1*
X1412389Y-290670D1*
X1397789Y-295500D1*
X1392960D1*
X1378360Y-290670D1*
X1368701Y-280900D1*
X1363760Y-266300D1*
Y-261470D1*
X1368701Y-246870D1*
X1378360Y-237212D1*
X1392960Y-232383D1*
X1397789D1*
X1412389Y-237212D1*
X1422047Y-246870D1*
X1426989Y-266300D1*
Y-290670D1*
X1422047Y-314929D1*
X1412389Y-329529D1*
X1397789Y-334358D1*
X1388130D1*
X1373530Y-329529D1*
X1368701Y-319758D1*
X1458361Y-251812D2*
X1468132Y-246870D1*
X1482732Y-232383D1*
Y-334358D1*
X-386991Y2526969D2*
Y2478452D1*
X-343303Y2473623D1*
X-348132Y2478452D1*
X-353074Y2493052D1*
Y2507540D1*
X-348132Y2522140D1*
X-338474Y2531910D1*
X-323874Y2536740D1*
X-314215D1*
X-299615Y2531910D1*
X-289845Y2522140D1*
X-285015Y2507540D1*
Y2493052D1*
X-289845Y2478452D1*
X-294786Y2473623D1*
X-304445Y2468681D1*
X-386991Y2577883D2*
Y2631229D1*
X-348132Y2602141D1*
Y2616741D1*
X-343303Y2626400D1*
X-338474Y2631229D1*
X-323874Y2636171D1*
X-314215D1*
X-299615Y2631229D1*
X-289845Y2621571D1*
X-285015Y2606971D1*
Y2592371D1*
X-289845Y2577883D1*
X-294786Y2573054D1*
X-304445Y2568112D1*
X-294786Y2672372D2*
X-289845Y2667543D1*
X-285015Y2672372D1*
X-289845Y2677314D1*
X-294786Y2672372D1*
X-386991Y2718457D2*
Y2771803D1*
X-348132Y2742716D1*
Y2757316D1*
X-343303Y2766974D1*
X-338474Y2771803D1*
X-323874Y2776745D1*
X-314215D1*
X-299615Y2771803D1*
X-289845Y2762145D1*
X-285015Y2747545D1*
Y2732945D1*
X-289845Y2718457D1*
X-294786Y2713628D1*
X-304445Y2708686D1*
X-285015Y2856747D2*
X-386991D1*
X-319045Y2808117D1*
Y2881005D1*
M02*
