G04 DipTrace Beta 2.9.0.1*
G04 TopMask.gbr*
%MOMM*%
G04 #@! TF.FileFunction,Soldermask,Top*
G04 #@! TF.Part,Single*
%AMOUTLINE1*
4,1,4,
0.85,-0.75,
-0.85,-0.75,
-0.85,0.75,
0.85,0.75,
0.85,-0.75,
0*%
%AMOUTLINE4*
4,1,4,
0.45962,0.81317,
0.81317,0.45962,
-0.45962,-0.81317,
-0.81317,-0.45962,
0.45962,0.81317,
0*%
%AMOUTLINE7*
4,1,4,
-0.81317,0.45962,
-0.45962,0.81317,
0.81317,-0.45962,
0.45962,-0.81317,
-0.81317,0.45962,
0*%
%ADD24R,1.9X1.9*%
%ADD58R,1.3X0.8*%
%ADD59R,1.8X2.4*%
%ADD65C,1.267*%
%ADD67R,1.267X1.267*%
%ADD69C,1.9*%
%ADD72R,0.6X1.55*%
%ADD74R,2.3X1.8*%
%ADD76R,2.0X2.1*%
%ADD78R,2.1X2.1*%
%ADD83R,1.5X1.7*%
%ADD85R,1.7X1.5*%
%ADD93OUTLINE1*%
%ADD96OUTLINE4*%
%ADD99OUTLINE7*%
%FSLAX35Y35*%
G04*
G71*
G90*
G75*
G01*
G04 TopMask*
%LPD*%
D85*
X2129123Y397550D3*
Y207550D3*
X2413000Y4971800D3*
Y4781800D3*
X254000Y4971800D3*
Y4781800D3*
D78*
X1415400Y152403D3*
X1175400D3*
D76*
X915400D3*
X1675400D3*
D74*
X985400Y407403D3*
X1605400D3*
D72*
X1165400Y419903D3*
X1230400D3*
X1295400D3*
X1360400D3*
X1425400D3*
D24*
X152400Y4445000D3*
D69*
Y4191000D3*
Y3937000D3*
Y3683000D3*
Y3429000D3*
Y3175000D3*
Y2921000D3*
Y2667000D3*
Y2413000D3*
Y2159000D3*
Y1905000D3*
Y1651000D3*
Y1397000D3*
Y1143000D3*
Y889000D3*
Y635000D3*
D67*
X1549400Y5092700D3*
D65*
X1422400D3*
X1295400D3*
X1168400D3*
X1041400D3*
X1549400Y4965700D3*
X1422400D3*
X1295400D3*
X1168400D3*
X1041400D3*
D24*
X2438400Y635000D3*
D69*
Y889000D3*
Y1143000D3*
Y1397000D3*
Y1651000D3*
Y1905000D3*
Y2159000D3*
Y2413000D3*
Y2667000D3*
Y2921000D3*
Y3175000D3*
Y3429000D3*
Y3683000D3*
Y3937000D3*
Y4191000D3*
Y4445000D3*
D85*
X2209800Y4971800D3*
Y4781800D3*
D83*
X1853217Y864713D3*
X1663217D3*
D85*
X1925923Y208050D3*
Y398050D3*
D93*
X457200Y4781800D3*
Y4971800D3*
D59*
X1295400Y3604000D3*
Y4524000D3*
D58*
X1405000Y743200D3*
Y838200D3*
Y933200D3*
X1135000D3*
Y838200D3*
Y743200D3*
D96*
X1786838Y2337730D3*
X1751483Y2373086D3*
X1716128Y2408441D3*
X1680772Y2443797D3*
X1645417Y2479152D3*
X1610062Y2514507D3*
X1574706Y2549863D3*
X1539351Y2585218D3*
X1503996Y2620573D3*
X1468640Y2655929D3*
X1433285Y2691284D3*
X1397930Y2726639D3*
D99*
X1192869D3*
X1157513Y2691284D3*
X1122158Y2655929D3*
X1086803Y2620573D3*
X1051447Y2585218D3*
X1016092Y2549863D3*
X980737Y2514507D3*
X945381Y2479152D3*
X910026Y2443797D3*
X874671Y2408441D3*
X839315Y2373086D3*
X803960Y2337730D3*
D96*
Y2132670D3*
X839315Y2097314D3*
X874671Y2061959D3*
X910026Y2026603D3*
X945381Y1991248D3*
X980737Y1955893D3*
X1016092Y1920537D3*
X1051447Y1885182D3*
X1086803Y1849827D3*
X1122158Y1814471D3*
X1157513Y1779116D3*
X1192869Y1743761D3*
D99*
X1397930D3*
X1433285Y1779116D3*
X1468640Y1814471D3*
X1503996Y1849827D3*
X1539351Y1885182D3*
X1574706Y1920537D3*
X1610062Y1955893D3*
X1645417Y1991248D3*
X1680772Y2026603D3*
X1716128Y2061959D3*
X1751483Y2097314D3*
X1786838Y2132670D3*
M02*
