G04 DipTrace Beta 2.9.0.1*
G04 TopSilk.gbr*
%MOMM*%
G04 #@! TF.FileFunction,Legend,Top*
G04 #@! TF.Part,Single*
%ADD10C,0.25*%
%ADD17C,0.4*%
%ADD32O,0.39127X0.39172*%
%ADD85C,0.19608*%
%ADD86C,0.22222*%
%ADD87C,0.16667*%
%FSLAX35Y35*%
G04*
G71*
G90*
G75*
G01*
G04 TopSilk*
%LPD*%
X2064173Y502603D2*
D10*
X2194073D1*
X2348050Y5066747D2*
X2477950D1*
X189050D2*
X318950D1*
X1927900Y4774200D2*
X662900D1*
Y5284200D1*
X1927900D1*
Y4774200D1*
X1120400Y3763952D2*
X1470400D1*
Y4364048D1*
X1120400D1*
Y3763952D1*
D32*
X1447228Y674839D3*
X1309902Y688206D2*
D10*
Y988200D1*
X1229916Y688206D2*
Y988200D1*
X1309902D2*
X1229916D1*
X1309902Y688206D2*
X1229916D1*
X1719768Y2235312D2*
X1295338Y1810876D1*
X871019Y2235088D1*
X1295450Y2659524D1*
X1719768Y2235312D1*
G36*
D2*
X1663117Y2291844D1*
Y2178668D1*
X1719768Y2235312D1*
G37*
D17*
X1836427Y2288213D3*
X2099357Y845232D2*
D85*
X2087284Y839196D1*
X2075070Y826983D1*
X2069033Y814909D1*
Y790623D1*
X2075070Y778409D1*
X2087283Y766336D1*
X2099356Y760159D1*
X2117606Y754123D1*
X2148070D1*
X2166180Y760159D1*
X2178393Y766336D1*
X2190466Y778409D1*
X2196643Y790623D1*
Y814909D1*
X2190466Y826982D1*
X2178393Y839196D1*
X2166180Y845232D1*
X2087284Y957308D2*
X2075210Y951271D1*
X2069174Y933021D1*
Y920948D1*
X2075210Y902698D1*
X2093460Y890485D1*
X2123784Y884448D1*
X2154107D1*
X2178393Y890485D1*
X2190607Y902698D1*
X2196643Y920948D1*
Y926984D1*
X2190607Y945094D1*
X2178393Y957308D1*
X2160143Y963344D1*
X2154107D1*
X2135857Y957308D1*
X2123784Y945094D1*
X2117747Y926985D1*
Y920948D1*
X2123784Y902698D1*
X2135857Y890485D1*
X2154107Y884448D1*
X2370483Y5115361D2*
X2498093D1*
Y5157897D1*
X2491916Y5176147D1*
X2479843Y5188361D1*
X2467630Y5194397D1*
X2449520Y5200434D1*
X2419057D1*
X2400807Y5194397D1*
X2388734Y5188361D1*
X2376520Y5176147D1*
X2370483Y5157897D1*
Y5115361D1*
X2394910Y5239650D2*
X2388734Y5251863D1*
X2370624Y5270113D1*
X2498093D1*
X192180Y5095926D2*
X319790D1*
Y5138462D1*
X313613Y5156712D1*
X301540Y5168926D1*
X289326Y5174962D1*
X271217Y5180999D1*
X240753D1*
X222503Y5174963D1*
X210430Y5168926D1*
X198217Y5156713D1*
X192180Y5138463D1*
Y5095926D1*
X222644Y5226392D2*
X216607D1*
X204394Y5232428D1*
X198357Y5238465D1*
X192321Y5250678D1*
Y5274965D1*
X198357Y5287038D1*
X204394Y5293074D1*
X216607Y5299251D1*
X228680D1*
X240894Y5293074D1*
X259003Y5281001D1*
X319790Y5220215D1*
Y5305288D1*
X691370Y224477D2*
Y127330D1*
X685334Y109080D1*
X679157Y103044D1*
X667084Y96867D1*
X654870D1*
X642797Y103044D1*
X636761Y109080D1*
X630584Y127330D1*
Y139404D1*
X730586Y200050D2*
X742800Y206227D1*
X761050Y224336D1*
Y96867D1*
X1058859Y4706587D2*
Y4609440D1*
X1052822Y4591190D1*
X1046645Y4585154D1*
X1034572Y4578977D1*
X1022359D1*
X1010286Y4585154D1*
X1004249Y4591190D1*
X998072Y4609440D1*
Y4621514D1*
X1110288Y4706446D2*
X1176971D1*
X1140611Y4657873D1*
X1158861D1*
X1170934Y4651837D1*
X1176971Y4645800D1*
X1183148Y4627550D1*
Y4615477D1*
X1176971Y4597227D1*
X1164898Y4585014D1*
X1146648Y4578977D1*
X1128398D1*
X1110288Y4585014D1*
X1104251Y4591190D1*
X1098075Y4603264D1*
X2034627Y4871088D2*
Y4925697D1*
X2028450Y4943947D1*
X2022413Y4950124D1*
X2010340Y4956161D1*
X1998127D1*
X1986054Y4950124D1*
X1979877Y4943947D1*
X1973840Y4925697D1*
Y4871088D1*
X2101450D1*
X2034627Y4913624D2*
X2101450Y4956160D1*
X1998267Y4995376D2*
X1992090Y5007590D1*
X1973981Y5025840D1*
X2101450Y5025839D1*
X1665259Y1058223D2*
X1719869D1*
X1738119Y1064400D1*
X1744296Y1070437D1*
X1750332Y1082510D1*
Y1094723D1*
X1744296Y1106796D1*
X1738119Y1112973D1*
X1719869Y1119010D1*
X1665259D1*
Y991400D1*
X1707796Y1058223D2*
X1750332Y991400D1*
X1795725Y1088546D2*
Y1094583D1*
X1801761Y1106796D1*
X1807798Y1112833D1*
X1820011Y1118870D1*
X1844298D1*
X1856371Y1112833D1*
X1862407Y1106796D1*
X1868584Y1094583D1*
Y1082510D1*
X1862407Y1070296D1*
X1850334Y1052187D1*
X1789548Y991400D1*
X1874621D1*
X1907043Y508599D2*
Y563209D1*
X1900866Y581459D1*
X1894830Y587636D1*
X1882757Y593672D1*
X1870543D1*
X1858470Y587636D1*
X1852293Y581459D1*
X1846257Y563209D1*
Y508599D1*
X1973866D1*
X1907043Y551136D2*
X1973866Y593672D1*
X1846397Y645102D2*
Y711784D1*
X1894970Y675425D1*
Y693674D1*
X1901007Y705748D1*
X1907043Y711784D1*
X1925293Y717961D1*
X1937366D1*
X1955616Y711784D1*
X1967830Y699711D1*
X1973866Y681461D1*
Y663211D1*
X1967830Y645101D1*
X1961653Y639065D1*
X1949580Y632888D1*
X619860Y4537556D2*
Y4592166D1*
X613683Y4610416D1*
X607647Y4616593D1*
X595574Y4622629D1*
X583360D1*
X571287Y4616593D1*
X565110Y4610416D1*
X559073Y4592166D1*
Y4537556D1*
X686683D1*
X619860Y4580093D2*
X686683Y4622629D1*
X559214Y4692168D2*
X565250Y4674058D1*
X577324Y4667881D1*
X589537D1*
X601610Y4674058D1*
X607787Y4686131D1*
X613824Y4710418D1*
X619860Y4728668D1*
X632074Y4740741D1*
X644147Y4746777D1*
X662397D1*
X674470Y4740741D1*
X680647Y4734704D1*
X686683Y4716454D1*
Y4692168D1*
X680647Y4674058D1*
X674470Y4667881D1*
X662397Y4661845D1*
X644147D1*
X632074Y4667881D1*
X619860Y4680095D1*
X613824Y4698204D1*
X607787Y4722491D1*
X601610Y4734704D1*
X589537Y4740741D1*
X577324D1*
X565250Y4734704D1*
X559214Y4716454D1*
Y4692168D1*
X1613290Y3861073D2*
X1601217Y3873287D1*
X1582967Y3879323D1*
X1558681D1*
X1540431Y3873287D1*
X1528217Y3861073D1*
Y3849000D1*
X1534394Y3836787D1*
X1540431Y3830750D1*
X1552504Y3824714D1*
X1589004Y3812500D1*
X1601217Y3806464D1*
X1607254Y3800287D1*
X1613290Y3788214D1*
Y3769964D1*
X1601217Y3757891D1*
X1582967Y3751714D1*
X1558681D1*
X1540431Y3757891D1*
X1528217Y3769964D1*
X1652506Y3854896D2*
X1664719Y3861073D1*
X1682969Y3879183D1*
Y3751714D1*
X1167981Y1165783D2*
Y1074674D1*
X1174017Y1056424D1*
X1186231Y1044351D1*
X1204481Y1038174D1*
X1216554D1*
X1234804Y1044351D1*
X1247017Y1056424D1*
X1253054Y1074674D1*
Y1165783D1*
X1292269Y1141356D2*
X1304483Y1147533D1*
X1322733Y1165643D1*
Y1038174D1*
X1188969Y2938912D2*
Y2847802D1*
X1195006Y2829552D1*
X1207219Y2817479D1*
X1225469Y2811302D1*
X1237542D1*
X1255792Y2817479D1*
X1268006Y2829552D1*
X1274042Y2847802D1*
Y2938912D1*
X1319435Y2908448D2*
Y2914485D1*
X1325471Y2926698D1*
X1331508Y2932735D1*
X1343721Y2938771D1*
X1368008D1*
X1380081Y2932735D1*
X1386117Y2926698D1*
X1392294Y2914485D1*
Y2902412D1*
X1386117Y2890198D1*
X1374044Y2872089D1*
X1313258Y2811302D1*
X1398331D1*
X786039Y3469889D2*
D32*
Y3291236D1*
X726488Y3469889D2*
X845590D1*
X923368D2*
X931819Y3461438D1*
X940467Y3469889D1*
X931819Y3478537D1*
X923368Y3469889D1*
X931819Y3410338D2*
Y3291236D1*
X1018244Y3410338D2*
Y3291236D1*
Y3376337D2*
X1043794Y3401887D1*
X1060893Y3410338D1*
X1086247D1*
X1103346Y3401887D1*
X1111797Y3376337D1*
Y3291236D1*
X1198222Y3410338D2*
X1249126Y3291236D1*
X1232223Y3257235D1*
X1215125Y3240136D1*
X1198222Y3231685D1*
X1189575D1*
X1300226Y3410338D2*
X1249126Y3291236D1*
X1497106Y3444339D2*
X1480204Y3461438D1*
X1454654Y3469889D1*
X1420652D1*
X1395102Y3461438D1*
X1378004Y3444339D1*
Y3427437D1*
X1386651Y3410338D1*
X1395102Y3401887D1*
X1412005Y3393436D1*
X1463105Y3376337D1*
X1480204Y3367886D1*
X1488655Y3359238D1*
X1497106Y3342336D1*
Y3316786D1*
X1480204Y3299884D1*
X1454654Y3291236D1*
X1420652D1*
X1395102Y3299884D1*
X1378004Y3316786D1*
X1711085Y3291236D2*
X1642886Y3469889D1*
X1574884Y3291236D1*
X1600434Y3350787D2*
X1685535D1*
X1924867Y3291236D2*
Y3469889D1*
X1856865Y3291236D1*
X1788863Y3469889D1*
Y3291236D1*
X2038634Y668852D2*
D86*
X2077493Y566764D1*
X2116351Y668852D1*
X2160796D2*
Y566764D1*
X2273299Y668852D2*
Y566764D1*
X2205240Y668852D1*
Y566764D1*
X354165Y4477430D2*
X349336Y4487089D1*
X339565Y4496859D1*
X329907Y4501689D1*
X310478D1*
X300707Y4496859D1*
X291049Y4487089D1*
X286107Y4477430D1*
X281278Y4462830D1*
Y4438459D1*
X286107Y4423972D1*
X291049Y4414201D1*
X300707Y4404542D1*
X310478Y4399601D1*
X329907D1*
X339565Y4404542D1*
X349336Y4414201D1*
X354165Y4423972D1*
Y4438459D1*
X329907D1*
X466668Y4501689D2*
Y4399601D1*
X398610Y4501689D1*
Y4399601D1*
X511113Y4501689D2*
Y4399601D1*
X545142D1*
X559742Y4404542D1*
X569513Y4414201D1*
X574342Y4423972D1*
X579171Y4438459D1*
Y4462830D1*
X574342Y4477430D1*
X569513Y4487089D1*
X559742Y4496859D1*
X545142Y4501689D1*
X511113D1*
X168888Y295513D2*
X198088Y227454D1*
X227175Y295513D1*
X271620Y310000D2*
X281391Y314942D1*
X295991Y329430D1*
Y227454D1*
X345264Y237225D2*
X340435Y232284D1*
X345264Y227454D1*
X350206Y232284D1*
X345264Y237225D1*
X423850Y329430D2*
X409250Y324600D1*
X399480Y310000D1*
X394650Y285742D1*
Y271142D1*
X399480Y246884D1*
X409250Y232284D1*
X423850Y227454D1*
X433509D1*
X448109Y232284D1*
X457767Y246884D1*
X462709Y271142D1*
Y285742D1*
X457767Y310000D1*
X448109Y324600D1*
X433509Y329430D1*
X423850D1*
X457767Y310000D2*
X399480Y246884D1*
X551753Y4187259D2*
D87*
X584519D1*
X595469Y4190965D1*
X599175Y4194587D1*
X602797Y4201831D1*
Y4209159D1*
X599175Y4216403D1*
X595469Y4220109D1*
X584519Y4223731D1*
X551753D1*
Y4147165D1*
X577275Y4187259D2*
X602797Y4147165D1*
X687174Y4212781D2*
X679931Y4220109D1*
X668981Y4223731D1*
X654409D1*
X643459Y4220109D1*
X636131Y4212781D1*
Y4205537D1*
X639837Y4198209D1*
X643459Y4194587D1*
X650702Y4190965D1*
X672602Y4183637D1*
X679931Y4180015D1*
X683552Y4176309D1*
X687174Y4169065D1*
Y4158115D1*
X679931Y4150871D1*
X668981Y4147165D1*
X654409D1*
X643459Y4150871D1*
X636131Y4158115D1*
X746030Y4223731D2*
Y4147165D1*
X720508Y4223731D2*
X771552D1*
X551753Y4243693D2*
X804885D1*
X562615Y3972726D2*
X602624D1*
X580809Y3943583D1*
X591759D1*
X599002Y3939961D1*
X602624Y3936339D1*
X606331Y3925389D1*
Y3918145D1*
X602624Y3907195D1*
X595381Y3899867D1*
X584431Y3896245D1*
X573481D1*
X562615Y3899867D1*
X558993Y3903573D1*
X555287Y3910817D1*
X639664Y3972811D2*
X668808Y3896245D1*
X697952Y3972811D1*
X738613Y3972726D2*
X778623D1*
X756807Y3943583D1*
X767757D1*
X775001Y3939961D1*
X778623Y3936339D1*
X782329Y3925389D1*
Y3918145D1*
X778623Y3907195D1*
X771379Y3899867D1*
X760429Y3896245D1*
X749479D1*
X738613Y3899867D1*
X734991Y3903573D1*
X731285Y3910817D1*
X1848981Y4647397D2*
X1841737Y4654725D1*
X1830787Y4658347D1*
X1816215D1*
X1805265Y4654725D1*
X1797937Y4647397D1*
Y4640153D1*
X1801643Y4632825D1*
X1805265Y4629203D1*
X1812509Y4625582D1*
X1834409Y4618253D1*
X1841737Y4614632D1*
X1845359Y4610925D1*
X1848981Y4603682D1*
Y4592732D1*
X1841737Y4585488D1*
X1830787Y4581782D1*
X1816215D1*
X1805265Y4585488D1*
X1797937Y4592732D1*
X1882314Y4658347D2*
X1900592Y4581782D1*
X1918786Y4658347D1*
X1936980Y4581782D1*
X1955258Y4658347D1*
X1988591D2*
Y4581782D1*
X2014113D1*
X2025063Y4585488D1*
X2032391Y4592732D1*
X2036013Y4600060D1*
X2039635Y4610925D1*
Y4629203D1*
X2036013Y4640153D1*
X2032391Y4647397D1*
X2025063Y4654725D1*
X2014113Y4658347D1*
X1988591D1*
X2127634Y4640153D2*
X2124012Y4647397D1*
X2116684Y4654725D1*
X2109440Y4658347D1*
X2094868D1*
X2087540Y4654725D1*
X2080296Y4647397D1*
X2076590Y4640153D1*
X2072968Y4629203D1*
Y4610925D1*
X2076590Y4600060D1*
X2080296Y4592732D1*
X2087540Y4585488D1*
X2094868Y4581782D1*
X2109440D1*
X2116684Y4585488D1*
X2124012Y4592732D1*
X2127634Y4600060D1*
X2160967Y4658347D2*
Y4581782D1*
X2204683D1*
X2238016Y4658347D2*
Y4581782D1*
X2289060Y4658347D2*
X2238016Y4607303D1*
X2256210Y4625582D2*
X2289060Y4581782D1*
X1751157Y4150084D2*
X1743913Y4157412D1*
X1732963Y4161034D1*
X1718391D1*
X1707441Y4157412D1*
X1700113Y4150084D1*
Y4142840D1*
X1703819Y4135512D1*
X1707441Y4131890D1*
X1714685Y4128268D1*
X1736585Y4120940D1*
X1743913Y4117318D1*
X1747535Y4113612D1*
X1751157Y4106368D1*
Y4095418D1*
X1743913Y4088174D1*
X1732963Y4084468D1*
X1718391D1*
X1707441Y4088174D1*
X1700113Y4095418D1*
X1784491Y4161034D2*
X1802769Y4084468D1*
X1820962Y4161034D1*
X1839156Y4084468D1*
X1857434Y4161034D1*
X1890768D2*
Y4084468D1*
X1916290D1*
X1927240Y4088174D1*
X1934568Y4095418D1*
X1938190Y4102746D1*
X1941812Y4113612D1*
Y4131890D1*
X1938190Y4142840D1*
X1934568Y4150084D1*
X1927240Y4157412D1*
X1916290Y4161034D1*
X1890768D1*
X1975145D2*
Y4084468D1*
X2030378Y4161034D2*
X2023050Y4157412D1*
X2015806Y4150084D1*
X2012100Y4142840D1*
X2008478Y4131890D1*
Y4113612D1*
X2012100Y4102746D1*
X2015806Y4095418D1*
X2023050Y4088174D1*
X2030378Y4084468D1*
X2044950D1*
X2052194Y4088174D1*
X2059522Y4095418D1*
X2063144Y4102746D1*
X2066766Y4113612D1*
Y4131890D1*
X2063144Y4142840D1*
X2059522Y4150084D1*
X2052194Y4157412D1*
X2044950Y4161034D1*
X2030378D1*
M02*
