G04 DipTrace Beta 2.9.0.1*
G04 TopSilk.gbr*
%MOMM*%
G04 #@! TF.FileFunction,Legend,Top*
G04 #@! TF.Part,Single*
%ADD10C,0.25*%
%ADD12C,0.0254*%
%ADD17C,0.4*%
%ADD32O,0.39127X0.39172*%
%ADD85C,0.19608*%
%ADD86C,0.22222*%
%FSLAX35Y35*%
G04*
G71*
G90*
G75*
G01*
G04 TopSilk*
%LPD*%
X2064173Y502603D2*
D10*
X2194073D1*
X2348050Y5066747D2*
X2477950D1*
X189050D2*
X318950D1*
X1927900Y4774200D2*
X662900D1*
Y5284200D1*
X1927900D1*
Y4774200D1*
X1120400Y3763952D2*
X1470400D1*
Y4364048D1*
X1120400D1*
Y3763952D1*
D32*
X1447228Y674839D3*
X1309902Y688206D2*
D10*
Y988200D1*
X1229916Y688206D2*
Y988200D1*
X1309902D2*
X1229916D1*
X1309902Y688206D2*
X1229916D1*
X1719734Y2235271D2*
X1295328Y1810865D1*
X871064Y2235129D1*
X1295470Y2659535D1*
X1719734Y2235271D1*
G36*
D2*
X1663165Y2291839D1*
X1663095Y2178631D1*
X1719734Y2235271D1*
G37*
D17*
X1836407Y2288233D3*
X667587Y1416847D2*
D12*
X741247D1*
X667194Y1414307D2*
X741343D1*
X666564Y1411767D2*
X741669D1*
X665907Y1409227D2*
X742278D1*
X665462Y1406687D2*
X742929D1*
X665216Y1404147D2*
X743382D1*
X665019Y1401607D2*
X743707D1*
X664650Y1399067D2*
X744138D1*
X664025Y1396527D2*
X744791D1*
X663367Y1393987D2*
X745460D1*
X662912Y1391447D2*
X745919D1*
X662587Y1388907D2*
X746246D1*
X662155Y1386367D2*
X746678D1*
X661502Y1383827D2*
X747331D1*
X660834Y1381287D2*
X748000D1*
X660384Y1378747D2*
X748449D1*
X660137Y1376207D2*
X748697D1*
X659939Y1373667D2*
X748894D1*
X659571Y1371127D2*
X749263D1*
X658945Y1368587D2*
X749888D1*
X658287Y1366047D2*
X750546D1*
X540587Y1363507D2*
X545667D1*
X657832D2*
X751001D1*
X863167D2*
X868247D1*
X538047Y1360967D2*
X549782D1*
X657507D2*
X751327D1*
X859052D2*
X870787D1*
X535507Y1358427D2*
X553770D1*
X657075D2*
X751758D1*
X855063D2*
X873327D1*
X532967Y1355887D2*
X557671D1*
X656412D2*
X752411D1*
X851163D2*
X875867D1*
X530417Y1353347D2*
X561517D1*
X655635D2*
X753099D1*
X847317D2*
X878407D1*
X527797Y1350807D2*
X565344D1*
X654663D2*
X753757D1*
X843489D2*
X880947D1*
X525023Y1348267D2*
X569158D1*
X653343D2*
X754552D1*
X839676D2*
X883487D1*
X522188Y1345727D2*
X572972D1*
X650232D2*
X757340D1*
X835862D2*
X886027D1*
X519526Y1343187D2*
X576780D1*
X646220D2*
X761518D1*
X832053D2*
X888567D1*
X516960Y1340647D2*
X580583D1*
X641366D2*
X766789D1*
X828251D2*
X891107D1*
X514333Y1338107D2*
X584311D1*
X635828D2*
X772663D1*
X824522D2*
X893647D1*
X511788Y1335567D2*
X587929D1*
X629828D2*
X778854D1*
X820905D2*
X896187D1*
X509196Y1333027D2*
X591848D1*
X623344D2*
X785428D1*
X816985D2*
X898727D1*
X506283Y1330487D2*
X597268D1*
X615813D2*
X792997D1*
X811565D2*
X901267D1*
X503230Y1327947D2*
X605038D1*
X606670D2*
X802155D1*
X803795D2*
X903807D1*
X500324Y1325407D2*
X906347D1*
X497677Y1322867D2*
X908877D1*
X495463Y1320327D2*
X911318D1*
X493665Y1317787D2*
X913425D1*
X493086Y1315247D2*
X915142D1*
X492871Y1312707D2*
X915627D1*
X493836Y1310167D2*
X914838D1*
X495174Y1307627D2*
X913593D1*
X496667Y1305087D2*
X912141D1*
X498281Y1302547D2*
X910543D1*
X499981Y1300007D2*
X908849D1*
X501639Y1297467D2*
X907183D1*
X503321Y1294927D2*
X905422D1*
X505047Y1292387D2*
X903463D1*
X506715Y1289847D2*
X901501D1*
X508400Y1287307D2*
X899693D1*
X510126Y1284767D2*
X897941D1*
X511794Y1282227D2*
X896185D1*
X513480Y1279687D2*
X894505D1*
X515206Y1277147D2*
X892816D1*
X516884Y1274607D2*
X891088D1*
X518649Y1272067D2*
X889419D1*
X520610Y1269527D2*
X887734D1*
X522573Y1266987D2*
X886007D1*
X524380Y1264447D2*
X884339D1*
X526123Y1261907D2*
X882664D1*
X527779Y1259367D2*
X881036D1*
X529036Y1256827D2*
X879791D1*
X529694Y1254287D2*
X879137D1*
X529939Y1251747D2*
X878894D1*
X529246Y1249207D2*
X879587D1*
X528287Y1246667D2*
X880537D1*
X527161Y1244127D2*
X881583D1*
X525957Y1241587D2*
X882553D1*
X524790Y1239047D2*
X883435D1*
X523770Y1236507D2*
X884412D1*
X522869Y1233967D2*
X885521D1*
X521885Y1231427D2*
X886713D1*
X520773Y1228887D2*
X887942D1*
X519581Y1226347D2*
X889118D1*
X518351Y1223807D2*
X688023D1*
X720810D2*
X890142D1*
X517175Y1221267D2*
X680917D1*
X727916D2*
X891044D1*
X516152Y1218727D2*
X674663D1*
X734171D2*
X892028D1*
X515249Y1216187D2*
X669433D1*
X739401D2*
X893140D1*
X514255Y1213647D2*
X665013D1*
X743821D2*
X894342D1*
X513014Y1211107D2*
X661228D1*
X747606D2*
X895711D1*
X511517Y1208567D2*
X657995D1*
X750839D2*
X897287D1*
X507559Y1206027D2*
X655121D1*
X753712D2*
X901261D1*
X501024Y1203487D2*
X652437D1*
X756396D2*
X907804D1*
X491543Y1200947D2*
X649850D1*
X758984D2*
X917289D1*
X479980Y1198407D2*
X647378D1*
X761456D2*
X928892D1*
X467771Y1195867D2*
X645154D1*
X763670D2*
X941515D1*
X456711Y1193327D2*
X643229D1*
X765515D2*
X954396D1*
X448432Y1190787D2*
X641439D1*
X767071D2*
X967307D1*
X442476Y1188247D2*
X639754D1*
X768471D2*
X967307D1*
X440314Y1185707D2*
X638392D1*
X769790D2*
X967307D1*
X439594Y1183167D2*
X637308D1*
X771072D2*
X967307D1*
X439231Y1180627D2*
X636241D1*
X772268D2*
X967307D1*
X439078Y1178087D2*
X635104D1*
X773298D2*
X967307D1*
X439019Y1175547D2*
X633988D1*
X774193D2*
X967307D1*
X438998Y1173007D2*
X633076D1*
X775088D2*
X967307D1*
X438990Y1170467D2*
X632507D1*
X775867D2*
X967307D1*
X438988Y1167927D2*
X632135D1*
X776372D2*
X967307D1*
X438987Y1165387D2*
X631685D1*
X776716D2*
X967307D1*
X438987Y1162847D2*
X631026D1*
X777155D2*
X967307D1*
X438987Y1160307D2*
X630355D1*
X777810D2*
X967307D1*
X438987Y1157767D2*
X629905D1*
X778479D2*
X967307D1*
X438987Y1155227D2*
X629667D1*
X778919D2*
X967307D1*
X438987Y1152687D2*
X629568D1*
X779067D2*
X967307D1*
X438987Y1150147D2*
X629613D1*
X778852D2*
X967307D1*
X438987Y1147607D2*
X629919D1*
X778289D2*
X967307D1*
X438987Y1145067D2*
X630521D1*
X777655D2*
X967307D1*
X438987Y1142527D2*
X631180D1*
X777208D2*
X967307D1*
X438987Y1139987D2*
X631712D1*
X776885D2*
X967307D1*
X438987Y1137447D2*
X632271D1*
X776455D2*
X967307D1*
X438987Y1134907D2*
X632997D1*
X775792D2*
X967307D1*
X438987Y1132367D2*
X633782D1*
X775034D2*
X967307D1*
X438987Y1129827D2*
X634575D1*
X774252D2*
X967307D1*
X438987Y1127287D2*
X635515D1*
X773316D2*
X967307D1*
X439016Y1124747D2*
X636610D1*
X772223D2*
X967287D1*
X439106Y1122207D2*
X637796D1*
X771037D2*
X967059D1*
X440108Y1119667D2*
X639033D1*
X769800D2*
X966493D1*
X444577Y1117127D2*
X640298D1*
X768535D2*
X963616D1*
X451907Y1114587D2*
X641654D1*
X767179D2*
X956286D1*
X461984Y1112047D2*
X643254D1*
X765579D2*
X946489D1*
X473717Y1109507D2*
X645223D1*
X763610D2*
X934951D1*
X485444Y1106967D2*
X647476D1*
X761357D2*
X923321D1*
X495367Y1104427D2*
X649889D1*
X758945D2*
X913440D1*
X502460Y1101887D2*
X652387D1*
X756446D2*
X906364D1*
X507595Y1099347D2*
X654997D1*
X753837D2*
X901237D1*
X509783Y1096807D2*
X657863D1*
X750970D2*
X899050D1*
X511325Y1094267D2*
X661098D1*
X747735D2*
X897508D1*
X512449Y1091727D2*
X664603D1*
X744231D2*
X896384D1*
X513520Y1089187D2*
X668094D1*
X740739D2*
X895313D1*
X514654Y1086647D2*
X671088D1*
X737735D2*
X894180D1*
X515778Y1084107D2*
X673461D1*
X735333D2*
X893056D1*
X516777Y1081567D2*
X674224D1*
X734549D2*
X892056D1*
X517670Y1079027D2*
X673881D1*
X734180D2*
X891164D1*
X518650Y1076487D2*
X673305D1*
X734837D2*
X890183D1*
X519751Y1073947D2*
X672602D1*
X735768D2*
X889073D1*
X520863Y1071407D2*
X671698D1*
X736807D2*
X887881D1*
X521859Y1068867D2*
X670627D1*
X737775D2*
X886651D1*
X522750Y1066327D2*
X669525D1*
X738656D2*
X885475D1*
X523730Y1063787D2*
X668533D1*
X739632D2*
X884452D1*
X524831Y1061247D2*
X667643D1*
X740741D2*
X883559D1*
X525933Y1058707D2*
X666663D1*
X741933D2*
X882655D1*
X526840Y1056167D2*
X665552D1*
X743163D2*
X881779D1*
X527387Y1053627D2*
X664361D1*
X744338D2*
X880890D1*
X527571Y1051087D2*
X663131D1*
X745362D2*
X879753D1*
X527283Y1048547D2*
X661955D1*
X746264D2*
X878407D1*
X526392Y1046007D2*
X660932D1*
X747248D2*
X880850D1*
X525053Y1043467D2*
X660029D1*
X748360D2*
X883064D1*
X523553Y1040927D2*
X659045D1*
X749552D2*
X884986D1*
X521935Y1038387D2*
X657943D1*
X750782D2*
X886785D1*
X520234Y1035847D2*
X656830D1*
X751958D2*
X888558D1*
X518564Y1033307D2*
X655835D1*
X752982D2*
X890244D1*
X516803Y1030767D2*
X654943D1*
X753884D2*
X891936D1*
X514843Y1028227D2*
X653963D1*
X754868D2*
X893665D1*
X512881Y1025687D2*
X652852D1*
X755970D2*
X895334D1*
X511073Y1023147D2*
X651661D1*
X757083D2*
X897019D1*
X509321Y1020607D2*
X650431D1*
X758079D2*
X898746D1*
X507565Y1018067D2*
X649255D1*
X758970D2*
X900424D1*
X505885Y1015527D2*
X648232D1*
X759950D2*
X902189D1*
X504196Y1012987D2*
X647329D1*
X761061D2*
X904150D1*
X502468Y1010447D2*
X646345D1*
X762253D2*
X906113D1*
X500799Y1007907D2*
X645243D1*
X763482D2*
X907920D1*
X499114Y1005367D2*
X644130D1*
X764658D2*
X909673D1*
X497397Y1002827D2*
X643135D1*
X765682D2*
X911418D1*
X495818Y1000287D2*
X642243D1*
X766584D2*
X913009D1*
X494477Y997747D2*
X641263D1*
X767568D2*
X914355D1*
X493557Y995207D2*
X640152D1*
X768670D2*
X915276D1*
X493073Y992667D2*
X638961D1*
X769783D2*
X915760D1*
X494031Y990127D2*
X637731D1*
X770779D2*
X914802D1*
X495638Y987587D2*
X636555D1*
X771670D2*
X913195D1*
X497724Y985047D2*
X635532D1*
X772650D2*
X911109D1*
X500069Y982507D2*
X634629D1*
X773751D2*
X908764D1*
X502531Y979967D2*
X633645D1*
X774863D2*
X906302D1*
X505042Y977427D2*
X632543D1*
X775859D2*
X903791D1*
X507572Y974887D2*
X594416D1*
X607126D2*
X631430D1*
X776750D2*
X801707D1*
X815309D2*
X901261D1*
X510108Y972347D2*
X590301D1*
X610720D2*
X630427D1*
X777738D2*
X798113D1*
X818568D2*
X898725D1*
X512647Y969807D2*
X586577D1*
X614947D2*
X629475D1*
X778914D2*
X793886D1*
X822099D2*
X896186D1*
X515187Y967267D2*
X582927D1*
X619595D2*
X628309D1*
X780317D2*
X789239D1*
X825782D2*
X893646D1*
X517727Y964727D2*
X579223D1*
X624407D2*
X626947D1*
X781887D2*
X784427D1*
X829543D2*
X891107D1*
X520267Y962187D2*
X575472D1*
X833331D2*
X888567D1*
X522807Y959647D2*
X571685D1*
X837136D2*
X886027D1*
X525347Y957107D2*
X567887D1*
X840942D2*
X883487D1*
X527887Y954567D2*
X564079D1*
X844753D2*
X880947D1*
X530476Y952027D2*
X560264D1*
X848620D2*
X878357D1*
X533500Y949487D2*
X556387D1*
X853005D2*
X875333D1*
X538003Y946947D2*
X552365D1*
X859102D2*
X870831D1*
X544884Y944407D2*
X548207D1*
X867910D2*
X863949D1*
X667587Y1416847D2*
X667194Y1414307D1*
X666564Y1411767D1*
X665907Y1409227D1*
X665462Y1406687D1*
X665216Y1404147D1*
X665019Y1401607D1*
X664650Y1399067D1*
X664025Y1396527D1*
X663367Y1393987D1*
X662912Y1391447D1*
X662587Y1388907D1*
X662155Y1386367D1*
X661502Y1383827D1*
X660834Y1381287D1*
X660384Y1378747D1*
X660137Y1376207D1*
X659939Y1373667D1*
X659571Y1371127D1*
X658945Y1368587D1*
X658287Y1366047D1*
X657832Y1363507D1*
X657507Y1360967D1*
X657075Y1358427D1*
X656412Y1355887D1*
X655635Y1353347D1*
X654663Y1350807D1*
X653343Y1348267D1*
X650232Y1345727D1*
X646220Y1343187D1*
X641366Y1340647D1*
X635828Y1338107D1*
X629828Y1335567D1*
X623344Y1333027D1*
X615813Y1330487D1*
X606670Y1327947D1*
X596467Y1325407D1*
X741247Y1416847D2*
X741343Y1414307D1*
X741669Y1411767D1*
X742278Y1409227D1*
X742929Y1406687D1*
X743382Y1404147D1*
X743707Y1401607D1*
X744138Y1399067D1*
X744791Y1396527D1*
X745460Y1393987D1*
X745919Y1391447D1*
X746246Y1388907D1*
X746678Y1386367D1*
X747331Y1383827D1*
X748000Y1381287D1*
X748449Y1378747D1*
X748697Y1376207D1*
X748894Y1373667D1*
X749263Y1371127D1*
X749888Y1368587D1*
X750546Y1366047D1*
X751001Y1363507D1*
X751327Y1360967D1*
X751758Y1358427D1*
X752411Y1355887D1*
X753099Y1353347D1*
X753757Y1350807D1*
X754552Y1348267D1*
X757340Y1345727D1*
X761518Y1343187D1*
X766789Y1340647D1*
X772663Y1338107D1*
X778854Y1335567D1*
X785428Y1333027D1*
X792997Y1330487D1*
X802155Y1327947D1*
X812367Y1325407D1*
X540587Y1363507D2*
X538047Y1360967D1*
X535507Y1358427D1*
X532967Y1355887D1*
X530417Y1353347D1*
X527797Y1350807D1*
X525023Y1348267D1*
X522188Y1345727D1*
X519526Y1343187D1*
X516960Y1340647D1*
X514333Y1338107D1*
X511788Y1335567D1*
X509196Y1333027D1*
X506283Y1330487D1*
X503230Y1327947D1*
X500324Y1325407D1*
X497677Y1322867D1*
X495463Y1320327D1*
X493665Y1317787D1*
X493086Y1315247D1*
X492871Y1312707D1*
X493836Y1310167D1*
X495174Y1307627D1*
X496667Y1305087D1*
X498281Y1302547D1*
X499981Y1300007D1*
X501639Y1297467D1*
X503321Y1294927D1*
X505047Y1292387D1*
X506715Y1289847D1*
X508400Y1287307D1*
X510126Y1284767D1*
X511794Y1282227D1*
X513480Y1279687D1*
X515206Y1277147D1*
X516884Y1274607D1*
X518649Y1272067D1*
X520610Y1269527D1*
X522573Y1266987D1*
X524380Y1264447D1*
X526123Y1261907D1*
X527779Y1259367D1*
X529036Y1256827D1*
X529694Y1254287D1*
X529939Y1251747D1*
X529246Y1249207D1*
X528287Y1246667D1*
X527161Y1244127D1*
X525957Y1241587D1*
X524790Y1239047D1*
X523770Y1236507D1*
X522869Y1233967D1*
X521885Y1231427D1*
X520773Y1228887D1*
X519581Y1226347D1*
X518351Y1223807D1*
X517175Y1221267D1*
X516152Y1218727D1*
X515249Y1216187D1*
X514255Y1213647D1*
X513014Y1211107D1*
X511517Y1208567D1*
X507559Y1206027D1*
X501024Y1203487D1*
X491543Y1200947D1*
X479980Y1198407D1*
X467771Y1195867D1*
X456711Y1193327D1*
X448432Y1190787D1*
X442476Y1188247D1*
X440314Y1185707D1*
X439594Y1183167D1*
X439231Y1180627D1*
X439078Y1178087D1*
X439019Y1175547D1*
X438998Y1173007D1*
X438990Y1170467D1*
X438988Y1167927D1*
X438987Y1165387D1*
Y1162847D1*
Y1160307D1*
Y1157767D1*
Y1155227D1*
Y1152687D1*
Y1150147D1*
Y1147607D1*
Y1145067D1*
Y1142527D1*
Y1139987D1*
Y1137447D1*
Y1134907D1*
Y1132367D1*
Y1129827D1*
Y1127287D1*
X439016Y1124747D1*
X439106Y1122207D1*
X440108Y1119667D1*
X444577Y1117127D1*
X451907Y1114587D1*
X461984Y1112047D1*
X473717Y1109507D1*
X485444Y1106967D1*
X495367Y1104427D1*
X502460Y1101887D1*
X507595Y1099347D1*
X509783Y1096807D1*
X511325Y1094267D1*
X512449Y1091727D1*
X513520Y1089187D1*
X514654Y1086647D1*
X515778Y1084107D1*
X516777Y1081567D1*
X517670Y1079027D1*
X518650Y1076487D1*
X519751Y1073947D1*
X520863Y1071407D1*
X521859Y1068867D1*
X522750Y1066327D1*
X523730Y1063787D1*
X524831Y1061247D1*
X525933Y1058707D1*
X526840Y1056167D1*
X527387Y1053627D1*
X527571Y1051087D1*
X527283Y1048547D1*
X526392Y1046007D1*
X525053Y1043467D1*
X523553Y1040927D1*
X521935Y1038387D1*
X520234Y1035847D1*
X518564Y1033307D1*
X516803Y1030767D1*
X514843Y1028227D1*
X512881Y1025687D1*
X511073Y1023147D1*
X509321Y1020607D1*
X507565Y1018067D1*
X505885Y1015527D1*
X504196Y1012987D1*
X502468Y1010447D1*
X500799Y1007907D1*
X499114Y1005367D1*
X497397Y1002827D1*
X495818Y1000287D1*
X494477Y997747D1*
X493557Y995207D1*
X493073Y992667D1*
X494031Y990127D1*
X495638Y987587D1*
X497724Y985047D1*
X500069Y982507D1*
X502531Y979967D1*
X505042Y977427D1*
X507572Y974887D1*
X510108Y972347D1*
X512647Y969807D1*
X515187Y967267D1*
X517727Y964727D1*
X520267Y962187D1*
X522807Y959647D1*
X525347Y957107D1*
X527887Y954567D1*
X530476Y952027D1*
X533500Y949487D1*
X538003Y946947D1*
X544884Y944407D1*
X553287Y941867D1*
X545667Y1363507D2*
X549782Y1360967D1*
X553770Y1358427D1*
X557671Y1355887D1*
X561517Y1353347D1*
X565344Y1350807D1*
X569158Y1348267D1*
X572972Y1345727D1*
X576780Y1343187D1*
X580583Y1340647D1*
X584311Y1338107D1*
X587929Y1335567D1*
X591848Y1333027D1*
X597268Y1330487D1*
X605038Y1327947D1*
X614247Y1325407D1*
X863167Y1363507D2*
X859052Y1360967D1*
X855063Y1358427D1*
X851163Y1355887D1*
X847317Y1353347D1*
X843489Y1350807D1*
X839676Y1348267D1*
X835862Y1345727D1*
X832053Y1343187D1*
X828251Y1340647D1*
X824522Y1338107D1*
X820905Y1335567D1*
X816985Y1333027D1*
X811565Y1330487D1*
X803795Y1327947D1*
X794587Y1325407D1*
X868247Y1363507D2*
X870787Y1360967D1*
X873327Y1358427D1*
X875867Y1355887D1*
X878407Y1353347D1*
X880947Y1350807D1*
X883487Y1348267D1*
X886027Y1345727D1*
X888567Y1343187D1*
X891107Y1340647D1*
X893647Y1338107D1*
X896187Y1335567D1*
X898727Y1333027D1*
X901267Y1330487D1*
X903807Y1327947D1*
X906347Y1325407D1*
X908877Y1322867D1*
X911318Y1320327D1*
X913425Y1317787D1*
X915142Y1315247D1*
X915627Y1312707D1*
X914838Y1310167D1*
X913593Y1307627D1*
X912141Y1305087D1*
X910543Y1302547D1*
X908849Y1300007D1*
X907183Y1297467D1*
X905422Y1294927D1*
X903463Y1292387D1*
X901501Y1289847D1*
X899693Y1287307D1*
X897941Y1284767D1*
X896185Y1282227D1*
X894505Y1279687D1*
X892816Y1277147D1*
X891088Y1274607D1*
X889419Y1272067D1*
X887734Y1269527D1*
X886007Y1266987D1*
X884339Y1264447D1*
X882664Y1261907D1*
X881036Y1259367D1*
X879791Y1256827D1*
X879137Y1254287D1*
X878894Y1251747D1*
X879587Y1249207D1*
X880537Y1246667D1*
X881583Y1244127D1*
X882553Y1241587D1*
X883435Y1239047D1*
X884412Y1236507D1*
X885521Y1233967D1*
X886713Y1231427D1*
X887942Y1228887D1*
X889118Y1226347D1*
X890142Y1223807D1*
X891044Y1221267D1*
X892028Y1218727D1*
X893140Y1216187D1*
X894342Y1213647D1*
X895711Y1211107D1*
X897287Y1208567D1*
X901261Y1206027D1*
X907804Y1203487D1*
X917289Y1200947D1*
X928892Y1198407D1*
X941515Y1195867D1*
X954396Y1193327D1*
X967307Y1190787D1*
Y1188247D1*
Y1185707D1*
Y1183167D1*
Y1180627D1*
Y1178087D1*
Y1175547D1*
Y1173007D1*
Y1170467D1*
Y1167927D1*
Y1165387D1*
Y1162847D1*
Y1160307D1*
Y1157767D1*
Y1155227D1*
Y1152687D1*
Y1150147D1*
Y1147607D1*
Y1145067D1*
Y1142527D1*
Y1139987D1*
Y1137447D1*
Y1134907D1*
Y1132367D1*
Y1129827D1*
Y1127287D1*
X967287Y1124747D1*
X967059Y1122207D1*
X966493Y1119667D1*
X963616Y1117127D1*
X956286Y1114587D1*
X946489Y1112047D1*
X934951Y1109507D1*
X923321Y1106967D1*
X913440Y1104427D1*
X906364Y1101887D1*
X901237Y1099347D1*
X899050Y1096807D1*
X897508Y1094267D1*
X896384Y1091727D1*
X895313Y1089187D1*
X894180Y1086647D1*
X893056Y1084107D1*
X892056Y1081567D1*
X891164Y1079027D1*
X890183Y1076487D1*
X889073Y1073947D1*
X887881Y1071407D1*
X886651Y1068867D1*
X885475Y1066327D1*
X884452Y1063787D1*
X883559Y1061247D1*
X882655Y1058707D1*
X881779Y1056167D1*
X880890Y1053627D1*
X879753Y1051087D1*
X878407Y1048547D1*
X880850Y1046007D1*
X883064Y1043467D1*
X884986Y1040927D1*
X886785Y1038387D1*
X888558Y1035847D1*
X890244Y1033307D1*
X891936Y1030767D1*
X893665Y1028227D1*
X895334Y1025687D1*
X897019Y1023147D1*
X898746Y1020607D1*
X900424Y1018067D1*
X902189Y1015527D1*
X904150Y1012987D1*
X906113Y1010447D1*
X907920Y1007907D1*
X909673Y1005367D1*
X911418Y1002827D1*
X913009Y1000287D1*
X914355Y997747D1*
X915276Y995207D1*
X915760Y992667D1*
X914802Y990127D1*
X913195Y987587D1*
X911109Y985047D1*
X908764Y982507D1*
X906302Y979967D1*
X903791Y977427D1*
X901261Y974887D1*
X898725Y972347D1*
X896186Y969807D1*
X893646Y967267D1*
X891107Y964727D1*
X888567Y962187D1*
X886027Y959647D1*
X883487Y957107D1*
X880947Y954567D1*
X878357Y952027D1*
X875333Y949487D1*
X870831Y946947D1*
X863949Y944407D1*
X855547Y941867D1*
X695527Y1226347D2*
X688023Y1223807D1*
X680917Y1221267D1*
X674663Y1218727D1*
X669433Y1216187D1*
X665013Y1213647D1*
X661228Y1211107D1*
X657995Y1208567D1*
X655121Y1206027D1*
X652437Y1203487D1*
X649850Y1200947D1*
X647378Y1198407D1*
X645154Y1195867D1*
X643229Y1193327D1*
X641439Y1190787D1*
X639754Y1188247D1*
X638392Y1185707D1*
X637308Y1183167D1*
X636241Y1180627D1*
X635104Y1178087D1*
X633988Y1175547D1*
X633076Y1173007D1*
X632507Y1170467D1*
X632135Y1167927D1*
X631685Y1165387D1*
X631026Y1162847D1*
X630355Y1160307D1*
X629905Y1157767D1*
X629667Y1155227D1*
X629568Y1152687D1*
X629613Y1150147D1*
X629919Y1147607D1*
X630521Y1145067D1*
X631180Y1142527D1*
X631712Y1139987D1*
X632271Y1137447D1*
X632997Y1134907D1*
X633782Y1132367D1*
X634575Y1129827D1*
X635515Y1127287D1*
X636610Y1124747D1*
X637796Y1122207D1*
X639033Y1119667D1*
X640298Y1117127D1*
X641654Y1114587D1*
X643254Y1112047D1*
X645223Y1109507D1*
X647476Y1106967D1*
X649889Y1104427D1*
X652387Y1101887D1*
X654997Y1099347D1*
X657863Y1096807D1*
X661098Y1094267D1*
X664603Y1091727D1*
X668094Y1089187D1*
X671088Y1086647D1*
X673461Y1084107D1*
X674224Y1081567D1*
X673881Y1079027D1*
X673305Y1076487D1*
X672602Y1073947D1*
X671698Y1071407D1*
X670627Y1068867D1*
X669525Y1066327D1*
X668533Y1063787D1*
X667643Y1061247D1*
X666663Y1058707D1*
X665552Y1056167D1*
X664361Y1053627D1*
X663131Y1051087D1*
X661955Y1048547D1*
X660932Y1046007D1*
X660029Y1043467D1*
X659045Y1040927D1*
X657943Y1038387D1*
X656830Y1035847D1*
X655835Y1033307D1*
X654943Y1030767D1*
X653963Y1028227D1*
X652852Y1025687D1*
X651661Y1023147D1*
X650431Y1020607D1*
X649255Y1018067D1*
X648232Y1015527D1*
X647329Y1012987D1*
X646345Y1010447D1*
X645243Y1007907D1*
X644130Y1005367D1*
X643135Y1002827D1*
X642243Y1000287D1*
X641263Y997747D1*
X640152Y995207D1*
X638961Y992667D1*
X637731Y990127D1*
X636555Y987587D1*
X635532Y985047D1*
X634629Y982507D1*
X633645Y979967D1*
X632543Y977427D1*
X631430Y974887D1*
X630427Y972347D1*
X629475Y969807D1*
X628309Y967267D1*
X626947Y964727D1*
X713307Y1226347D2*
X720810Y1223807D1*
X727916Y1221267D1*
X734171Y1218727D1*
X739401Y1216187D1*
X743821Y1213647D1*
X747606Y1211107D1*
X750839Y1208567D1*
X753712Y1206027D1*
X756396Y1203487D1*
X758984Y1200947D1*
X761456Y1198407D1*
X763670Y1195867D1*
X765515Y1193327D1*
X767071Y1190787D1*
X768471Y1188247D1*
X769790Y1185707D1*
X771072Y1183167D1*
X772268Y1180627D1*
X773298Y1178087D1*
X774193Y1175547D1*
X775088Y1173007D1*
X775867Y1170467D1*
X776372Y1167927D1*
X776716Y1165387D1*
X777155Y1162847D1*
X777810Y1160307D1*
X778479Y1157767D1*
X778919Y1155227D1*
X779067Y1152687D1*
X778852Y1150147D1*
X778289Y1147607D1*
X777655Y1145067D1*
X777208Y1142527D1*
X776885Y1139987D1*
X776455Y1137447D1*
X775792Y1134907D1*
X775034Y1132367D1*
X774252Y1129827D1*
X773316Y1127287D1*
X772223Y1124747D1*
X771037Y1122207D1*
X769800Y1119667D1*
X768535Y1117127D1*
X767179Y1114587D1*
X765579Y1112047D1*
X763610Y1109507D1*
X761357Y1106967D1*
X758945Y1104427D1*
X756446Y1101887D1*
X753837Y1099347D1*
X750970Y1096807D1*
X747735Y1094267D1*
X744231Y1091727D1*
X740739Y1089187D1*
X737735Y1086647D1*
X735333Y1084107D1*
X734549Y1081567D1*
X734180Y1079027D1*
X734837Y1076487D1*
X735768Y1073947D1*
X736807Y1071407D1*
X737775Y1068867D1*
X738656Y1066327D1*
X739632Y1063787D1*
X740741Y1061247D1*
X741933Y1058707D1*
X743163Y1056167D1*
X744338Y1053627D1*
X745362Y1051087D1*
X746264Y1048547D1*
X747248Y1046007D1*
X748360Y1043467D1*
X749552Y1040927D1*
X750782Y1038387D1*
X751958Y1035847D1*
X752982Y1033307D1*
X753884Y1030767D1*
X754868Y1028227D1*
X755970Y1025687D1*
X757083Y1023147D1*
X758079Y1020607D1*
X758970Y1018067D1*
X759950Y1015527D1*
X761061Y1012987D1*
X762253Y1010447D1*
X763482Y1007907D1*
X764658Y1005367D1*
X765682Y1002827D1*
X766584Y1000287D1*
X767568Y997747D1*
X768670Y995207D1*
X769783Y992667D1*
X770779Y990127D1*
X771670Y987587D1*
X772650Y985047D1*
X773751Y982507D1*
X774863Y979967D1*
X775859Y977427D1*
X776750Y974887D1*
X777738Y972347D1*
X778914Y969807D1*
X780317Y967267D1*
X781887Y964727D1*
X599007Y977427D2*
X594416Y974887D1*
X590301Y972347D1*
X586577Y969807D1*
X582927Y967267D1*
X579223Y964727D1*
X575472Y962187D1*
X571685Y959647D1*
X567887Y957107D1*
X564079Y954567D1*
X560264Y952027D1*
X556387Y949487D1*
X552365Y946947D1*
X548207Y944407D1*
X604087Y977427D2*
X607126Y974887D1*
X610720Y972347D1*
X614947Y969807D1*
X619595Y967267D1*
X624407Y964727D1*
X804747Y977427D2*
X801707Y974887D1*
X798113Y972347D1*
X793886Y969807D1*
X789239Y967267D1*
X784427Y964727D1*
X812367Y977427D2*
X815309Y974887D1*
X818568Y972347D1*
X822099Y969807D1*
X825782Y967267D1*
X829543Y964727D1*
X833331Y962187D1*
X837136Y959647D1*
X840942Y957107D1*
X844753Y954567D1*
X848620Y952027D1*
X853005Y949487D1*
X859102Y946947D1*
X867910Y944407D1*
X878407Y941867D1*
X2099357Y845232D2*
D85*
X2087284Y839196D1*
X2075070Y826983D1*
X2069033Y814909D1*
Y790623D1*
X2075070Y778409D1*
X2087283Y766336D1*
X2099356Y760159D1*
X2117606Y754123D1*
X2148070D1*
X2166180Y760159D1*
X2178393Y766336D1*
X2190466Y778409D1*
X2196643Y790623D1*
Y814909D1*
X2190466Y826982D1*
X2178393Y839196D1*
X2166180Y845232D1*
X2087284Y957308D2*
X2075210Y951271D1*
X2069174Y933021D1*
Y920948D1*
X2075210Y902698D1*
X2093460Y890485D1*
X2123784Y884448D1*
X2154107D1*
X2178393Y890485D1*
X2190607Y902698D1*
X2196643Y920948D1*
Y926984D1*
X2190607Y945094D1*
X2178393Y957308D1*
X2160143Y963344D1*
X2154107D1*
X2135857Y957308D1*
X2123784Y945094D1*
X2117747Y926985D1*
Y920948D1*
X2123784Y902698D1*
X2135857Y890485D1*
X2154107Y884448D1*
X2370483Y5115361D2*
X2498093D1*
Y5157897D1*
X2491916Y5176147D1*
X2479843Y5188361D1*
X2467630Y5194397D1*
X2449520Y5200434D1*
X2419057D1*
X2400807Y5194397D1*
X2388734Y5188361D1*
X2376520Y5176147D1*
X2370483Y5157897D1*
Y5115361D1*
X2394910Y5239650D2*
X2388734Y5251863D1*
X2370624Y5270113D1*
X2498093D1*
X192180Y5095926D2*
X319790D1*
Y5138462D1*
X313613Y5156712D1*
X301540Y5168926D1*
X289326Y5174962D1*
X271217Y5180999D1*
X240753D1*
X222503Y5174963D1*
X210430Y5168926D1*
X198217Y5156713D1*
X192180Y5138463D1*
Y5095926D1*
X222644Y5226392D2*
X216607D1*
X204394Y5232428D1*
X198357Y5238465D1*
X192321Y5250678D1*
Y5274965D1*
X198357Y5287038D1*
X204394Y5293074D1*
X216607Y5299251D1*
X228680D1*
X240894Y5293074D1*
X259003Y5281001D1*
X319790Y5220215D1*
Y5305288D1*
X691370Y224477D2*
Y127330D1*
X685334Y109080D1*
X679157Y103044D1*
X667084Y96867D1*
X654870D1*
X642797Y103044D1*
X636761Y109080D1*
X630584Y127330D1*
Y139404D1*
X730586Y200050D2*
X742800Y206227D1*
X761050Y224336D1*
Y96867D1*
X1058859Y4706587D2*
Y4609440D1*
X1052822Y4591190D1*
X1046645Y4585154D1*
X1034572Y4578977D1*
X1022359D1*
X1010286Y4585154D1*
X1004249Y4591190D1*
X998072Y4609440D1*
Y4621514D1*
X1110288Y4706446D2*
X1176971D1*
X1140611Y4657873D1*
X1158861D1*
X1170934Y4651837D1*
X1176971Y4645800D1*
X1183148Y4627550D1*
Y4615477D1*
X1176971Y4597227D1*
X1164898Y4585014D1*
X1146648Y4578977D1*
X1128398D1*
X1110288Y4585014D1*
X1104251Y4591190D1*
X1098075Y4603264D1*
X2034627Y4871088D2*
Y4925697D1*
X2028450Y4943947D1*
X2022413Y4950124D1*
X2010340Y4956161D1*
X1998127D1*
X1986054Y4950124D1*
X1979877Y4943947D1*
X1973840Y4925697D1*
Y4871088D1*
X2101450D1*
X2034627Y4913624D2*
X2101450Y4956160D1*
X1998267Y4995376D2*
X1992090Y5007590D1*
X1973981Y5025840D1*
X2101450Y5025839D1*
X1665259Y1058223D2*
X1719869D1*
X1738119Y1064400D1*
X1744296Y1070437D1*
X1750332Y1082510D1*
Y1094723D1*
X1744296Y1106796D1*
X1738119Y1112973D1*
X1719869Y1119010D1*
X1665259D1*
Y991400D1*
X1707796Y1058223D2*
X1750332Y991400D1*
X1795725Y1088546D2*
Y1094583D1*
X1801761Y1106796D1*
X1807798Y1112833D1*
X1820011Y1118870D1*
X1844298D1*
X1856371Y1112833D1*
X1862407Y1106796D1*
X1868584Y1094583D1*
Y1082510D1*
X1862407Y1070296D1*
X1850334Y1052187D1*
X1789548Y991400D1*
X1874621D1*
X1907043Y508599D2*
Y563209D1*
X1900866Y581459D1*
X1894830Y587636D1*
X1882757Y593672D1*
X1870543D1*
X1858470Y587636D1*
X1852293Y581459D1*
X1846257Y563209D1*
Y508599D1*
X1973866D1*
X1907043Y551136D2*
X1973866Y593672D1*
X1846397Y645102D2*
Y711784D1*
X1894970Y675425D1*
Y693674D1*
X1901007Y705748D1*
X1907043Y711784D1*
X1925293Y717961D1*
X1937366D1*
X1955616Y711784D1*
X1967830Y699711D1*
X1973866Y681461D1*
Y663211D1*
X1967830Y645101D1*
X1961653Y639065D1*
X1949580Y632888D1*
X619860Y4537556D2*
Y4592166D1*
X613683Y4610416D1*
X607647Y4616593D1*
X595574Y4622629D1*
X583360D1*
X571287Y4616593D1*
X565110Y4610416D1*
X559073Y4592166D1*
Y4537556D1*
X686683D1*
X619860Y4580093D2*
X686683Y4622629D1*
X559214Y4692168D2*
X565250Y4674058D1*
X577324Y4667881D1*
X589537D1*
X601610Y4674058D1*
X607787Y4686131D1*
X613824Y4710418D1*
X619860Y4728668D1*
X632074Y4740741D1*
X644147Y4746777D1*
X662397D1*
X674470Y4740741D1*
X680647Y4734704D1*
X686683Y4716454D1*
Y4692168D1*
X680647Y4674058D1*
X674470Y4667881D1*
X662397Y4661845D1*
X644147D1*
X632074Y4667881D1*
X619860Y4680095D1*
X613824Y4698204D1*
X607787Y4722491D1*
X601610Y4734704D1*
X589537Y4740741D1*
X577324D1*
X565250Y4734704D1*
X559214Y4716454D1*
Y4692168D1*
X1613290Y3861073D2*
X1601217Y3873287D1*
X1582967Y3879323D1*
X1558681D1*
X1540431Y3873287D1*
X1528217Y3861073D1*
Y3849000D1*
X1534394Y3836787D1*
X1540431Y3830750D1*
X1552504Y3824714D1*
X1589004Y3812500D1*
X1601217Y3806464D1*
X1607254Y3800287D1*
X1613290Y3788214D1*
Y3769964D1*
X1601217Y3757891D1*
X1582967Y3751714D1*
X1558681D1*
X1540431Y3757891D1*
X1528217Y3769964D1*
X1652506Y3854896D2*
X1664719Y3861073D1*
X1682969Y3879183D1*
Y3751714D1*
X1167981Y1165783D2*
Y1074674D1*
X1174017Y1056424D1*
X1186231Y1044351D1*
X1204481Y1038174D1*
X1216554D1*
X1234804Y1044351D1*
X1247017Y1056424D1*
X1253054Y1074674D1*
Y1165783D1*
X1292269Y1141356D2*
X1304483Y1147533D1*
X1322733Y1165643D1*
Y1038174D1*
X1188970Y2938911D2*
Y2847801D1*
X1195006Y2829551D1*
X1207220Y2817478D1*
X1225470Y2811301D1*
X1237543D1*
X1255793Y2817478D1*
X1268006Y2829551D1*
X1274043Y2847801D1*
Y2938911D1*
X1319435Y2908448D2*
Y2914484D1*
X1325472Y2926698D1*
X1331509Y2932734D1*
X1343722Y2938771D1*
X1368009D1*
X1380082Y2932734D1*
X1386118Y2926698D1*
X1392295Y2914484D1*
Y2902411D1*
X1386118Y2890198D1*
X1374045Y2872088D1*
X1313259Y2811301D1*
X1398332D1*
X764836Y3438083D2*
D32*
Y3259429D1*
X705284Y3438083D2*
X824387D1*
X902165D2*
X910616Y3429631D1*
X919263Y3438083D1*
X910616Y3446730D1*
X902165Y3438083D1*
X910616Y3378531D2*
Y3259429D1*
X997041Y3378531D2*
Y3259429D1*
Y3344530D2*
X1022591Y3370080D1*
X1039690Y3378531D1*
X1065043D1*
X1082142Y3370080D1*
X1090593Y3344530D1*
Y3259429D1*
X1177019Y3378531D2*
X1227922Y3259429D1*
X1211020Y3225428D1*
X1193921Y3208329D1*
X1177019Y3199878D1*
X1168371D1*
X1279022Y3378531D2*
X1227922Y3259429D1*
X1475902Y3412533D2*
X1459000Y3429631D1*
X1433450Y3438083D1*
X1399449D1*
X1373899Y3429631D1*
X1356800Y3412533D1*
Y3395630D1*
X1365448Y3378531D1*
X1373899Y3370080D1*
X1390801Y3361629D1*
X1441901Y3344530D1*
X1459000Y3336079D1*
X1467451Y3327431D1*
X1475902Y3310529D1*
Y3284979D1*
X1459000Y3268077D1*
X1433450Y3259429D1*
X1399449D1*
X1373899Y3268077D1*
X1356800Y3284979D1*
X1689881Y3259429D2*
X1621683Y3438083D1*
X1553680Y3259429D1*
X1579230Y3318980D2*
X1664331D1*
X1903664Y3259429D2*
Y3438083D1*
X1835661Y3259429D1*
X1767659Y3438083D1*
Y3259429D1*
X2038634Y668852D2*
D86*
X2077493Y566764D1*
X2116351Y668852D1*
X2160796D2*
Y566764D1*
X2273299Y668852D2*
Y566764D1*
X2205240Y668852D1*
Y566764D1*
X400109Y4449157D2*
X395280Y4458815D1*
X385509Y4468586D1*
X375850Y4473415D1*
X356421D1*
X346650Y4468586D1*
X336992Y4458815D1*
X332050Y4449157D1*
X327221Y4434557D1*
Y4410186D1*
X332050Y4395698D1*
X336992Y4385928D1*
X346650Y4376269D1*
X356421Y4371328D1*
X375850D1*
X385509Y4376269D1*
X395280Y4385928D1*
X400109Y4395698D1*
Y4410186D1*
X375850D1*
X512612Y4473415D2*
Y4371328D1*
X444553Y4473415D1*
Y4371328D1*
X557056Y4473415D2*
Y4371328D1*
X591085D1*
X605685Y4376269D1*
X615456Y4385928D1*
X620285Y4395698D1*
X625115Y4410186D1*
Y4434557D1*
X620285Y4449157D1*
X615456Y4458815D1*
X605685Y4468586D1*
X591085Y4473415D1*
X557056D1*
X168888Y295513D2*
X198088Y227454D1*
X227175Y295513D1*
X271620Y310000D2*
X281391Y314942D1*
X295991Y329430D1*
Y227454D1*
X345264Y237225D2*
X340435Y232284D1*
X345264Y227454D1*
X350206Y232284D1*
X345264Y237225D1*
X423850Y329430D2*
X409250Y324600D1*
X399480Y310000D1*
X394650Y285742D1*
Y271142D1*
X399480Y246884D1*
X409250Y232284D1*
X423850Y227454D1*
X433509D1*
X448109Y232284D1*
X457767Y246884D1*
X462709Y271142D1*
Y285742D1*
X457767Y310000D1*
X448109Y324600D1*
X433509Y329430D1*
X423850D1*
X457767Y310000D2*
X399480Y246884D1*
M02*
