G04 DipTrace 2.4.0.2*
%INTop.gbr*%
%MOMM*%
%ADD14C,0.406*%
%ADD15C,0.254*%
%ADD16C,0.4*%
%ADD17C,0.635*%
%ADD18C,0.762*%
%ADD19C,0.508*%
%ADD21R,2.6X1.6*%
%ADD22R,1.3X1.5*%
%ADD23R,1.5X1.3*%
%ADD24R,1.6X2.6*%
%ADD26R,1.7X1.7*%
%ADD27C,1.7*%
%ADD28R,1.9X1.9*%
%ADD29O,0.9X1.6*%
%ADD30R,1.6X1.4*%
%ADD31R,0.4X1.35*%
%ADD32R,1.0X1.0*%
%ADD33C,1.0*%
%ADD34R,1.0X1.35*%
%ADD35R,1.5X1.5*%
%ADD36C,1.5*%
%ADD38R,0.65X1.05*%
%ADD39R,1.6X2.2*%
%ADD41R,0.95X2.15*%
%ADD42R,3.25X2.15*%
%ADD44C,1.524*%
%FSLAX53Y53*%
G04*
G71*
G90*
G75*
G01*
%LNTop*%
%LPD*%
X16002Y61468D2*
D14*
X19457D1*
X21895D1*
X22337Y61910D1*
X24308D1*
X16992Y54658D2*
X17933D1*
X20921Y57646D1*
Y60004D1*
X19457Y61468D1*
X2200Y55826D2*
X2368D1*
X5997Y52197D1*
X11022Y28900D2*
D15*
X11004D1*
X8890Y31015D1*
X7903D1*
X7565Y31352D1*
X16962Y22960D2*
X16967D1*
X20628Y19299D1*
X21085D1*
X21009Y19679D1*
X12437Y20486D2*
X13257Y19665D1*
D14*
Y19517D1*
X13748Y19026D1*
Y17503D1*
X11906Y15661D1*
X9531D1*
Y15813D1*
X5899Y3392D2*
X6097Y3589D1*
Y5899D1*
Y11699D1*
X9531Y15133D1*
Y15813D1*
X13761Y44328D2*
X14398Y44965D1*
X15650D1*
X16992Y54658D2*
X17800Y53850D1*
Y46024D1*
X16741Y44965D1*
X15650D1*
X15327Y44277D2*
Y43848D1*
X14202Y42723D1*
X10381D1*
X8214Y40556D1*
X10669Y28547D2*
D15*
Y28523D1*
X12090Y27102D1*
X13117D1*
X16224D1*
X16962Y27840D1*
X16255Y22253D2*
X15011Y23497D1*
Y25207D1*
X14580Y25639D1*
X13117Y27102D1*
X12083Y20839D2*
X14580Y23336D1*
Y25639D1*
X2261Y61910D2*
D14*
X4028D1*
X4521Y61417D1*
X14732Y61468D2*
X13462D1*
Y62103D1*
X12979Y62586D1*
X5690D1*
X4521Y61417D1*
X13462Y55987D2*
X12858D1*
X11303Y54432D1*
X10333D1*
X10185Y54580D1*
X14762Y4199D2*
D16*
Y5135D1*
D14*
X15113Y5486D1*
X22403D1*
X23114Y4775D1*
Y3854D1*
Y2371D1*
X22622Y1880D1*
X21361D1*
X21260Y1981D1*
X19228Y1986D2*
X21255D1*
X21260Y1981D1*
X22716Y52867D2*
Y51895D1*
X21723Y50902D1*
X16255Y22253D2*
D15*
Y22226D1*
X18916Y19565D1*
Y18766D1*
X21085Y16598D1*
X22634D1*
X22907Y16871D1*
X3999Y3392D2*
D14*
X3797Y3594D1*
Y5899D1*
X12735Y24850D2*
X12561Y24676D1*
Y24215D1*
X13114Y24768D1*
Y25045D1*
X13045Y24976D1*
X8232Y47951D2*
X5384Y50800D1*
X1524D1*
X21723Y50902D2*
Y42357D1*
X20284Y40918D1*
Y38468D1*
X19337Y37521D1*
X16385D1*
X11873Y33009D1*
X9033D1*
X6694Y35349D1*
Y38133D1*
X6359Y38468D1*
Y42366D1*
X4633Y44093D1*
Y47691D1*
X1524Y50800D1*
X10185Y54580D2*
Y56145D1*
X10995Y56955D1*
X3797Y5899D2*
Y10439D1*
X3492Y10744D1*
Y13374D1*
X5931Y15813D1*
X1770Y2934D2*
X3542D1*
X3999Y3392D1*
X15121Y12497D2*
X16552D1*
X17277Y11771D1*
X22520D1*
X24454Y9837D1*
Y5194D1*
X23114Y3854D1*
X16609Y28193D2*
D15*
X19205Y30789D1*
Y30816D1*
X8232Y44351D2*
D14*
X8256Y44328D1*
X12261D1*
X11276Y46921D2*
X8707Y44351D1*
X8232D1*
X20816Y52867D2*
X20675D1*
X19696Y51887D1*
Y51028D1*
X19823Y50902D1*
X19831Y49012D2*
Y50893D1*
X19823Y50902D1*
X21766Y55167D2*
X23442D1*
X24308Y56032D1*
X10185Y52680D2*
X12395D1*
X13538Y51537D1*
Y46863D1*
X13462Y46787D1*
X8204Y52629D2*
X10135D1*
X10185Y52680D1*
X15650Y46865D2*
X13540D1*
X21260Y3881D2*
X19233D1*
X19228Y3886D1*
X10262Y3974D2*
Y3524D1*
X12262Y1524D1*
X14662D2*
X12262D1*
X14662D2*
Y1974D1*
X16662Y3974D1*
X19140D1*
X19228Y3886D1*
X14112Y4199D2*
D16*
X14100Y4211D1*
D14*
Y5545D1*
X15058Y6504D1*
X16478D1*
X16886Y6912D1*
Y6983D1*
X16609Y22607D2*
D15*
X16635D1*
X19715Y19527D1*
Y19185D1*
X20514Y18386D1*
X22522D1*
X22907Y18771D1*
X2200Y57726D2*
D14*
Y59949D1*
X2261Y60010D1*
X12162Y4199D2*
D16*
X12144Y4217D1*
D14*
Y6165D1*
X11065Y7244D1*
X21597Y7455D2*
X20414D1*
X17620Y10249D1*
X12028D1*
X11267Y9489D1*
Y7445D1*
X11065Y7244D1*
X24308Y57932D2*
Y60010D1*
X17669Y27132D2*
D15*
X17695D1*
X19468Y28905D1*
X22628D1*
X23962Y27572D1*
Y25852D1*
X24295Y25519D1*
X25281D1*
X25400Y25400D1*
X17316Y27486D2*
X19352Y29522D1*
X23818D1*
X25400Y27940D1*
X15548Y29254D2*
Y29264D1*
X16764Y30480D1*
Y32131D1*
X17907Y33274D1*
X23114D1*
X25400Y35560D1*
X15194Y29607D2*
Y29622D1*
X16180Y30607D1*
Y32309D1*
X17755Y33884D1*
X22631D1*
X24028Y35281D1*
Y36728D1*
X25400Y38100D1*
X14841Y29961D2*
X14848D1*
X15672Y30785D1*
Y32537D1*
X17551Y34417D1*
X22301D1*
X23419Y35535D1*
Y38227D1*
X24359Y39167D1*
Y39599D1*
X25400Y40640D1*
X14487Y30314D2*
Y31124D1*
X15164Y31801D1*
Y32893D1*
X17272Y35001D1*
X22047D1*
X22860Y35814D1*
Y39675D1*
X24155Y40970D1*
Y41935D1*
X25400Y43180D1*
X12437Y30314D2*
X12788D1*
X14656Y32182D1*
Y33172D1*
X17043Y35560D1*
X21742D1*
X22250Y36068D1*
Y39954D1*
X23622Y41326D1*
Y43942D1*
X25400Y45720D1*
X12083Y29961D2*
X11430Y30614D1*
Y31267D1*
X11709Y31547D1*
X13056D1*
X14148Y32639D1*
Y33452D1*
X16840Y36144D1*
X21082D1*
X21666Y36728D1*
Y40157D1*
X23089Y41580D1*
Y45949D1*
X25400Y48260D1*
X11730Y29607D2*
Y29622D1*
X10922Y30429D1*
Y31521D1*
X11557Y32156D1*
X12903D1*
X13487Y32741D1*
Y33604D1*
X16561Y36678D1*
X20650D1*
X21133Y37160D1*
Y40437D1*
X22504Y41808D1*
Y46482D1*
X24028Y48006D1*
Y49428D1*
X25400Y50800D1*
X1524Y48260D2*
X1549D1*
X3835Y45974D1*
Y43891D1*
X5461Y42266D1*
Y37871D1*
X5954Y37378D1*
Y34340D1*
X7487Y32807D1*
X8188D1*
X9957Y31039D1*
Y30673D1*
X11376Y29254D1*
X9608Y27486D2*
X8189Y28905D1*
X5817D1*
X5131Y29591D1*
Y32461D1*
X3962Y33630D1*
Y36449D1*
X3226Y37186D1*
Y38938D1*
X1524Y40640D1*
X9255Y27132D2*
X8117Y28270D1*
X5334D1*
X4572Y29032D1*
Y32207D1*
X3429Y33350D1*
Y36195D1*
X1524Y38100D1*
X8901Y26779D2*
X8883D1*
X8153Y27508D1*
X5156D1*
X3962Y28702D1*
Y32004D1*
X2845Y33122D1*
Y34239D1*
X1524Y35560D1*
X8548Y26425D2*
X8239D1*
X8103Y26289D1*
X5436D1*
X3378Y28346D1*
Y31699D1*
X2057Y33020D1*
X1524D1*
X8548Y24375D2*
Y24435D1*
X6375D1*
X2819Y27991D1*
Y29185D1*
X1524Y30480D1*
Y27940D2*
X1880D1*
X6528Y23292D1*
X8172D1*
X8901Y24021D1*
X9255Y23668D2*
X8371Y22784D1*
X5969D1*
X4343Y24409D1*
X3124D1*
X2134Y25400D1*
X1524D1*
Y22860D2*
X4978D1*
X5563Y22276D1*
X8570D1*
X9608Y23314D1*
X9962Y22960D2*
X7982Y20980D1*
X2438D1*
X1803Y20345D1*
X1549D1*
X1524Y20320D1*
Y17780D2*
Y17805D1*
X4191Y20472D1*
X8181D1*
X10315Y22607D1*
X1524Y15240D2*
Y15316D1*
X3327Y17120D1*
Y18415D1*
X4801Y19888D1*
X8304D1*
X10669Y22253D1*
X1524Y12700D2*
Y13106D1*
X3886Y15469D1*
Y18161D1*
X5029Y19304D1*
X8427D1*
X11022Y21900D1*
X14732Y60198D2*
D14*
Y58817D1*
X16992Y56558D1*
X20255Y21374D2*
D15*
X19256D1*
X17316Y23314D1*
X17669Y23668D2*
X17675D1*
X18712Y22630D1*
X21213D1*
X22392Y21451D1*
X18023Y24021D2*
X18828Y23216D1*
X22504D1*
X25400Y20320D1*
X18376Y24375D2*
X18399D1*
X19025Y23749D1*
X22733D1*
X23724Y22758D1*
X25298D1*
X25400Y22860D1*
X16255Y28547D2*
X16278D1*
X17958Y30226D1*
Y31572D1*
X18542Y32156D1*
X22149D1*
X22885Y31420D1*
Y30734D1*
X23368Y30251D1*
X25171D1*
X25400Y30480D1*
X15902Y28900D2*
X17272Y30271D1*
Y31801D1*
X18136Y32664D1*
X25044D1*
X25400Y33020D1*
X10315Y28193D2*
X8435Y30074D1*
X6782D1*
X6248Y30607D1*
Y33249D1*
X5359Y34138D1*
Y36906D1*
X4724Y37541D1*
Y42088D1*
X3124Y43688D1*
Y44120D1*
X1524Y45720D1*
X9962Y27840D2*
X8363Y29439D1*
X6325D1*
X5740Y30023D1*
Y32868D1*
X4674Y33934D1*
Y36703D1*
X3937Y37440D1*
Y40767D1*
X1524Y43180D1*
X14487Y20486D2*
X14614Y20359D1*
Y16884D1*
X18167Y13331D1*
X21719D1*
X22820Y14432D1*
X23731D1*
X24540Y15240D1*
X25400D1*
X14841Y20839D2*
X15809Y19871D1*
Y19399D1*
X15149Y18739D1*
Y17293D1*
X18638Y13803D1*
X20996D1*
X22725Y15532D1*
X23637D1*
X24266Y16161D1*
Y17544D1*
X24502Y17780D1*
X25400D1*
X12812Y4199D2*
D16*
X12828Y4215D1*
D14*
Y7999D1*
X13348Y8519D1*
X9853Y18635D2*
X10036D1*
Y18791D1*
X11376Y21546D2*
D15*
X9853Y20023D1*
Y18635D1*
X13462Y4199D2*
D14*
Y6736D1*
X15319Y8593D1*
Y8694D1*
X11730Y21193D2*
D15*
X10763Y20226D1*
Y19777D1*
X12213Y18326D1*
Y18031D1*
D14*
Y17829D1*
X15194Y21193D2*
D15*
X16796Y19591D1*
Y18359D1*
D14*
X16441Y18004D1*
X25400Y12700D2*
X25309Y12609D1*
X17587D1*
X14970Y15226D1*
X12759D1*
X10029Y12497D1*
X8520Y10987D1*
Y5899D1*
X8397D1*
X13221Y12497D2*
X10029D1*
X21597Y9455D2*
X20963D1*
X19408Y11010D1*
X13549D1*
X13017Y11543D1*
Y12293D1*
X13221Y12497D1*
X18376Y26425D2*
D15*
X18480D1*
X19335Y25570D1*
X18023Y26779D2*
X19129Y27885D1*
X19674D1*
X20062Y27498D1*
X15548Y21546D2*
X17602Y19492D1*
Y18491D1*
X18567Y17526D1*
Y15697D1*
X8204Y54529D2*
D14*
Y57480D1*
X10922Y60198D1*
X15902Y21900D2*
D15*
Y21894D1*
X18161Y19634D1*
Y18618D1*
X19431Y17348D1*
Y16637D1*
X20396Y15672D1*
Y15164D1*
X20371Y15138D1*
X19831Y47112D2*
D14*
Y45847D1*
X20062Y45617D1*
X19671Y45226D1*
D44*
X5997Y52197D3*
X7565Y31352D3*
D3*
X21009Y19679D3*
D3*
X13257Y19517D3*
X8214Y40556D3*
X5997Y52197D3*
X13257Y19517D3*
X4521Y61417D3*
X12735Y24850D3*
X10995Y56955D3*
X1770Y2934D3*
X23114Y2371D3*
X19205Y30816D3*
X11276Y46921D3*
X19205Y30816D3*
X16886Y6983D3*
X11065Y7244D3*
X20255Y21374D3*
X22392Y21451D3*
D3*
X13348Y8519D3*
X9853Y18635D3*
X13348Y8519D3*
X9853Y18635D3*
X15319Y8694D3*
X12213Y17829D3*
X15319Y8694D3*
X16441Y18004D3*
X19335Y25570D3*
D3*
X20062Y27498D3*
D3*
X18567Y15697D3*
D3*
X20371Y15138D3*
X19671Y45226D3*
X20371Y15138D3*
X19671Y45226D3*
X13144Y28261D2*
D17*
X13780D1*
X12508Y27629D2*
X14415D1*
X11873Y26998D2*
X15050D1*
X11248Y26366D2*
X15695D1*
X10613Y25734D2*
X16311D1*
X10574Y25103D2*
X16350D1*
X11209Y24471D2*
X15715D1*
X11844Y23839D2*
X15080D1*
X12469Y23207D2*
X14455D1*
X13104Y22576D2*
X13820D1*
X13461Y28645D2*
X12263Y27447D1*
X11935Y27165D1*
X11768Y26952D1*
X10403Y25590D1*
X10217Y25401D1*
X11504Y24109D1*
X12565Y23048D1*
X13183Y22434D1*
X13297Y22296D1*
X13529Y22222D1*
X14661Y23353D1*
X14989Y23635D1*
X15156Y23848D1*
X16521Y25210D1*
X16707Y25399D1*
X15863Y26245D1*
X15581Y26574D1*
X15368Y26740D1*
X14005Y28106D1*
X13463Y28645D1*
X17747Y61471D2*
D18*
X22314D1*
X6403Y60713D2*
X9251D1*
X17747D2*
X22314D1*
X5862Y59954D2*
X8657D1*
X17747D2*
X22314D1*
X4258Y59195D2*
X7897D1*
X17414D2*
X22314D1*
X4258Y58437D2*
X7137D1*
X17133D2*
X22314D1*
X4195Y57678D2*
X6762D1*
X18987D2*
X22314D1*
X4195Y56919D2*
X6751D1*
X18987D2*
X22314D1*
X4195Y56161D2*
X6209D1*
X18987D2*
X20189D1*
X4195Y55402D2*
X6209D1*
X18987D2*
X20189D1*
X4195Y54643D2*
X6209D1*
X18987D2*
X20189D1*
X1346Y53885D2*
X6209D1*
X1346Y53126D2*
X6209D1*
X13976D2*
X14991D1*
X2883Y52367D2*
X6209D1*
X14716D2*
X17928D1*
X14987Y51609D2*
X17928D1*
X14987Y50850D2*
X17928D1*
X14987Y50091D2*
X17834D1*
X14987Y49333D2*
X17834D1*
X17653Y44022D2*
X18084D1*
X17653Y43263D2*
X20272D1*
X15508Y42505D2*
X19845D1*
X7810Y41746D2*
X19105D1*
X7810Y40987D2*
X18834D1*
X7810Y40229D2*
X18834D1*
X7810Y39470D2*
X18834D1*
X8018Y38711D2*
X15616D1*
X8143Y37953D2*
X14793D1*
X8143Y37194D2*
X14032D1*
X8143Y36435D2*
X13272D1*
X8393Y35677D2*
X12522D1*
X9143Y34918D2*
X11762D1*
X7799Y3054D2*
X8209D1*
X7799Y2295D2*
X8209D1*
X7799Y1537D2*
X8459D1*
X10206Y42960D2*
Y41878D1*
X7737D1*
X7736Y39023D1*
X7863Y38861D1*
X7997Y38576D1*
X8070Y38133D1*
Y35915D1*
X9604Y34385D1*
X11293Y34386D1*
X13257Y36340D1*
X15411Y38494D1*
X15673Y38699D1*
X15976Y38835D1*
X16385Y38897D1*
X18770D1*
X18901Y39032D1*
X18907Y40918D1*
X18947Y41248D1*
X19065Y41559D1*
X19310Y41892D1*
X20349Y42930D1*
X20346Y43410D1*
X20042Y43327D1*
X19711Y43291D1*
X19379Y43313D1*
X19056Y43391D1*
X18750Y43524D1*
X18472Y43707D1*
X18229Y43935D1*
X18029Y44201D1*
X17878Y44497D1*
X17780Y44816D1*
X17737Y45146D1*
X17752Y45478D1*
X17824Y45803D1*
X17907Y46006D1*
X17918Y48936D1*
X17907Y49189D1*
Y50836D1*
X18001D1*
X17999Y52825D1*
X18382Y52834D1*
X15068D1*
Y53715D1*
X13316Y53701D1*
X14512Y52510D1*
X14717Y52248D1*
X14853Y51945D1*
X14915Y51537D1*
Y49068D1*
X15435Y49060D1*
Y48696D1*
X17574Y48688D1*
X17563Y45041D1*
X17574Y44988D1*
Y43141D1*
X15434D1*
X15435Y42480D1*
X10588D1*
Y42948D1*
X10209Y42951D1*
X7723Y3650D2*
Y1468D1*
X3031Y1466D1*
X2752Y1267D1*
X8545Y1270D1*
X8549Y1874D1*
X8289Y2101D1*
Y3653D1*
X7723Y3651D1*
X4184Y59511D2*
Y58187D1*
X4132D1*
X4123Y55903D1*
Y54003D1*
X1271D1*
X1270Y52809D1*
X1655Y52819D1*
X1985Y52770D1*
X2301Y52668D1*
X2597Y52515D1*
X2864Y52316D1*
X3001Y52174D1*
X5384Y52177D1*
X5714Y52137D1*
X6110Y51968D1*
X6281Y52139D1*
X6291Y54452D1*
X6281Y54705D1*
Y56352D1*
X6833D1*
X6828Y57480D1*
X6868Y57810D1*
X6986Y58121D1*
X7231Y58454D1*
X9271Y60494D1*
X9379Y60828D1*
X9271Y61202D1*
X6448Y61209D1*
X6343Y60764D1*
X6204Y60461D1*
X6015Y60187D1*
X5782Y59949D1*
X5512Y59755D1*
X5212Y59609D1*
X4892Y59518D1*
X4561Y59482D1*
X4179Y59516D1*
X22384Y56869D2*
Y62230D1*
X17670D1*
X17675Y60741D1*
Y59795D1*
X17628D1*
X17544Y59549D1*
X17385Y59256D1*
X17172Y59001D1*
X16912Y58794D1*
X16773Y58722D1*
X17112Y58384D1*
X18915Y58381D1*
X18905Y54734D1*
X18915Y54681D1*
Y53054D1*
X19319Y53457D1*
X19317Y54565D1*
X20265D1*
X20267Y56865D1*
X22384Y56876D1*
X22395Y57856D1*
X22384Y58109D1*
X22395Y59756D1*
X22384Y60853D1*
X22395Y61833D1*
X20352Y43416D2*
X20042Y43327D1*
X19711Y43291D1*
X19379Y43313D1*
X19056Y43391D1*
X18750Y43524D1*
X18472Y43707D1*
X18229Y43935D1*
X18029Y44201D1*
X17878Y44497D1*
X17780Y44816D1*
X17737Y45146D1*
X17752Y45478D1*
X17824Y45803D1*
X17907Y46006D1*
X5899Y3392D2*
D19*
Y1469D1*
Y3392D2*
X7722D1*
X22386Y61910D2*
X24308D1*
X16002Y61468D2*
X17674D1*
X13761Y44328D2*
Y42481D1*
X15650Y44965D2*
Y43142D1*
Y44965D2*
X17572D1*
X2200Y55826D2*
Y54004D1*
Y55826D2*
X4122D1*
X16992Y54658D2*
Y52835D1*
Y54658D2*
X18914D1*
D21*
X9531Y15813D3*
X5931D3*
D23*
X22907Y18771D3*
Y16871D3*
D24*
X8232Y44351D3*
Y47951D3*
D23*
X10185Y52680D3*
Y54580D3*
X21260Y1981D3*
Y3881D3*
D22*
X13221Y12497D3*
X15121D3*
X5899Y3392D3*
X3999D3*
D23*
X2261Y60010D3*
Y61910D3*
X24308D3*
Y60010D3*
D26*
X1524Y12700D3*
D27*
Y15240D3*
Y17780D3*
Y20320D3*
Y22860D3*
Y25400D3*
Y27940D3*
Y30480D3*
Y33020D3*
Y35560D3*
Y38100D3*
Y40640D3*
Y43180D3*
Y45720D3*
Y48260D3*
Y50800D3*
D26*
X25400D3*
D27*
Y48260D3*
Y45720D3*
Y43180D3*
Y40640D3*
Y38100D3*
Y35560D3*
Y33020D3*
Y30480D3*
Y27940D3*
Y25400D3*
Y22860D3*
Y20320D3*
Y17780D3*
Y15240D3*
Y12700D3*
D28*
X14662Y1524D3*
X12262D3*
D29*
X10162D3*
X16762D3*
D30*
X10262Y3974D3*
X16662D3*
D31*
X12162Y4199D3*
X12812D3*
X13462D3*
X14112D3*
X14762D3*
D32*
X16002Y61468D3*
D33*
X14732D3*
X13462D3*
X12192D3*
X10922D3*
X16002Y60198D3*
X14732D3*
X13462D3*
X12192D3*
X10922D3*
D34*
X13761Y44328D3*
X12261D3*
D35*
X21597Y9455D3*
D36*
Y7455D3*
D38*
X20816Y52867D3*
X22716D3*
X21766Y55167D3*
D23*
X15650Y46865D3*
Y44965D3*
X8204Y52629D3*
Y54529D3*
X19228Y3886D3*
Y1986D3*
X2200Y55826D3*
Y57726D3*
X24308Y56032D3*
Y57932D3*
X19831Y47112D3*
Y49012D3*
D22*
X21723Y50902D3*
X19823D3*
D23*
X16992Y56558D3*
Y54658D3*
D39*
X13462Y46787D3*
Y55987D3*
G36*
X18836Y27097D2*
X19048Y26885D1*
X17917Y25754D1*
X17705Y25966D1*
X18836Y27097D1*
G37*
G36*
X18482Y27451D2*
X18695Y27238D1*
X17563Y26107D1*
X17351Y26319D1*
X18482Y27451D1*
G37*
G36*
X18129Y27804D2*
X18341Y27592D1*
X17210Y26461D1*
X16998Y26673D1*
X18129Y27804D1*
G37*
G36*
X17775Y28158D2*
X17987Y27946D1*
X16856Y26814D1*
X16644Y27026D1*
X17775Y28158D1*
G37*
G36*
X17422Y28511D2*
X17634Y28299D1*
X16503Y27168D1*
X16290Y27380D1*
X17422Y28511D1*
G37*
G36*
X17068Y28865D2*
X17280Y28653D1*
X16149Y27521D1*
X15937Y27733D1*
X17068Y28865D1*
G37*
G36*
X16715Y29218D2*
X16927Y29006D1*
X15795Y27875D1*
X15583Y28087D1*
X16715Y29218D1*
G37*
G36*
X16361Y29572D2*
X16573Y29360D1*
X15442Y28228D1*
X15230Y28441D1*
X16361Y29572D1*
G37*
G36*
X16008Y29925D2*
X16220Y29713D1*
X15088Y28582D1*
X14876Y28794D1*
X16008Y29925D1*
G37*
G36*
X15654Y30279D2*
X15866Y30067D1*
X14735Y28936D1*
X14523Y29148D1*
X15654Y30279D1*
G37*
G36*
X15300Y30633D2*
X15513Y30420D1*
X14381Y29289D1*
X14169Y29501D1*
X15300Y30633D1*
G37*
G36*
X14947Y30986D2*
X15159Y30774D1*
X14028Y29643D1*
X13816Y29855D1*
X14947Y30986D1*
G37*
G36*
X11765Y30774D2*
X11977Y30986D1*
X13108Y29855D1*
X12896Y29643D1*
X11765Y30774D1*
G37*
G36*
X11411Y30420D2*
X11624Y30633D1*
X12755Y29501D1*
X12543Y29289D1*
X11411Y30420D1*
G37*
G36*
X11058Y30067D2*
X11270Y30279D1*
X12401Y29148D1*
X12189Y28936D1*
X11058Y30067D1*
G37*
G36*
X10704Y29713D2*
X10916Y29925D1*
X12048Y28794D1*
X11836Y28582D1*
X10704Y29713D1*
G37*
G36*
X10351Y29360D2*
X10563Y29572D1*
X11694Y28441D1*
X11482Y28228D1*
X10351Y29360D1*
G37*
G36*
X9997Y29006D2*
X10209Y29218D1*
X11341Y28087D1*
X11129Y27875D1*
X9997Y29006D1*
G37*
G36*
X9644Y28653D2*
X9856Y28865D1*
X10987Y27733D1*
X10775Y27521D1*
X9644Y28653D1*
G37*
G36*
X9290Y28299D2*
X9502Y28511D1*
X10634Y27380D1*
X10421Y27168D1*
X9290Y28299D1*
G37*
G36*
X8937Y27946D2*
X9149Y28158D1*
X10280Y27026D1*
X10068Y26814D1*
X8937Y27946D1*
G37*
G36*
X8583Y27592D2*
X8795Y27804D1*
X9926Y26673D1*
X9714Y26461D1*
X8583Y27592D1*
G37*
G36*
X8229Y27238D2*
X8442Y27451D1*
X9573Y26319D1*
X9361Y26107D1*
X8229Y27238D1*
G37*
G36*
X7876Y26885D2*
X8088Y27097D1*
X9219Y25966D1*
X9007Y25754D1*
X7876Y26885D1*
G37*
G36*
X9007Y25046D2*
X9219Y24834D1*
X8088Y23703D1*
X7876Y23915D1*
X9007Y25046D1*
G37*
G36*
X9361Y24693D2*
X9573Y24481D1*
X8442Y23349D1*
X8229Y23562D1*
X9361Y24693D1*
G37*
G36*
X9714Y24339D2*
X9926Y24127D1*
X8795Y22996D1*
X8583Y23208D1*
X9714Y24339D1*
G37*
G36*
X10068Y23986D2*
X10280Y23774D1*
X9149Y22642D1*
X8937Y22854D1*
X10068Y23986D1*
G37*
G36*
X10421Y23632D2*
X10634Y23420D1*
X9502Y22289D1*
X9290Y22501D1*
X10421Y23632D1*
G37*
G36*
X10775Y23279D2*
X10987Y23067D1*
X9856Y21935D1*
X9644Y22147D1*
X10775Y23279D1*
G37*
G36*
X11129Y22925D2*
X11341Y22713D1*
X10209Y21582D1*
X9997Y21794D1*
X11129Y22925D1*
G37*
G36*
X11482Y22572D2*
X11694Y22359D1*
X10563Y21228D1*
X10351Y21440D1*
X11482Y22572D1*
G37*
G36*
X11836Y22218D2*
X12048Y22006D1*
X10916Y20875D1*
X10704Y21087D1*
X11836Y22218D1*
G37*
G36*
X12189Y21864D2*
X12401Y21652D1*
X11270Y20521D1*
X11058Y20733D1*
X12189Y21864D1*
G37*
G36*
X12543Y21511D2*
X12755Y21299D1*
X11624Y20167D1*
X11411Y20380D1*
X12543Y21511D1*
G37*
G36*
X12896Y21157D2*
X13108Y20945D1*
X11977Y19814D1*
X11765Y20026D1*
X12896Y21157D1*
G37*
G36*
X13816Y20945D2*
X14028Y21157D1*
X15159Y20026D1*
X14947Y19814D1*
X13816Y20945D1*
G37*
G36*
X14169Y21299D2*
X14381Y21511D1*
X15513Y20380D1*
X15300Y20167D1*
X14169Y21299D1*
G37*
G36*
X14523Y21652D2*
X14735Y21864D1*
X15866Y20733D1*
X15654Y20521D1*
X14523Y21652D1*
G37*
G36*
X14876Y22006D2*
X15088Y22218D1*
X16220Y21087D1*
X16008Y20875D1*
X14876Y22006D1*
G37*
G36*
X15230Y22359D2*
X15442Y22572D1*
X16573Y21440D1*
X16361Y21228D1*
X15230Y22359D1*
G37*
G36*
X15583Y22713D2*
X15795Y22925D1*
X16927Y21794D1*
X16715Y21582D1*
X15583Y22713D1*
G37*
G36*
X15937Y23067D2*
X16149Y23279D1*
X17280Y22147D1*
X17068Y21935D1*
X15937Y23067D1*
G37*
G36*
X16290Y23420D2*
X16503Y23632D1*
X17634Y22501D1*
X17422Y22289D1*
X16290Y23420D1*
G37*
G36*
X16644Y23774D2*
X16856Y23986D1*
X17987Y22854D1*
X17775Y22642D1*
X16644Y23774D1*
G37*
G36*
X16998Y24127D2*
X17210Y24339D1*
X18341Y23208D1*
X18129Y22996D1*
X16998Y24127D1*
G37*
G36*
X17351Y24481D2*
X17563Y24693D1*
X18695Y23562D1*
X18482Y23349D1*
X17351Y24481D1*
G37*
G36*
X17705Y24834D2*
X17917Y25046D1*
X19048Y23915D1*
X18836Y23703D1*
X17705Y24834D1*
G37*
D41*
X3797Y5899D3*
X6097D3*
X8397D3*
D42*
X6097Y11699D3*
M02*
