G04 DipTrace 2.4.0.2*
%INTopMask.gbr*%
%MOMM*%
%ADD26R,1.7X1.7*%
%ADD27C,1.7*%
%ADD28R,1.9X1.9*%
%ADD55R,3.45X2.35*%
%ADD57R,1.15X2.35*%
%ADD61R,1.8X2.4*%
%ADD63R,0.85X1.25*%
%ADD67R,1.2X1.55*%
%ADD69C,1.2*%
%ADD71R,1.2X1.2*%
%ADD73R,0.6X1.55*%
%ADD75R,1.8X1.6*%
%ADD77O,1.1X1.8*%
%ADD79R,2.1X2.1*%
%ADD80C,1.9*%
%ADD83R,1.8X2.8*%
%ADD85R,1.7X1.5*%
%ADD87R,1.5X1.7*%
%ADD89R,2.8X1.8*%
%FSLAX53Y53*%
G04*
G71*
G90*
G75*
G01*
%LNTopMask*%
%LPD*%
D89*
X9531Y15813D3*
X5931D3*
D85*
X22907Y18771D3*
Y16871D3*
D83*
X8232Y44351D3*
Y47951D3*
D85*
X10185Y52680D3*
Y54580D3*
X21260Y1981D3*
Y3881D3*
D87*
X13221Y12497D3*
X15121D3*
X5899Y3392D3*
X3999D3*
D85*
X2261Y60010D3*
Y61910D3*
X24308D3*
Y60010D3*
D28*
X1524Y12700D3*
D80*
Y15240D3*
Y17780D3*
Y20320D3*
Y22860D3*
Y25400D3*
Y27940D3*
Y30480D3*
Y33020D3*
Y35560D3*
Y38100D3*
Y40640D3*
Y43180D3*
Y45720D3*
Y48260D3*
Y50800D3*
D28*
X25400D3*
D80*
Y48260D3*
Y45720D3*
Y43180D3*
Y40640D3*
Y38100D3*
Y35560D3*
Y33020D3*
Y30480D3*
Y27940D3*
Y25400D3*
Y22860D3*
Y20320D3*
Y17780D3*
Y15240D3*
Y12700D3*
D79*
X14662Y1524D3*
X12262D3*
D77*
X10162D3*
X16762D3*
D75*
X10262Y3974D3*
X16662D3*
D73*
X12162Y4199D3*
X12812D3*
X13462D3*
X14112D3*
X14762D3*
D71*
X16002Y61468D3*
D69*
X14732D3*
X13462D3*
X12192D3*
X10922D3*
X16002Y60198D3*
X14732D3*
X13462D3*
X12192D3*
X10922D3*
D67*
X13761Y44328D3*
X12261D3*
D26*
X21597Y9455D3*
D27*
Y7455D3*
D63*
X20816Y52867D3*
X22716D3*
X21766Y55167D3*
D85*
X15650Y46865D3*
Y44965D3*
X8204Y52629D3*
Y54529D3*
X19228Y3886D3*
Y1986D3*
X2200Y55826D3*
Y57726D3*
X24308Y56032D3*
Y57932D3*
X19831Y47112D3*
Y49012D3*
D87*
X21723Y50902D3*
X19823D3*
D85*
X16992Y56558D3*
Y54658D3*
D61*
X13462Y46787D3*
Y55987D3*
G36*
X18836Y27238D2*
X19190Y26885D1*
X17917Y25612D1*
X17563Y25966D1*
X18836Y27238D1*
G37*
G36*
X18482Y27592D2*
X18836Y27238D1*
X17563Y25966D1*
X17210Y26319D1*
X18482Y27592D1*
G37*
G36*
X18129Y27946D2*
X18482Y27592D1*
X17210Y26319D1*
X16856Y26673D1*
X18129Y27946D1*
G37*
G36*
X17775Y28299D2*
X18129Y27946D1*
X16856Y26673D1*
X16503Y27026D1*
X17775Y28299D1*
G37*
G36*
X17422Y28653D2*
X17775Y28299D1*
X16503Y27026D1*
X16149Y27380D1*
X17422Y28653D1*
G37*
G36*
X17068Y29006D2*
X17422Y28653D1*
X16149Y27380D1*
X15795Y27733D1*
X17068Y29006D1*
G37*
G36*
X16715Y29360D2*
X17068Y29006D1*
X15795Y27733D1*
X15442Y28087D1*
X16715Y29360D1*
G37*
G36*
X16361Y29713D2*
X16715Y29360D1*
X15442Y28087D1*
X15088Y28441D1*
X16361Y29713D1*
G37*
G36*
X16008Y30067D2*
X16361Y29713D1*
X15088Y28441D1*
X14735Y28794D1*
X16008Y30067D1*
G37*
G36*
X15654Y30420D2*
X16008Y30067D1*
X14735Y28794D1*
X14381Y29148D1*
X15654Y30420D1*
G37*
G36*
X15300Y30774D2*
X15654Y30420D1*
X14381Y29148D1*
X14028Y29501D1*
X15300Y30774D1*
G37*
G36*
X14947Y31128D2*
X15300Y30774D1*
X14028Y29501D1*
X13674Y29855D1*
X14947Y31128D1*
G37*
G36*
X11624Y30774D2*
X11977Y31128D1*
X13250Y29855D1*
X12896Y29501D1*
X11624Y30774D1*
G37*
G36*
X11270Y30420D2*
X11624Y30774D1*
X12896Y29501D1*
X12543Y29148D1*
X11270Y30420D1*
G37*
G36*
X10916Y30067D2*
X11270Y30420D1*
X12543Y29148D1*
X12189Y28794D1*
X10916Y30067D1*
G37*
G36*
X10563Y29713D2*
X10916Y30067D1*
X12189Y28794D1*
X11836Y28441D1*
X10563Y29713D1*
G37*
G36*
X10209Y29360D2*
X10563Y29713D1*
X11836Y28441D1*
X11482Y28087D1*
X10209Y29360D1*
G37*
G36*
X9856Y29006D2*
X10209Y29360D1*
X11482Y28087D1*
X11129Y27733D1*
X9856Y29006D1*
G37*
G36*
X9502Y28653D2*
X9856Y29006D1*
X11129Y27733D1*
X10775Y27380D1*
X9502Y28653D1*
G37*
G36*
X9149Y28299D2*
X9502Y28653D1*
X10775Y27380D1*
X10421Y27026D1*
X9149Y28299D1*
G37*
G36*
X8795Y27946D2*
X9149Y28299D1*
X10421Y27026D1*
X10068Y26673D1*
X8795Y27946D1*
G37*
G36*
X8442Y27592D2*
X8795Y27946D1*
X10068Y26673D1*
X9714Y26319D1*
X8442Y27592D1*
G37*
G36*
X8088Y27238D2*
X8442Y27592D1*
X9714Y26319D1*
X9361Y25966D1*
X8088Y27238D1*
G37*
G36*
X7734Y26885D2*
X8088Y27238D1*
X9361Y25966D1*
X9007Y25612D1*
X7734Y26885D1*
G37*
G36*
X9007Y25188D2*
X9361Y24834D1*
X8088Y23562D1*
X7734Y23915D1*
X9007Y25188D1*
G37*
G36*
X9361Y24834D2*
X9714Y24481D1*
X8442Y23208D1*
X8088Y23562D1*
X9361Y24834D1*
G37*
G36*
X9714Y24481D2*
X10068Y24127D1*
X8795Y22854D1*
X8442Y23208D1*
X9714Y24481D1*
G37*
G36*
X10068Y24127D2*
X10421Y23774D1*
X9149Y22501D1*
X8795Y22854D1*
X10068Y24127D1*
G37*
G36*
X10421Y23774D2*
X10775Y23420D1*
X9502Y22147D1*
X9149Y22501D1*
X10421Y23774D1*
G37*
G36*
X10775Y23420D2*
X11129Y23067D1*
X9856Y21794D1*
X9502Y22147D1*
X10775Y23420D1*
G37*
G36*
X11129Y23067D2*
X11482Y22713D1*
X10209Y21440D1*
X9856Y21794D1*
X11129Y23067D1*
G37*
G36*
X11482Y22713D2*
X11836Y22359D1*
X10563Y21087D1*
X10209Y21440D1*
X11482Y22713D1*
G37*
G36*
X11836Y22359D2*
X12189Y22006D1*
X10916Y20733D1*
X10563Y21087D1*
X11836Y22359D1*
G37*
G36*
X12189Y22006D2*
X12543Y21652D1*
X11270Y20380D1*
X10916Y20733D1*
X12189Y22006D1*
G37*
G36*
X12543Y21652D2*
X12896Y21299D1*
X11624Y20026D1*
X11270Y20380D1*
X12543Y21652D1*
G37*
G36*
X12896Y21299D2*
X13250Y20945D1*
X11977Y19672D1*
X11624Y20026D1*
X12896Y21299D1*
G37*
G36*
X13674Y20945D2*
X14028Y21299D1*
X15300Y20026D1*
X14947Y19672D1*
X13674Y20945D1*
G37*
G36*
X14028Y21299D2*
X14381Y21652D1*
X15654Y20380D1*
X15300Y20026D1*
X14028Y21299D1*
G37*
G36*
X14381Y21652D2*
X14735Y22006D1*
X16008Y20733D1*
X15654Y20380D1*
X14381Y21652D1*
G37*
G36*
X14735Y22006D2*
X15088Y22359D1*
X16361Y21087D1*
X16008Y20733D1*
X14735Y22006D1*
G37*
G36*
X15088Y22359D2*
X15442Y22713D1*
X16715Y21440D1*
X16361Y21087D1*
X15088Y22359D1*
G37*
G36*
X15442Y22713D2*
X15795Y23067D1*
X17068Y21794D1*
X16715Y21440D1*
X15442Y22713D1*
G37*
G36*
X15795Y23067D2*
X16149Y23420D1*
X17422Y22147D1*
X17068Y21794D1*
X15795Y23067D1*
G37*
G36*
X16149Y23420D2*
X16503Y23774D1*
X17775Y22501D1*
X17422Y22147D1*
X16149Y23420D1*
G37*
G36*
X16503Y23774D2*
X16856Y24127D1*
X18129Y22854D1*
X17775Y22501D1*
X16503Y23774D1*
G37*
G36*
X16856Y24127D2*
X17210Y24481D1*
X18482Y23208D1*
X18129Y22854D1*
X16856Y24127D1*
G37*
G36*
X17210Y24481D2*
X17563Y24834D1*
X18836Y23562D1*
X18482Y23208D1*
X17210Y24481D1*
G37*
G36*
X17563Y24834D2*
X17917Y25188D1*
X19190Y23915D1*
X18836Y23562D1*
X17563Y24834D1*
G37*
D57*
X3797Y5899D3*
X6097D3*
X8397D3*
D55*
X6097Y11699D3*
M02*
