%TF.GenerationSoftware,Novarm,DipTrace Beta,2.9.0.1*%
%TF.CreationDate,2015-11-14T18:18:54-04:00*%
%FSLAX35Y35*%
%MOMM*%
%TF.FileFunction,Copper,L2,Bot*%
%TF.Part,Single*%
%TA.AperFunction,Conductor,NotC*%
%ADD14C,0.4064*%
%ADD15C,0.3556*%
%ADD16C,0.254*%
%ADD17C,0.4*%
%TA.AperFunction,CopperBalancing*%
%ADD18C,0.635*%
%TA.AperFunction,SMDPad,CuDef*%
%ADD21R,1.5X1.3*%
%ADD23R,1.3X1.5*%
%ADD24R,1.1X1.0*%
%TA.AperFunction,ComponentPad*%
%ADD25R,1.7X1.7*%
%ADD26C,1.7*%
%ADD27R,1.0X1.0*%
%ADD28C,1.0*%
%ADD30O,0.9X1.6*%
%TA.AperFunction,SMDPad,CuDef*%
%ADD35R,1.05X0.65*%
%ADD41R,0.4X0.9*%
%ADD42R,1.2X0.6*%
%TA.AperFunction,ViaPad*%
%ADD43C,1.016*%
%TA.AperFunction,CopperBalancing*%
%ADD102C,0.3556*%
G75*
G01*
%LPD*%
X1882034Y3571991D2*
D14*
X1792594D1*
X1697104Y3667481D1*
Y3875014D1*
X1907177Y4085087D1*
X2044091Y4327071D2*
Y4222001D1*
X1907177Y4085087D1*
X1347617Y6294777D2*
Y4224501D1*
X1697104Y3875014D1*
X2526374Y2695201D2*
Y2792771D1*
X2376137Y2943007D1*
X1882034Y3571991D2*
X1942241D1*
X2030841Y3483391D1*
X2217407D1*
X2558564Y3142234D1*
X2848797D1*
X2526374Y2695201D2*
X2708387D1*
X2711371Y2692217D1*
X1893584Y2798067D2*
Y2792691D1*
X1758881Y2927394D1*
Y3344374D1*
X1882034Y3467527D1*
Y3571991D1*
X2848797Y3142234D2*
Y2917984D1*
X2729184Y2798371D1*
Y2710031D1*
X2711371Y2692217D1*
X2409851Y3812697D2*
Y3989994D1*
X2501424Y4081567D1*
X2409851Y3812697D2*
Y3485037D1*
X1882034Y3761991D2*
X1956984D1*
X2006844Y3811851D1*
X2409004D1*
X2409851Y3812697D1*
X2329421Y3569961D2*
Y3565467D1*
X2409851Y3485037D1*
X1504411Y1546021D2*
D17*
Y1474441D1*
D14*
X1431244Y1401274D1*
X1322344D1*
Y2094037D1*
X1396747Y2168441D1*
Y2330771D1*
X1472671Y2406694D1*
X1478197D1*
X1584061Y2512557D1*
X2519017D1*
X2526374Y2505201D1*
X1322344Y1383804D2*
Y1401274D1*
X2018541Y6651694D2*
X1378901D1*
X1181964Y6454757D1*
Y6109564D1*
X1152401Y6080001D1*
X3342644Y6353477D2*
Y6674077D1*
X2746097Y7270624D1*
X2462431D1*
X2473201Y7259854D1*
Y7146801D1*
X2501424Y4081567D2*
Y4995434D1*
X1832737Y5664121D1*
Y6465891D1*
X2018541Y6651694D1*
X2346201Y7146801D2*
Y7158257D1*
X2239991Y7264467D1*
X1984227D1*
X1897267Y7177507D1*
Y6772967D1*
X2018541Y6651694D1*
X3037847Y1902331D2*
Y2408151D1*
Y2587564D1*
X3080021Y2629737D1*
Y3112431D1*
X2888364Y3304087D1*
X2590801D1*
X2409851Y3485037D1*
X2526374Y2505201D2*
X2708387D1*
X2711371Y2502217D1*
X2902074D1*
X2943781D1*
X3037847Y2408151D1*
X2691424Y4081567D2*
D16*
Y4084824D1*
X2793827D1*
X2886817Y3991834D1*
X2691424Y4081567D2*
Y5114771D1*
X2166347Y5639847D1*
X2139714Y2192224D2*
D14*
Y2121101D1*
X2079561Y2060947D1*
X3262397Y2511034D2*
D15*
X3259654Y2513777D1*
X2656464Y1717597D2*
X3139467D1*
X3240411Y1818541D1*
Y2494534D1*
X3259654Y2513777D1*
X2975154Y3076051D2*
Y2916197D1*
X2894651Y2835694D1*
Y2699641D1*
X2902074Y2692217D1*
X1504411Y1766021D2*
Y1922327D1*
X1471087Y1955651D1*
X1849561Y1965947D2*
X1671384D1*
X1661087Y1955651D1*
Y2320621D1*
X1661321Y2320854D1*
X3107894Y3221634D2*
D16*
Y3320001D1*
X3208117Y3420224D1*
Y5447584D1*
X3065204Y5590497D1*
Y6427797D1*
X2473201Y7019801D1*
X3228461Y3287664D2*
X3270954Y3330157D1*
Y5461474D1*
X3120721Y5611707D1*
Y6482677D1*
X2594391Y7009007D1*
Y7013991D1*
X2600201Y7019801D1*
X1569411Y1546021D2*
D15*
Y1453744D1*
X1616911Y1406244D1*
X1766191D1*
X1829714Y1469767D1*
Y1584211D1*
X1838191Y1592687D1*
X3337721Y2915411D2*
D16*
Y2889454D1*
X1861374Y1615871D2*
D15*
X1838191Y1592687D1*
X3259654Y2703777D2*
D16*
Y2837344D1*
X3337721Y2915411D1*
X1838191Y1592687D2*
X1871377D1*
X2176724Y1287341D1*
X2483367D1*
X2594627Y1398601D1*
X3264421D1*
X3437967Y1572147D1*
Y2145031D1*
X3380607Y2202391D1*
Y2648187D1*
X3338711Y2690084D1*
X3273347D1*
X3259654Y2703777D1*
X1634411Y1766021D2*
D17*
X1674731D1*
D14*
X1821524D1*
X1838191Y1782687D1*
X1849561Y2155947D2*
X1887371D1*
X1968887Y2074431D1*
Y1839424D1*
X1919924Y1790461D1*
X1845964D1*
X1838191Y1782687D1*
X1849561Y2155947D2*
Y2319094D1*
X1851321Y2320854D1*
X2037031Y2300487D2*
X1871687D1*
X1851321Y2320854D1*
X1838191Y1782687D2*
X1916407D1*
X1870774Y1162804D2*
Y1251551D1*
X1912154Y1292931D1*
X2056437D1*
X2125967Y1223401D1*
X2517974D1*
X2621737Y1327164D1*
X3294287D1*
X3517194Y1550071D1*
Y2247194D1*
X3540001Y2270001D1*
X2579851Y3485037D2*
D15*
Y3489017D1*
X2691611Y3600777D1*
X2579851Y3485037D2*
D16*
X2832677D1*
X2914224Y3566584D1*
X2579851Y3812697D2*
D15*
Y3802537D1*
X2691611Y3690777D1*
X2579851Y3812697D2*
D16*
X2897037D1*
X2966487Y3743247D1*
X3334461Y3060471D2*
Y3128511D1*
X3385851Y3179901D1*
Y5626864D1*
X3268271Y5744444D1*
X3010971Y5487144D2*
Y6404744D1*
X2506351Y6909364D1*
X2198967D1*
X2092201Y7016131D1*
Y7019801D1*
X3231781Y3148987D2*
X3328104Y3245311D1*
Y5496481D1*
X3179091Y5645494D1*
Y5839357D1*
X3232591Y5892857D1*
Y5888404D1*
D43*
X1907177Y4085087D3*
X2044091Y4327071D3*
X1347617Y6294777D3*
X2376137Y2943007D3*
X2848797Y3142234D3*
X1893584Y2798067D3*
X2329421Y3569961D3*
X1472671Y2406694D3*
X1322344Y1383804D3*
X2018541Y6651694D3*
X3342644Y6353477D3*
X2018541Y6651694D3*
D3*
X3037847Y1902331D3*
X2886817Y3991834D3*
X2166347Y5639847D3*
X2139714Y2192224D3*
X2656464Y1717597D3*
X2975154Y3076051D3*
X3107894Y3221634D3*
X3228461Y3287664D3*
X3337721Y2915411D3*
D3*
X2037031Y2300487D3*
X1870774Y1162804D3*
X2914224Y3566584D3*
X2966487Y3743247D3*
X3334461Y3060471D3*
X3268271Y5744444D3*
X3010971Y5487144D3*
X3231781Y3148987D3*
X3232591Y5888404D3*
X1104637Y7189044D2*
D18*
X1957124D1*
X2353801D2*
X2459171D1*
X1104637Y7125877D2*
X1952164D1*
X1104637Y7062711D2*
X1958117D1*
X1104637Y6999544D2*
X1952164D1*
X1104637Y6936377D2*
X1979944D1*
X1104637Y6873211D2*
X2090077D1*
X1104637Y6810044D2*
X2461154D1*
X1104637Y6746877D2*
X2524654D1*
X1104637Y6683711D2*
X2587164D1*
X1104637Y6620544D2*
X2650664D1*
X1104637Y6557377D2*
X2714164D1*
X1104637Y6494211D2*
X2776671D1*
X1104637Y6431044D2*
X2840171D1*
X1104637Y6367877D2*
X1226874D1*
X1468771D2*
X2903671D1*
X1104637Y6304711D2*
X1206037D1*
X1489604D2*
X2906647D1*
X1104637Y6241544D2*
X1215961D1*
X1478691D2*
X2906647D1*
X1104637Y6178377D2*
X1235804D1*
X1459841D2*
X2906647D1*
X1104637Y6115211D2*
X1235804D1*
X1459841D2*
X2906647D1*
X1104637Y6052044D2*
X1235804D1*
X1459841D2*
X2906647D1*
X1459841Y5988877D2*
X2906647D1*
X1459841Y5925711D2*
X2906647D1*
X1459841Y5862544D2*
X2906647D1*
X1459841Y5799377D2*
X2906647D1*
X1459841Y5736211D2*
X2064281D1*
X2268474D2*
X2906647D1*
X1459841Y5673044D2*
X2028561D1*
X2304191D2*
X2906647D1*
X1459841Y5609877D2*
X2027571D1*
X2340901D2*
X2906647D1*
X1459841Y5546711D2*
X2061304D1*
X2404401D2*
X2882834D1*
X1459841Y5483544D2*
X2178381D1*
X2466911D2*
X2868944D1*
X1459841Y5420377D2*
X2240891D1*
X2530411D2*
X2885811D1*
X1459841Y5357211D2*
X2304391D1*
X2593911D2*
X2965187D1*
X3057261D2*
X3104094D1*
X1459841Y5294044D2*
X2367891D1*
X2656417D2*
X3104094D1*
X1459841Y5230877D2*
X2430397D1*
X2719917D2*
X3104094D1*
X1459841Y5167711D2*
X2493897D1*
X2780441D2*
X3104094D1*
X1459841Y5104544D2*
X2557397D1*
X2795324D2*
X3104094D1*
X1459841Y5041377D2*
X2587164D1*
X2795324D2*
X3104094D1*
X1459841Y4978211D2*
X2587164D1*
X2795324D2*
X3104094D1*
X1459841Y4915044D2*
X2587164D1*
X2795324D2*
X3104094D1*
X1459841Y4851877D2*
X2587164D1*
X2795324D2*
X3104094D1*
X1459841Y4788711D2*
X2587164D1*
X2795324D2*
X3104094D1*
X1459841Y4725544D2*
X2587164D1*
X2795324D2*
X3104094D1*
X1459841Y4662377D2*
X2587164D1*
X2795324D2*
X3104094D1*
X1459841Y4599211D2*
X2587164D1*
X2795324D2*
X3104094D1*
X1459841Y4536044D2*
X2587164D1*
X2795324D2*
X3104094D1*
X1459841Y4472877D2*
X2587164D1*
X2795324D2*
X3104094D1*
X1459841Y4409711D2*
X1930334D1*
X2158341D2*
X2587164D1*
X2795324D2*
X3104094D1*
X1459841Y4346544D2*
X1903547D1*
X2185127D2*
X2587164D1*
X2795324D2*
X3104094D1*
X1459841Y4283377D2*
X1909501D1*
X2179177D2*
X2587164D1*
X2795324D2*
X3104094D1*
X1507464Y4220211D2*
X1871797D1*
X2155364D2*
X2345071D1*
X2847911D2*
X3104094D1*
X1570964Y4157044D2*
X1786467D1*
X2133534D2*
X2345071D1*
X2865771D2*
X3104094D1*
X1633474Y4093877D2*
X1760671D1*
X2071027D2*
X2345071D1*
X2982847D2*
X3104094D1*
X1327877Y4030711D2*
X1385624D1*
X2039277D2*
X2345071D1*
X3023527D2*
X3104094D1*
X1309027Y3967544D2*
X1449124D1*
X1979747D2*
X2345071D1*
X3026504D2*
X3104094D1*
X1288191Y3904377D2*
X1512624D1*
X2048207D2*
X2263711D1*
X2996737D2*
X3104094D1*
X1321927Y3841211D2*
X1575131D1*
X2048207D2*
X2263711D1*
X3067184D2*
X3104094D1*
X1327877Y3778044D2*
X1585054D1*
X2212911D2*
X2263711D1*
X1309027Y3714877D2*
X1585054D1*
X2212911D2*
X2263711D1*
X1287201Y3651711D2*
X1586047D1*
X2212911D2*
X2540531D1*
X1321927Y3588544D2*
X1620774D1*
X2230771D2*
X2263934D1*
X3054284D2*
X3104094D1*
X1327877Y3525377D2*
X1684274D1*
X3050317D2*
X3104094D1*
X1310021Y3462211D2*
X1716024D1*
X3007651D2*
X3104094D1*
X1286207Y3399044D2*
X1662444D1*
X2885614D2*
X3042577D1*
X1320934Y3335877D2*
X1647561D1*
X1905331D2*
X2209141D1*
X2520487D2*
X3004874D1*
X1327877Y3272711D2*
X1647561D1*
X1870604D2*
X2272641D1*
X2583987D2*
X2768734D1*
X2910417D2*
X2976101D1*
X1311011Y3209544D2*
X1647561D1*
X1870604D2*
X2336141D1*
X1284224Y3146377D2*
X1647561D1*
X1870604D2*
X2398647D1*
X1320934Y3083211D2*
X1647561D1*
X1870604D2*
X2462147D1*
X1328871Y3020044D2*
X1647561D1*
X1870604D2*
X2257757D1*
X2494691D2*
X2727061D1*
X3104887D2*
X3182477D1*
X1311011Y2956877D2*
X1647561D1*
X1884497D2*
X2234937D1*
X2517511D2*
X2727061D1*
X3084051D2*
X3202321D1*
X1283231Y2893711D2*
X1652524D1*
X1996614D2*
X2242874D1*
X2581011D2*
X2669514D1*
X3082067D2*
X3173547D1*
X1320934Y2830544D2*
X1700147D1*
X2032331D2*
X2293477D1*
X1328871Y2767377D2*
X1754717D1*
X2032331D2*
X2359951D1*
X1312004Y2704211D2*
X1789444D1*
X1998597D2*
X2359951D1*
X1282237Y2641044D2*
X2359951D1*
X1319941Y2577877D2*
X2359951D1*
X1328871Y2514711D2*
X2359951D1*
X1312997Y2451544D2*
X1504687D1*
X2007527D2*
X2359951D1*
X1328871Y2388377D2*
X1504687D1*
X2147427D2*
X2359951D1*
X1328871Y2325211D2*
X1504687D1*
X2177191D2*
X3130881D1*
X1328871Y2262044D2*
X1504687D1*
X2262521D2*
X3130881D1*
X1328871Y2198877D2*
X1504687D1*
X2281371D2*
X3130881D1*
X1328871Y2135711D2*
X1552311D1*
X2269464D2*
X3130881D1*
X1104637Y2072544D2*
X1314187D1*
X2239701D2*
X3130881D1*
X1104637Y2009377D2*
X1314187D1*
X2223824D2*
X3130881D1*
X1104637Y1946211D2*
X1314187D1*
X2223824D2*
X3130881D1*
X1104637Y1883044D2*
X1314187D1*
X2080951D2*
X3130881D1*
X1104637Y1819877D2*
X1314187D1*
X2078964D2*
X2560374D1*
X1104637Y1756711D2*
X1392571D1*
X2041261D2*
X2519694D1*
X1104637Y1693544D2*
X1392571D1*
X2004551D2*
X2516717D1*
X3267604D2*
X3334281D1*
X1104637Y1630377D2*
X1392571D1*
X2004551D2*
X2545491D1*
X3200137D2*
X3334281D1*
X1104637Y1567211D2*
X1392571D1*
X2041261D2*
X3288641D1*
X1104637Y1504044D2*
X1392571D1*
X2104761D2*
X3225141D1*
X1104637Y1440877D2*
X1392571D1*
X2168261D2*
X2491914D1*
X1104637Y1377711D2*
X1493774D1*
X1104637Y1314544D2*
X1564217D1*
X1104637Y1251377D2*
X1758687D1*
X1104637Y1188211D2*
X1730904D1*
X1104637Y1125044D2*
X1733881D1*
X1721944Y3456627D2*
Y3494331D1*
X1622567Y3592944D1*
X1603811Y3618414D1*
X1592577Y3653864D1*
X1591694Y3794481D1*
Y3831191D1*
X1308961Y4114084D1*
X1321201Y4068904D1*
X1322491Y4048001D1*
X1319537Y4016434D1*
X1310774Y3985964D1*
X1296511Y3957651D1*
X1277241Y3932477D1*
X1264697Y3921234D1*
X1284314Y3901377D1*
X1301951Y3875031D1*
X1314391Y3845867D1*
X1321201Y3814904D1*
X1322491Y3794001D1*
X1319537Y3762434D1*
X1310774Y3731964D1*
X1296511Y3703651D1*
X1277241Y3678477D1*
X1264697Y3667234D1*
X1284314Y3647377D1*
X1301951Y3621031D1*
X1314391Y3591867D1*
X1321201Y3560904D1*
X1322491Y3540001D1*
X1319537Y3508434D1*
X1310774Y3477964D1*
X1296511Y3449651D1*
X1277241Y3424477D1*
X1264697Y3413234D1*
X1284314Y3393377D1*
X1301951Y3367031D1*
X1314391Y3337867D1*
X1321201Y3306904D1*
X1322491Y3286001D1*
X1319537Y3254434D1*
X1310774Y3223964D1*
X1296511Y3195651D1*
X1277241Y3170477D1*
X1264697Y3159234D1*
X1284314Y3139377D1*
X1301951Y3113031D1*
X1314391Y3083867D1*
X1321201Y3052904D1*
X1322491Y3032001D1*
X1319537Y3000434D1*
X1310774Y2969964D1*
X1296511Y2941651D1*
X1277241Y2916477D1*
X1264697Y2905234D1*
X1284314Y2885377D1*
X1301951Y2859031D1*
X1314391Y2829867D1*
X1321201Y2798904D1*
X1322491Y2778001D1*
X1319537Y2746434D1*
X1310774Y2715964D1*
X1296511Y2687651D1*
X1277241Y2662477D1*
X1264697Y2651234D1*
X1284314Y2631377D1*
X1301951Y2605031D1*
X1314391Y2575867D1*
X1321201Y2544904D1*
X1322491Y2524001D1*
X1319537Y2492434D1*
X1310774Y2461964D1*
X1299631Y2439844D1*
X1322491Y2440091D1*
Y2116211D1*
X1558131Y2115741D1*
X1557411Y2160764D1*
X1511231D1*
Y2480944D1*
X2001411D1*
Y2432327D1*
X2031664Y2436271D1*
X2063247Y2433824D1*
X2093407Y2424131D1*
X2120501Y2407721D1*
X2143061Y2385481D1*
X2159857Y2358621D1*
X2170441Y2324211D1*
X2196091Y2315867D1*
X2223184Y2299457D1*
X2245744Y2277217D1*
X2262541Y2250357D1*
X2272664Y2220341D1*
X2275604Y2192224D1*
X2271911Y2160761D1*
X2261034Y2131011D1*
X2244114Y2105411D1*
X2240377Y2089827D1*
X2222974Y2056497D1*
X2217151Y2019787D1*
Y1943357D1*
X2075267D1*
X2074297Y1839424D1*
X2069551Y1808151D1*
X2052427Y1775141D1*
X2006241Y1727704D1*
X1998281Y1711027D1*
Y1604864D1*
X2217651Y1384711D1*
X2443624Y1385131D1*
X2525481Y1467747D1*
X2551151Y1486194D1*
X2582351Y1495461D1*
X2626377Y1496391D1*
X3224667D1*
X3340501Y1612977D1*
X3340177Y1793404D1*
X3323607Y1758287D1*
X3290701Y1723351D1*
X3212207Y1644857D1*
X3186674Y1626197D1*
X3155691Y1616164D1*
X3107717Y1614727D1*
X2745567D1*
X2709704Y1592571D1*
X2679311Y1583641D1*
X2647674Y1581991D1*
X2616517Y1587711D1*
X2587531Y1600487D1*
X2562291Y1619631D1*
X2542167Y1644094D1*
X2528257Y1672554D1*
X2521311Y1703461D1*
X2521711Y1735137D1*
X2529434Y1765861D1*
X2544057Y1793957D1*
X2564791Y1817907D1*
X2590507Y1836407D1*
X2619807Y1848451D1*
X2651097Y1853381D1*
X2682681Y1850934D1*
X2712841Y1841241D1*
X2744871Y1819964D1*
X3096004Y1820467D1*
X3137587Y1861197D1*
X3137541Y2363251D1*
X3099564Y2363687D1*
X3100557Y2663867D1*
X3099564Y2807687D1*
Y2853867D1*
X3164057D1*
X3164694Y2860704D1*
X3177107Y2889774D1*
X3202434Y2918417D1*
X3202967Y2932951D1*
X3210691Y2963674D1*
X3221201Y2983871D1*
X3206037Y3016394D1*
X3191834Y3019101D1*
X3162847Y3031877D1*
X3137607Y3051021D1*
X3117484Y3075484D1*
X3112704Y3085267D1*
X3107351Y3044587D1*
X3096474Y3014837D1*
X3078284Y2987734D1*
X3078024Y2916197D1*
X3073164Y2884951D1*
X3058351Y2855944D1*
X3046587Y2842307D1*
X3062164D1*
Y2352127D1*
X2551281D1*
Y2355104D1*
X2366284Y2355111D1*
Y2804071D1*
X2336191Y2813121D1*
X2307204Y2825897D1*
X2281964Y2845041D1*
X2261841Y2869504D1*
X2247931Y2897964D1*
X2240984Y2928871D1*
X2241384Y2960547D1*
X2249107Y2991271D1*
X2263731Y3019367D1*
X2284464Y3043317D1*
X2310181Y3061817D1*
X2339481Y3073861D1*
X2370771Y3078791D1*
X2402354Y3076344D1*
X2432514Y3066651D1*
X2459607Y3050241D1*
X2482167Y3028001D1*
X2498964Y3001141D1*
X2509087Y2971124D1*
X2510464Y2957944D1*
X2605327Y2862394D1*
X2620284Y2845291D1*
X2635167D1*
X2645644Y2862654D1*
X2733927Y2952187D1*
X2733874Y3048371D1*
X2547707Y3047681D1*
X2516434Y3052427D1*
X2483424Y3069551D1*
X2383367Y3168357D1*
X2173594Y3378131D1*
X2030841Y3377981D1*
X1999567Y3382727D1*
X1966237Y3400131D1*
X1934121Y3370541D1*
X1864664Y3301084D1*
X1864291Y2970321D1*
X1901471Y2933877D1*
X1919801Y2931404D1*
X1949961Y2921711D1*
X1977054Y2905301D1*
X1999614Y2883061D1*
X2016411Y2856201D1*
X2026534Y2826184D1*
X2029474Y2798067D1*
X2025781Y2766604D1*
X2014904Y2736854D1*
X1997437Y2710427D1*
X1974324Y2688764D1*
X1946824Y2673041D1*
X1916431Y2664111D1*
X1884794Y2662461D1*
X1853637Y2668181D1*
X1824651Y2680957D1*
X1799411Y2700101D1*
X1779287Y2724564D1*
X1765377Y2753024D1*
X1759951Y2777171D1*
X1684344Y2852857D1*
X1665587Y2878327D1*
X1655197Y2909201D1*
X1653471Y2959144D1*
Y3344374D1*
X1658217Y3375647D1*
X1675341Y3408657D1*
X1721527Y3456094D1*
X1883274Y3912081D2*
X2042124D1*
X2043521Y3805867D1*
X2206701D1*
Y3588577D1*
X2248681Y3584054D1*
X2254877Y3581764D1*
X2269761Y3584897D1*
Y3620127D1*
X2545924D1*
X2546521Y3677181D1*
X2289591Y3677607D1*
X2269761D1*
Y3947787D1*
X2351321D1*
X2351334Y4241657D1*
X2593921D1*
X2593634Y5074747D1*
X2164144Y5503757D1*
X2126401Y5509961D1*
X2097414Y5522737D1*
X2072174Y5541881D1*
X2052051Y5566344D1*
X2038141Y5594804D1*
X2031194Y5625711D1*
X2031594Y5657387D1*
X2039317Y5688111D1*
X2053941Y5716207D1*
X2074674Y5740157D1*
X2100391Y5758657D1*
X2129691Y5770701D1*
X2160981Y5775631D1*
X2192564Y5773184D1*
X2222724Y5763491D1*
X2249817Y5747081D1*
X2272377Y5724841D1*
X2289174Y5697981D1*
X2299297Y5667964D1*
X2302847Y5641644D1*
X2760571Y5183917D1*
X2779017Y5158247D1*
X2788284Y5127047D1*
X2789214Y5083021D1*
Y4242637D1*
X2841514Y4241657D1*
Y4169227D1*
X2862974Y4153971D1*
X2888934Y4128014D1*
X2913034Y4125174D1*
X2943191Y4115481D1*
X2970287Y4099067D1*
X2992847Y4076827D1*
X3009644Y4049971D1*
X3019764Y4019954D1*
X3022707Y3991834D1*
X3019014Y3960374D1*
X3008137Y3930621D1*
X2990667Y3904197D1*
X2966697Y3882041D1*
X3022864Y3866891D1*
X3049957Y3850481D1*
X3072517Y3828241D1*
X3089314Y3801381D1*
X3099437Y3771364D1*
X3102377Y3743247D1*
X3098684Y3711784D1*
X3087807Y3682034D1*
X3070341Y3655607D1*
X3047227Y3633944D1*
X3036054Y3627557D1*
X3047174Y3594701D1*
X3050114Y3566584D1*
X3046421Y3535121D1*
X3035544Y3505371D1*
X3018077Y3478944D1*
X2994964Y3457281D1*
X2967464Y3441557D1*
X2937071Y3432627D1*
X2916021Y3430084D1*
X2901824Y3415891D1*
X2876154Y3397444D1*
X2844954Y3388177D1*
X2800927Y3387247D1*
X2720561D1*
X2719941Y3349947D1*
X2499737D1*
X2591521Y3258351D1*
X2753091Y3258501D1*
X2773327Y3271901D1*
X2802627Y3283944D1*
X2833917Y3288874D1*
X2865501Y3286427D1*
X2895661Y3276734D1*
X2922754Y3260324D1*
X2945314Y3238084D1*
X2961587Y3212064D1*
X2972751Y3211604D1*
X2973141Y3239174D1*
X2980864Y3269897D1*
X2995487Y3297994D1*
X3010104Y3316884D1*
X3015214Y3351197D1*
X3030724Y3379811D1*
X3061197Y3411601D1*
X3111007Y3461411D1*
X3110327Y3832974D1*
Y5393684D1*
X3091711Y5377841D1*
X3064211Y5362117D1*
X3033817Y5353187D1*
X3002181Y5351537D1*
X2971024Y5357257D1*
X2942037Y5370034D1*
X2916797Y5389177D1*
X2896674Y5413641D1*
X2882764Y5442101D1*
X2875817Y5473007D1*
X2876217Y5504684D1*
X2883941Y5535407D1*
X2898564Y5563504D1*
X2913181Y5582394D1*
Y6365231D1*
X2672414Y6605004D1*
X2465447Y6811971D1*
X2198967Y6811574D1*
X2167771Y6816684D1*
X2139157Y6832194D1*
X2107367Y6862667D1*
X2085621Y6884414D1*
X2051064Y6891127D1*
X2022231Y6904244D1*
X1997244Y6923714D1*
X1977477Y6948471D1*
X1964021Y6977144D1*
X1957614Y7008167D1*
X1958604Y7039827D1*
X1966941Y7070391D1*
X1973124Y7081674D1*
X1964021Y7104144D1*
X1957614Y7135167D1*
X1958604Y7166827D1*
X1966941Y7197391D1*
X1982164Y7225167D1*
X2009161Y7252547D1*
X1097274Y7252211D1*
X1097791Y6236211D1*
Y5987171D1*
X1144624Y5995914D1*
X1176291Y5994404D1*
X1207131Y5987044D1*
X1241761Y5970131D1*
X1242207Y6209867D1*
X1233321Y6221274D1*
X1219411Y6249734D1*
X1212464Y6280641D1*
X1212864Y6312317D1*
X1220587Y6343041D1*
X1235211Y6371137D1*
X1255944Y6395087D1*
X1281661Y6413587D1*
X1310961Y6425631D1*
X1342251Y6430561D1*
X1373834Y6428114D1*
X1403994Y6418421D1*
X1431087Y6402011D1*
X1453647Y6379771D1*
X1470444Y6352911D1*
X1480567Y6322894D1*
X1483507Y6294777D1*
X1479814Y6263314D1*
X1468937Y6233564D1*
X1453107Y6209614D1*
X1453027Y4267737D1*
X1696474Y4024717D1*
X1774811Y4101794D1*
X1783104Y4136307D1*
X1797727Y4164404D1*
X1818461Y4188354D1*
X1844177Y4206854D1*
X1873477Y4218897D1*
X1895967Y4222441D1*
X1928907Y4255891D1*
X1915884Y4282027D1*
X1908937Y4312934D1*
X1909337Y4344611D1*
X1917061Y4375334D1*
X1931684Y4403431D1*
X1952417Y4427381D1*
X1978134Y4445881D1*
X2007434Y4457924D1*
X2038724Y4462854D1*
X2070307Y4460407D1*
X2100467Y4450714D1*
X2127561Y4434304D1*
X2150121Y4412064D1*
X2166917Y4385204D1*
X2177041Y4355187D1*
X2179981Y4327071D1*
X2176287Y4295607D1*
X2165411Y4265857D1*
X2149581Y4241907D1*
X2149501Y4222001D1*
X2144754Y4190727D1*
X2127631Y4157717D1*
X2044961Y4073797D1*
X2042331Y4056581D1*
X2031454Y4026831D1*
X2013987Y4000404D1*
X1990874Y3978741D1*
X1963374Y3963017D1*
X1932981Y3954087D1*
X1924084Y3953624D1*
X1882941Y3911777D1*
X1321501Y2099911D2*
X1097264D1*
X1097791Y1314961D1*
Y1097671D1*
X1751641Y1097791D1*
X1742567Y1117761D1*
X1735621Y1148667D1*
X1736021Y1180344D1*
X1743744Y1211067D1*
X1758367Y1239164D1*
X1765497Y1247397D1*
X1770541Y1283711D1*
X1772401Y1289021D1*
X1771864Y1303531D1*
X1616911Y1303374D1*
X1585664Y1308234D1*
X1556657Y1323047D1*
X1521721Y1355954D1*
X1488447Y1390524D1*
X1469801Y1415931D1*
X1399321D1*
X1398927Y1795561D1*
X1320997D1*
Y2100161D1*
X2465111Y7155577D2*
Y7252811D1*
X2303774Y7252211D1*
X2327354Y7227747D1*
X2343231Y7200334D1*
X2352287Y7169981D1*
X2353601Y7154767D1*
X2376104Y7151541D1*
X2410594Y7139507D1*
X2440191Y7150797D1*
X2464734Y7153987D1*
X2711371Y2502217D2*
D102*
Y2352251D1*
X2526374Y2505201D2*
Y2355234D1*
X2366407Y2505201D2*
X2526374D1*
X2902074Y2502217D2*
Y2352251D1*
Y2502217D2*
X3062041D1*
X1882034Y3911957D2*
Y3761991D1*
X2501424Y4241534D2*
Y4081567D1*
X2351457D2*
X2501424D1*
X2409851Y3620004D2*
Y3485037D1*
Y3812697D2*
Y3677731D1*
X2269884Y3812697D2*
X2409851D1*
X1399444Y1546021D2*
X1504411D1*
D21*
X2711371Y2692217D3*
Y2502217D3*
X2526374Y2695201D3*
Y2505201D3*
X2902074Y2692217D3*
Y2502217D3*
X1882034Y3571991D3*
Y3761991D3*
D23*
X2691424Y4081567D3*
X2501424D3*
D24*
X2579851Y3485037D3*
X2409851D3*
X2579851Y3812697D3*
X2409851D3*
D25*
X1152401Y2270001D3*
D26*
Y2524001D3*
Y2778001D3*
Y3032001D3*
Y3286001D3*
Y3540001D3*
Y3794001D3*
Y4048001D3*
Y4302001D3*
Y4556001D3*
Y4810001D3*
Y5064001D3*
Y5318001D3*
Y5572001D3*
Y5826001D3*
Y6080001D3*
D27*
X2600201Y7146801D3*
D28*
X2473201D3*
X2346201D3*
X2219201D3*
X2092201D3*
X2600201Y7019801D3*
X2473201D3*
X2346201D3*
X2219201D3*
X2092201D3*
D25*
X3540001Y6080001D3*
D26*
Y5826001D3*
Y5572001D3*
Y5318001D3*
Y5064001D3*
Y4810001D3*
Y4556001D3*
Y4302001D3*
Y4048001D3*
Y3794001D3*
Y3540001D3*
Y3286001D3*
Y3032001D3*
Y2778001D3*
Y2524001D3*
Y2270001D3*
D30*
X2016201Y1152401D3*
X2676201D3*
D35*
X1849561Y1965947D3*
Y2155947D3*
X2079561Y2060947D3*
D21*
X3259654Y2513777D3*
Y2703777D3*
X1838191Y1782687D3*
Y1592687D3*
D23*
X1851321Y2320854D3*
X1661321D3*
X1471087Y1955651D3*
X1661087D3*
D41*
X1634411Y1546021D3*
X1569411D3*
X1504411D3*
Y1766021D3*
X1634411D3*
D42*
X2691611Y3690777D3*
X2061611D3*
X2691611Y3600777D3*
X2061611D3*
M02*
