%TF.GenerationSoftware,Novarm,DipTrace Beta,2.9.0.1*%
%TF.CreationDate,2015-11-14T18:18:57-04:00*%
%FSLAX35Y35*%
%MOMM*%
%TF.FileFunction,Soldermask,Bot*%
%TF.Part,Single*%
%ADD29R,1.9X1.9*%
%ADD51R,1.4X0.8*%
%ADD53R,0.6X1.1*%
%ADD65R,1.25X0.85*%
%ADD73O,1.1X1.8*%
%ADD76C,1.2*%
%ADD78R,1.2X1.2*%
%ADD80C,1.9*%
%ADD83R,1.3X1.2*%
%ADD85R,1.5X1.7*%
%ADD89R,1.7X1.5*%
G75*
G01*
%LPD*%
D89*
X2711371Y2692217D3*
Y2502217D3*
X2526374Y2695201D3*
Y2505201D3*
X2902074Y2692217D3*
Y2502217D3*
X1882034Y3571991D3*
Y3761991D3*
D85*
X2691424Y4081567D3*
X2501424D3*
D83*
X2579851Y3485037D3*
X2409851D3*
X2579851Y3812697D3*
X2409851D3*
D29*
X1152401Y2270001D3*
D80*
Y2524001D3*
Y2778001D3*
Y3032001D3*
Y3286001D3*
Y3540001D3*
Y3794001D3*
Y4048001D3*
Y4302001D3*
Y4556001D3*
Y4810001D3*
Y5064001D3*
Y5318001D3*
Y5572001D3*
Y5826001D3*
Y6080001D3*
D78*
X2600201Y7146801D3*
D76*
X2473201D3*
X2346201D3*
X2219201D3*
X2092201D3*
X2600201Y7019801D3*
X2473201D3*
X2346201D3*
X2219201D3*
X2092201D3*
D29*
X3540001Y6080001D3*
D80*
Y5826001D3*
Y5572001D3*
Y5318001D3*
Y5064001D3*
Y4810001D3*
Y4556001D3*
Y4302001D3*
Y4048001D3*
Y3794001D3*
Y3540001D3*
Y3286001D3*
Y3032001D3*
Y2778001D3*
Y2524001D3*
Y2270001D3*
D73*
X2016201Y1152401D3*
X2676201D3*
D65*
X1849561Y1965947D3*
Y2155947D3*
X2079561Y2060947D3*
D89*
X3259654Y2513777D3*
Y2703777D3*
X1838191Y1782687D3*
Y1592687D3*
D85*
X1851321Y2320854D3*
X1661321D3*
X1471087Y1955651D3*
X1661087D3*
D53*
X1634411Y1546021D3*
X1569411D3*
X1504411D3*
Y1766021D3*
X1634411D3*
D51*
X2691611Y3690777D3*
X2061611D3*
X2691611Y3600777D3*
X2061611D3*
M02*
