%TF.GenerationSoftware,Novarm,DipTrace Beta,2.9.0.1*%
%TF.CreationDate,2015-11-14T18:19:03-04:00*%
%FSLAX35Y35*%
%MOMM*%
%TF.FileFunction,Drawing,Top*%
%TF.Part,Single*%
%ADD13C,0.035*%
%ADD95C,0.15686*%
G75*
G01*
%LPD*%
X1000001Y1000001D2*
D13*
Y584627D1*
X3692401Y1000001D2*
Y584627D1*
X2346201Y634627D2*
X1100001D1*
G36*
X1000001D2*
X1100001Y654627D1*
Y614627D1*
X1000001Y634627D1*
G37*
X2346201D2*
D13*
X3592401D1*
G36*
X3692401D2*
X3592401Y614627D1*
Y654627D1*
X3692401Y634627D1*
G37*
X1000001Y7350001D2*
D13*
X696001D1*
X1000001Y1000001D2*
X696001D1*
X746001Y4175001D2*
Y7250001D1*
G36*
Y7350001D2*
X766001Y7250001D1*
X726001D1*
X746001Y7350001D1*
G37*
Y4175001D2*
D13*
Y1100001D1*
G36*
Y1000001D2*
X726001Y1100001D1*
X766001D1*
X746001Y1000001D1*
G37*
X2195183Y748189D2*
D95*
X2204953Y753130D1*
X2219553Y767618D1*
Y665643D1*
X2280126Y767618D2*
X2265526Y762789D1*
X2255755Y748189D1*
X2250926Y723930D1*
Y709330D1*
X2255755Y685072D1*
X2265526Y670472D1*
X2280126Y665643D1*
X2289784D1*
X2304384Y670472D1*
X2314043Y685072D1*
X2318984Y709330D1*
Y723930D1*
X2314043Y748189D1*
X2304384Y762789D1*
X2289784Y767618D1*
X2280126D1*
X2314043Y748189D2*
X2255755Y685072D1*
X2408645Y753130D2*
X2403815Y762789D1*
X2389215Y767618D1*
X2379557D1*
X2364957Y762789D1*
X2355186Y748189D1*
X2350357Y723930D1*
Y699672D1*
X2355186Y680243D1*
X2364957Y670472D1*
X2379557Y665643D1*
X2384386D1*
X2398874Y670472D1*
X2408645Y680243D1*
X2413474Y694843D1*
Y699672D1*
X2408645Y714272D1*
X2398874Y723930D1*
X2384386Y728759D1*
X2379557D1*
X2364957Y723930D1*
X2355186Y714272D1*
X2350357Y699672D1*
X2474046Y767618D2*
X2459446Y762789D1*
X2449676Y748189D1*
X2444846Y723930D1*
Y709330D1*
X2449676Y685072D1*
X2459446Y670472D1*
X2474046Y665643D1*
X2483705D1*
X2498305Y670472D1*
X2507963Y685072D1*
X2512905Y709330D1*
Y723930D1*
X2507963Y748189D1*
X2498305Y762789D1*
X2483705Y767618D1*
X2474046D1*
X2507963Y748189D2*
X2449676Y685072D1*
X637268Y4004609D2*
X632439D1*
X622668Y4009439D1*
X617839Y4014268D1*
X613010Y4024039D1*
Y4043468D1*
X617839Y4053126D1*
X622668Y4057956D1*
X632439Y4062897D1*
X642098D1*
X651868Y4057956D1*
X666356Y4048297D1*
X714985Y3999668D1*
Y4067726D1*
X613010Y4157387D2*
Y4108870D1*
X656698Y4104040D1*
X651868Y4108870D1*
X646927Y4123470D1*
Y4137957D1*
X651868Y4152557D1*
X661527Y4162328D1*
X676127Y4167157D1*
X685785D1*
X700385Y4162328D1*
X710156Y4152557D1*
X714985Y4137957D1*
Y4123470D1*
X710156Y4108870D1*
X705214Y4104040D1*
X695556Y4099099D1*
X613010Y4227730D2*
X617839Y4213130D1*
X632439Y4203359D1*
X656698Y4198530D1*
X671298D1*
X695556Y4203359D1*
X710156Y4213130D1*
X714985Y4227730D1*
Y4237388D1*
X710156Y4251988D1*
X695556Y4261647D1*
X671298Y4266588D1*
X656698D1*
X632439Y4261647D1*
X617839Y4251988D1*
X613010Y4237388D1*
Y4227730D1*
X632439Y4261647D2*
X695556Y4203359D1*
X613010Y4327161D2*
X617839Y4312561D1*
X632439Y4302790D1*
X656698Y4297961D1*
X671298D1*
X695556Y4302790D1*
X710156Y4312561D1*
X714985Y4327161D1*
Y4336819D1*
X710156Y4351419D1*
X695556Y4361078D1*
X671298Y4366019D1*
X656698D1*
X632439Y4361078D1*
X617839Y4351419D1*
X613010Y4336819D1*
Y4327161D1*
X632439Y4361078D2*
X695556Y4302790D1*
M02*
