%TF.GenerationSoftware,Novarm,DipTrace Beta,2.9.0.1*%
%TF.CreationDate,2015-11-14T18:18:49-04:00*%
%FSLAX35Y35*%
%MOMM*%
%TF.FileFunction,Soldermask,Top*%
%TF.Part,Single*%
%AMOUTLINE1*
4,1,4,
0.45963,0.81319,
0.81319,0.45963,
-0.45963,-0.81319,
-0.81319,-0.45963,
0.45963,0.81319,
0*%
%AMOUTLINE4*
4,1,4,
-0.81319,0.45963,
-0.45963,0.81319,
0.81319,-0.45963,
0.45963,-0.81319,
-0.81319,0.45963,
0*%
%ADD29R,1.9X1.9*%
%ADD55R,3.45X2.35*%
%ADD57R,1.15X2.35*%
%ADD59R,1.3X0.8*%
%ADD61R,1.8X2.4*%
%ADD63R,0.85X1.25*%
%ADD67R,1.2X1.55*%
%ADD69R,0.6X1.55*%
%ADD71R,1.8X1.6*%
%ADD73O,1.1X1.8*%
%ADD75R,2.1X2.1*%
%ADD76C,1.2*%
%ADD78R,1.2X1.2*%
%ADD80C,1.9*%
%ADD85R,1.5X1.7*%
%ADD87R,1.8X2.8*%
%ADD89R,1.7X1.5*%
%ADD91R,2.8X1.8*%
%ADD97OUTLINE1*%
%ADD100OUTLINE4*%
G75*
G01*
%LPD*%
D91*
X1968861Y2581341D3*
X1608861D3*
D87*
X1823214Y5435147D3*
Y5795147D3*
D89*
X2018541Y6267961D3*
Y6457961D3*
X3129124Y1207551D3*
Y1397551D3*
D85*
X1767547Y1304701D3*
X1577547D3*
D89*
X1137544Y1916554D3*
Y1726554D3*
X1226061Y7001001D3*
Y7191001D3*
X3430781D3*
Y7001001D3*
D29*
X1152401Y2270001D3*
D80*
Y2524001D3*
Y2778001D3*
Y3032001D3*
Y3286001D3*
Y3540001D3*
Y3794001D3*
Y4048001D3*
Y4302001D3*
Y4556001D3*
Y4810001D3*
Y5064001D3*
Y5318001D3*
Y5572001D3*
Y5826001D3*
Y6080001D3*
D78*
X2600201Y7146801D3*
D76*
X2473201D3*
X2346201D3*
X2219201D3*
X2092201D3*
X2600201Y7019801D3*
X2473201D3*
X2346201D3*
X2219201D3*
X2092201D3*
D29*
X3540001Y6080001D3*
D80*
Y5826001D3*
Y5572001D3*
Y5318001D3*
Y5064001D3*
Y4810001D3*
Y4556001D3*
Y4302001D3*
Y4048001D3*
Y3794001D3*
Y3540001D3*
Y3286001D3*
Y3032001D3*
Y2778001D3*
Y2524001D3*
Y2270001D3*
D75*
X2466201Y1152401D3*
X2226201D3*
D73*
X2016201D3*
X2676201D3*
D71*
X2026201Y1397401D3*
X2666201D3*
D69*
X2216201Y1419901D3*
X2281201D3*
X2346201D3*
X2411201D3*
X2476201D3*
D67*
X2376114Y5432807D3*
X2226114D3*
D63*
X3081587Y6286671D3*
X3271587D3*
X3176587Y6516671D3*
D89*
X2699171Y6655761D3*
Y6465761D3*
X2565031Y5686454D3*
Y5496454D3*
X1820421Y6262881D3*
Y6452881D3*
X2925924Y1398051D3*
Y1208051D3*
X1219951Y6582641D3*
Y6772641D3*
X3430781Y6603241D3*
Y6793241D3*
X2983097Y5711247D3*
Y5901247D3*
D85*
X3172274Y6090164D3*
X2982274D3*
D61*
X2346201Y5678681D3*
Y6598681D3*
D97*
X2837636Y3642531D3*
X2802283Y3677887D3*
X2766926Y3713241D3*
X2731573Y3748597D3*
X2696216Y3783954D3*
X2660860Y3819307D3*
X2625506Y3854664D3*
X2590150Y3890017D3*
X2554793Y3925374D3*
X2519440Y3960731D3*
X2484083Y3996084D3*
X2448730Y4031441D3*
D100*
X2243666D3*
X2208313Y3996084D3*
X2172956Y3960731D3*
X2137603Y3925374D3*
X2102246Y3890017D3*
X2066890Y3854664D3*
X2031536Y3819307D3*
X1996180Y3783954D3*
X1960826Y3748597D3*
X1925470Y3713241D3*
X1890113Y3677887D3*
X1854760Y3642531D3*
D97*
Y3437471D3*
X1890113Y3402114D3*
X1925470Y3366761D3*
X1960826Y3331404D3*
X1996180Y3296047D3*
X2031536Y3260694D3*
X2066890Y3225337D3*
X2102246Y3189984D3*
X2137603Y3154627D3*
X2172956Y3119271D3*
X2208313Y3083917D3*
X2243666Y3048561D3*
D100*
X2448730D3*
X2484083Y3083917D3*
X2519440Y3119271D3*
X2554793Y3154627D3*
X2590150Y3189984D3*
X2625506Y3225337D3*
X2660860Y3260694D3*
X2696216Y3296047D3*
X2731573Y3331404D3*
X2766926Y3366761D3*
X2802283Y3402114D3*
X2837636Y3437471D3*
D59*
X2438914Y1740624D3*
Y1835624D3*
Y1930624D3*
X2168914D3*
Y1835624D3*
Y1740624D3*
D57*
X1379701Y1589927D3*
X1609701D3*
X1839701D3*
D55*
X1609701Y2169927D3*
M02*
