%TF.GenerationSoftware,Novarm,DipTrace Beta,2.9.0.1*%
%TF.CreationDate,2015-11-14T18:18:46-04:00*%
%FSLAX35Y35*%
%MOMM*%
%TF.FileFunction,Legend,Top*%
%TF.Part,Single*%
%ADD10C,0.25*%
%ADD12C,0.0762*%
%ADD17C,0.4*%
%ADD19O,1.58731X1.58749*%
%ADD34O,0.39172X0.39127*%
%ADD93C,0.19608*%
%ADD94C,0.22222*%
G75*
G01*
%LPD*%
X2003876Y2796342D2*
D10*
X1573848D1*
Y2366354D1*
X2003876D1*
Y2796342D1*
D19*
X2138122Y2390840D3*
X2038216Y5400131D2*
D10*
X1608227D1*
Y5830160D1*
X2038216D1*
Y5400131D1*
D19*
X1632713Y5265886D3*
X2083491Y6162907D2*
D10*
X1953591D1*
X3194074Y1102497D2*
X3064174D1*
X1872601Y1369651D2*
Y1239751D1*
X1072594Y2021607D2*
X1202494D1*
X1291011Y6906054D2*
X1161111D1*
X3365831Y7285947D2*
X3495731D1*
X1025396Y2143186D2*
X1279401D1*
Y6206815D1*
X1025396D1*
Y2143186D1*
X2978701Y6828301D2*
Y7338301D1*
X1713701D1*
Y6828301D1*
X2978701D1*
X3667005Y6206815D2*
X3413001D1*
Y2143186D1*
X3667005D1*
Y6206815D1*
X1946201Y1007427D2*
X2746261D1*
D34*
X3003231Y6249310D3*
X3026601Y6376670D2*
D10*
X3326587D1*
Y6426671D1*
X3026601D1*
Y6376670D1*
X2171201Y5838633D2*
X2521201D1*
Y6438729D1*
X2171201D1*
Y5838633D1*
X2770568Y3540112D2*
X2346138Y3115677D1*
X1921820Y3539889D1*
X2346250Y3964324D1*
X2770568Y3540112D1*
G36*
D2*
X2713918Y3596644D1*
Y3483469D1*
X2770568Y3540112D1*
G37*
D17*
X2887228Y3593013D3*
D34*
X2481142Y1672263D3*
X2343816Y1685630D2*
D10*
Y1985624D1*
X2263830Y1685630D2*
Y1985624D1*
X2343816D2*
X2263830D1*
X2343816Y1685630D2*
X2263830D1*
D34*
X1282344Y1513233D3*
X1279704Y1739928D2*
D10*
X1939672D1*
X1279704Y2019927D2*
X1939672D1*
Y1739928D2*
Y2019927D1*
X1279704Y1739928D2*
Y2019927D1*
X1884377Y4986681D2*
D12*
D3*
X2021537Y4982871D2*
X2025347D1*
X2459687D2*
X2497787D1*
X1884377Y4979061D2*
X2025347D1*
X2449153D2*
X2510697D1*
X2623517D2*
X2673047D1*
X2756867D2*
X2810207D1*
X2890217D2*
X2943557D1*
X1884377Y4975251D2*
X2025347D1*
X2440453D2*
X2523432D1*
X2626433D2*
X2669237D1*
X2759928D2*
X2808594D1*
X2891831D2*
X2940496D1*
X1884377Y4971441D2*
X2025347D1*
X2433481D2*
X2536907D1*
X2628693D2*
X2665427D1*
X2762157D2*
X2807607D1*
X2892817D2*
X2938268D1*
X1884377Y4967631D2*
X2025347D1*
X2428084D2*
X2551127D1*
X2628521D2*
X2667331D1*
X2763433D2*
X2808397D1*
X2892027D2*
X2936992D1*
X1884377Y4963821D2*
X2025347D1*
X2424189D2*
X2548765D1*
X2627562D2*
X2668929D1*
X2764051D2*
X2809703D1*
X2890721D2*
X2936373D1*
X1884377Y4960011D2*
X2025347D1*
X2421321D2*
X2546592D1*
X2626093D2*
X2670529D1*
X2764319D2*
X2811333D1*
X2889091D2*
X2936105D1*
X1941527Y4956201D2*
X1968197D1*
X2021537D2*
X2025347D1*
X2419009D2*
X2459992D1*
X2500834D2*
X2544551D1*
X2624363D2*
X2672252D1*
X2764426D2*
X2813131D1*
X2887294D2*
X2935999D1*
X1884377Y4952391D2*
D3*
X1941527D2*
X1968197D1*
X2048207D2*
X2086307D1*
X2109167D2*
X2154887D1*
X2215847D2*
X2253947D1*
X2265377D2*
X2314907D1*
X2349197D2*
X2398727D1*
X2417073D2*
X2453513D1*
X2510518D2*
X2542592D1*
X2622529D2*
X2674078D1*
X2764466D2*
X2814991D1*
X2885433D2*
X2935959D1*
X1941527Y4948581D2*
X1968197D1*
X2049966D2*
X2083246D1*
X2112228D2*
X2153288D1*
X2217606D2*
X2250430D1*
X2269187D2*
X2313163D1*
X2352098D2*
X2394204D1*
X2415602D2*
X2448517D1*
X2518636D2*
X2540673D1*
X2620645D2*
X2676065D1*
X2764480D2*
X2816884D1*
X2883540D2*
X2935945D1*
X1941527Y4944771D2*
X1968197D1*
X2051060D2*
X2081018D1*
X2114457D2*
X2152347D1*
X2218700D2*
X2247825D1*
X2272997D2*
X2312218D1*
X2354313D2*
X2390204D1*
X2414724D2*
X2444637D1*
X2524753D2*
X2538862D1*
X2618752D2*
X2678318D1*
X2764485D2*
X2818781D1*
X2881629D2*
X2935940D1*
X1941527Y4940961D2*
X1968197D1*
X2051614D2*
X2079742D1*
X2115733D2*
X2153704D1*
X2219254D2*
X2247030D1*
X2276792D2*
X2311897D1*
X2354093D2*
X2386658D1*
X2414300D2*
X2442934D1*
X2528911D2*
X2537271D1*
X2616862D2*
X2680766D1*
X2764486D2*
X2820687D1*
X2879603D2*
X2935938D1*
X1941527Y4937151D2*
X1968197D1*
X2051859D2*
X2079123D1*
X2116351D2*
X2156073D1*
X2219499D2*
X2246617D1*
X2280468D2*
X2313485D1*
X2352279D2*
X2383157D1*
X2414240D2*
X2442641D1*
X2532077D2*
X2535887D1*
X2615080D2*
X2641964D1*
X2649584D2*
X2683097D1*
X2764487D2*
X2822588D1*
X2877336D2*
X2935937D1*
X1941527Y4933341D2*
X1968197D1*
X2051959D2*
X2078855D1*
X2116619D2*
X2159185D1*
X2219599D2*
X2246437D1*
X2283793D2*
X2315850D1*
X2350172D2*
X2379667D1*
X2414648D2*
X2449036D1*
X2613538D2*
X2640885D1*
X2652315D2*
X2685238D1*
X2764487D2*
X2824496D1*
X2874882D2*
X2935937D1*
X1941527Y4929531D2*
X1968197D1*
X2051997D2*
X2078749D1*
X2116726D2*
X2162694D1*
X2219637D2*
X2246367D1*
X2286690D2*
X2318534D1*
X2347704D2*
X2376436D1*
X2415545D2*
X2460392D1*
X2612183D2*
X2639398D1*
X2654638D2*
X2687259D1*
X2764487D2*
X2826398D1*
X2872549D2*
X2935937D1*
X1941527Y4925721D2*
X1968197D1*
X2052010D2*
X2078709D1*
X2116766D2*
X2166385D1*
X2219650D2*
X2246341D1*
X2289509D2*
X2321169D1*
X2344833D2*
X2373579D1*
X2416660D2*
X2476920D1*
X2610705D2*
X2637684D1*
X2656734D2*
X2689209D1*
X2764487D2*
X2791157D1*
X2799381D2*
X2828306D1*
X2870407D2*
X2897103D1*
X2905457D2*
X2935937D1*
X1941527Y4921911D2*
X1968197D1*
X2052015D2*
X2078695D1*
X2116780D2*
X2170151D1*
X2219655D2*
X2246332D1*
X2292520D2*
X2324037D1*
X2341917D2*
X2370777D1*
X2417955D2*
X2494943D1*
X2609037D2*
X2635853D1*
X2658713D2*
X2691136D1*
X2764487D2*
X2791157D1*
X2800459D2*
X2830223D1*
X2868386D2*
X2895655D1*
X2905457D2*
X2935937D1*
X1941527Y4918101D2*
X1968197D1*
X2052016D2*
X2078690D1*
X2116785D2*
X2173945D1*
X2219656D2*
X2246329D1*
X2295491D2*
X2327727D1*
X2339233D2*
X2367771D1*
X2419869D2*
X2510682D1*
X2607249D2*
X2633980D1*
X2660650D2*
X2693045D1*
X2764487D2*
X2791157D1*
X2801946D2*
X2832250D1*
X2866436D2*
X2893622D1*
X2905457D2*
X2935937D1*
X1941527Y4914291D2*
X1968197D1*
X2052017D2*
X2078688D1*
X2116786D2*
X2177750D1*
X2219657D2*
X2246328D1*
X2298227D2*
X2332451D1*
X2336632D2*
X2364802D1*
X2422703D2*
X2522795D1*
X2605389D2*
X2632098D1*
X2662563D2*
X2694955D1*
X2764487D2*
X2791157D1*
X2803675D2*
X2834519D1*
X2864509D2*
X2891477D1*
X2905457D2*
X2935937D1*
X1941527Y4910481D2*
X1968197D1*
X2052017D2*
X2078687D1*
X2116787D2*
X2181573D1*
X2219657D2*
X2246327D1*
X2300979D2*
X2362067D1*
X2426637D2*
X2531391D1*
X2603506D2*
X2630318D1*
X2664474D2*
X2696858D1*
X2764487D2*
X2791157D1*
X2805625D2*
X2836973D1*
X2862585D2*
X2889412D1*
X2905457D2*
X2935937D1*
X1941527Y4906671D2*
X1968197D1*
X2052017D2*
X2078687D1*
X2116787D2*
X2139647D1*
X2151077D2*
X2185516D1*
X2219657D2*
X2246327D1*
X2303964D2*
X2359316D1*
X2432272D2*
X2537192D1*
X2601605D2*
X2628763D1*
X2666392D2*
X2698766D1*
X2764487D2*
X2791157D1*
X2807865D2*
X2839305D1*
X2860526D2*
X2887420D1*
X2905457D2*
X2935937D1*
X1941527Y4902861D2*
X1968197D1*
X2052017D2*
X2078687D1*
X2116787D2*
X2139647D1*
X2154887D2*
X2189812D1*
X2219657D2*
X2246327D1*
X2306926D2*
X2356330D1*
X2441066D2*
X2541076D1*
X2599705D2*
X2627275D1*
X2668434D2*
X2700668D1*
X2764487D2*
X2791157D1*
X2810308D2*
X2841459D1*
X2857978D2*
X2885465D1*
X2905457D2*
X2935937D1*
X1941527Y4899051D2*
X1968197D1*
X2052017D2*
X2078687D1*
X2116787D2*
X2139647D1*
X2158697D2*
X2194534D1*
X2219657D2*
X2246327D1*
X2309644D2*
X2353383D1*
X2454903D2*
X2543869D1*
X2597798D2*
X2625310D1*
X2670826D2*
X2702576D1*
X2764487D2*
X2791157D1*
X2812637D2*
X2843580D1*
X2854437D2*
X2883423D1*
X2905457D2*
X2935937D1*
X1941527Y4895241D2*
X1968197D1*
X2052017D2*
X2078687D1*
X2116787D2*
X2139647D1*
X2162507D2*
X2199336D1*
X2219642D2*
X2246327D1*
X2312260D2*
X2350799D1*
X2473279D2*
X2546130D1*
X2595896D2*
X2622675D1*
X2673716D2*
X2704478D1*
X2764487D2*
X2791157D1*
X2814778D2*
X2845852D1*
X2849777D2*
X2881149D1*
X2905457D2*
X2935937D1*
X1941527Y4891431D2*
X1968197D1*
X2052017D2*
X2078687D1*
X2116787D2*
X2139647D1*
X2166317D2*
X2203955D1*
X2219497D2*
X2246327D1*
X2314745D2*
X2348668D1*
X2491638D2*
X2548040D1*
X2593988D2*
X2706386D1*
X2764487D2*
X2791157D1*
X2816799D2*
X2878693D1*
X2905457D2*
X2935937D1*
X1941527Y4887621D2*
X1968197D1*
X2052017D2*
X2078687D1*
X2116787D2*
X2139647D1*
X2170127D2*
X2208708D1*
X2218908D2*
X2246327D1*
X2316646D2*
X2347096D1*
X2505365D2*
X2549499D1*
X2592086D2*
X2708288D1*
X2764487D2*
X2791157D1*
X2818749D2*
X2876359D1*
X2905457D2*
X2935937D1*
X1941527Y4883811D2*
X1968197D1*
X2052017D2*
X2078687D1*
X2116787D2*
X2139647D1*
X2173937D2*
X2213989D1*
X2217606D2*
X2246327D1*
X2317767D2*
X2346172D1*
X2515117D2*
X2550373D1*
X2590178D2*
X2710196D1*
X2764487D2*
X2791157D1*
X2820676D2*
X2874217D1*
X2905457D2*
X2935937D1*
X1941527Y4880001D2*
X1968197D1*
X2052017D2*
X2078687D1*
X2116787D2*
X2139647D1*
X2177747D2*
X2246327D1*
X2318321D2*
X2345716D1*
X2518560D2*
X2550795D1*
X2588276D2*
X2712098D1*
X2764487D2*
X2791157D1*
X2822585D2*
X2872196D1*
X2905457D2*
X2935937D1*
X1941527Y4876191D2*
X1968197D1*
X2052017D2*
X2078687D1*
X2116787D2*
X2139647D1*
X2181557D2*
X2246327D1*
X2318563D2*
X2345515D1*
X2425397D2*
X2429207D1*
X2519851D2*
X2550854D1*
X2586368D2*
X2714006D1*
X2764487D2*
X2791157D1*
X2824495D2*
X2870231D1*
X2905457D2*
X2935937D1*
X1941527Y4872381D2*
X1968197D1*
X2052017D2*
X2078687D1*
X2116787D2*
X2139647D1*
X2185367D2*
X2246327D1*
X2318661D2*
X2345434D1*
X2423035D2*
X2431596D1*
X2519819D2*
X2550447D1*
X2584466D2*
X2611484D1*
X2680064D2*
X2715908D1*
X2764487D2*
X2791157D1*
X2826398D2*
X2868185D1*
X2905457D2*
X2935937D1*
X1941527Y4868571D2*
X1968197D1*
X2052017D2*
X2078687D1*
X2116787D2*
X2139647D1*
X2189177D2*
X2246327D1*
X2318697D2*
X2345404D1*
X2420862D2*
X2437093D1*
X2518059D2*
X2549549D1*
X2582558D2*
X2610405D1*
X2682795D2*
X2717816D1*
X2764487D2*
X2791157D1*
X2828306D2*
X2865909D1*
X2905457D2*
X2935937D1*
X1941527Y4864761D2*
X1968197D1*
X2052017D2*
X2078687D1*
X2116787D2*
X2139647D1*
X2192987D2*
X2246327D1*
X2318710D2*
X2345393D1*
X2418836D2*
X2445844D1*
X2513491D2*
X2548434D1*
X2580656D2*
X2608918D1*
X2685118D2*
X2719718D1*
X2764487D2*
X2791157D1*
X2830223D2*
X2863453D1*
X2905457D2*
X2935937D1*
X1941527Y4860951D2*
X1968197D1*
X2052017D2*
X2078687D1*
X2116787D2*
X2139647D1*
X2196797D2*
X2246327D1*
X2318715D2*
X2345389D1*
X2416996D2*
X2460444D1*
X2501358D2*
X2547139D1*
X2578748D2*
X2607204D1*
X2687214D2*
X2721626D1*
X2764487D2*
X2791157D1*
X2832250D2*
X2861119D1*
X2905457D2*
X2935937D1*
X1941512Y4857141D2*
X1968197D1*
X2052017D2*
X2078687D1*
X2116787D2*
X2139647D1*
X2200607D2*
X2246327D1*
X2318716D2*
X2345388D1*
X2415420D2*
X2482572D1*
X2482666D2*
X2545240D1*
X2576846D2*
X2605388D1*
X2689193D2*
X2723528D1*
X2764487D2*
X2791157D1*
X2834519D2*
X2858977D1*
X2905457D2*
X2935937D1*
X1941378Y4853331D2*
X1968212D1*
X2052017D2*
X2078702D1*
X2116772D2*
X2139662D1*
X2204402D2*
X2246327D1*
X2318702D2*
X2345402D1*
X2413965D2*
X2542555D1*
X2574938D2*
X2603649D1*
X2691100D2*
X2725436D1*
X2764472D2*
X2791157D1*
X2836973D2*
X2856956D1*
X2905457D2*
X2935952D1*
X1940878Y4849521D2*
X1968361D1*
X2052002D2*
X2078851D1*
X2116623D2*
X2139811D1*
X2208049D2*
X2246357D1*
X2318553D2*
X2345551D1*
X2412206D2*
X2539270D1*
X2573006D2*
X2602282D1*
X2692730D2*
X2727368D1*
X2764323D2*
X2791187D1*
X2839294D2*
X2854994D1*
X2905427D2*
X2936101D1*
X1939820Y4845711D2*
X1968994D1*
X2051857D2*
X2079484D1*
X2115990D2*
X2140444D1*
X2211080D2*
X2246647D1*
X2317920D2*
X2346184D1*
X2410157D2*
X2413967D1*
X2421762D2*
X2535391D1*
X2570820D2*
X2601356D1*
X2693979D2*
X2729554D1*
X2763690D2*
X2791477D1*
X2841337D2*
X2852968D1*
X2905137D2*
X2936734D1*
X1938244Y4841901D2*
X1970528D1*
X2051268D2*
X2081018D1*
X2114457D2*
X2141978D1*
X2213358D2*
X2247339D1*
X2316387D2*
X2347718D1*
X2430163D2*
X2530266D1*
X2567839D2*
X2601886D1*
X2693344D2*
X2732535D1*
X2762157D2*
X2792169D1*
X2843043D2*
X2850738D1*
X2904445D2*
X2938268D1*
X1936220Y4838091D2*
X1972964D1*
X2049966D2*
X2083454D1*
X2112020D2*
X2144414D1*
X2212986D2*
X2250308D1*
X2313950D2*
X2350154D1*
X2439906D2*
X2522837D1*
X2563647D2*
X2604729D1*
X2690979D2*
X2736727D1*
X2759720D2*
X2795138D1*
X2844497D2*
X2848307D1*
X2901476D2*
X2940704D1*
X1933907Y4834281D2*
X1975817D1*
X2048207D2*
X2086307D1*
X2109167D2*
X2147267D1*
X2212037D2*
X2253947D1*
X2311097D2*
X2353007D1*
X2451265D2*
X2512865D1*
X2558747D2*
X2608277D1*
X2688287D2*
X2741627D1*
X2756867D2*
X2798777D1*
X2897837D2*
X2943557D1*
X2463497Y4830471D2*
X2501597D1*
X2506474Y4763644D2*
X2519174D1*
X2364234Y4761104D2*
X2369314D1*
X2498854D2*
D3*
X2524254D2*
X2526794D1*
X2363857Y4758564D2*
X2368141D1*
X2493774D2*
D3*
X2531874D2*
D3*
X2362577Y4756024D2*
X2367412D1*
X2488694D2*
D3*
X2536954D2*
D3*
X2359788Y4753484D2*
X2367043D1*
X2486154D2*
D3*
X2539484D2*
X2539494D1*
X2356614Y4750944D2*
X2366879D1*
X2483614D2*
D3*
X2541935D2*
X2542034D1*
X2346454Y4748404D2*
X2348994D1*
X2360131D2*
X2366813D1*
X2481074D2*
D3*
X2544141D2*
X2544574D1*
X2362736Y4745864D2*
X2366788D1*
X2545973D2*
X2547114D1*
X2227074Y4743324D2*
X2234694D1*
X2293114D2*
X2295654D1*
X2363531D2*
X2366779D1*
X2475994D2*
X2478534D1*
X2547440D2*
X2547114D1*
X2228649Y4740784D2*
X2234704D1*
X2293114D2*
X2295654D1*
X2363944D2*
X2366775D1*
X2548513D2*
X2549654D1*
X2230097Y4738244D2*
X2234793D1*
X2364124D2*
X2366774D1*
X2473454D2*
X2475994D1*
X2549180D2*
X2549654D1*
X2231458Y4735704D2*
X2235127D1*
X2293114D2*
D3*
X2364194D2*
X2366774D1*
X2549654D2*
X2552194D1*
X2232764Y4733164D2*
X2235824D1*
X2290574D2*
D3*
X2364220D2*
X2366774D1*
X2470914D2*
X2473454D1*
X2234043Y4730624D2*
X2236801D1*
X2290574D2*
D3*
X2364229D2*
X2366774D1*
X2470914D2*
X2473454D1*
X2552194D2*
X2554734D1*
X2235251Y4728084D2*
X2237876D1*
X2288034D2*
D3*
X2364232D2*
X2366774D1*
X2552291D2*
X2554831D1*
X2236311Y4725544D2*
X2238881D1*
X2288034D2*
D3*
X2364233D2*
X2366774D1*
X2468374D2*
X2470914D1*
X2552616D2*
X2555156D1*
X2237234Y4723004D2*
X2239774D1*
X2285494D2*
D3*
X2364234D2*
X2366774D1*
X2468374D2*
X2470914D1*
X2553225D2*
X2555765D1*
X2285494Y4720464D2*
D3*
X2364234D2*
X2366774D1*
X2468374D2*
X2470914D1*
X2553876D2*
X2556416D1*
X2239774Y4717924D2*
X2242314D1*
X2285494D2*
D3*
X2364234D2*
X2366774D1*
X2468374D2*
X2470914D1*
X2554319D2*
X2556859D1*
X2240739Y4715384D2*
X2243279D1*
X2282954D2*
D3*
X2364234D2*
X2366774D1*
X2468374D2*
X2470914D1*
X2554555D2*
X2557095D1*
X2241822Y4712844D2*
X2244362D1*
X2282954D2*
D3*
X2364234D2*
X2366774D1*
X2468384D2*
X2470914D1*
X2554668D2*
X2557208D1*
X2242936Y4710304D2*
X2245476D1*
X2280414D2*
D3*
X2364234D2*
X2366774D1*
X2468473D2*
X2470924D1*
X2554734D2*
X2557274D1*
X2243954Y4707764D2*
X2246494D1*
X2280414D2*
D3*
X2364234D2*
X2366774D1*
X2468797D2*
X2471013D1*
X2244854Y4705224D2*
X2247394D1*
X2364234D2*
X2366774D1*
X2469406D2*
X2471339D1*
X2552194D2*
X2554734D1*
X2277874Y4702684D2*
D3*
X2364234D2*
X2366774D1*
X2470063D2*
X2471968D1*
X2552194D2*
X2554331D1*
X2247394Y4700144D2*
X2249934D1*
X2277874D2*
D3*
X2364234D2*
X2366774D1*
X2470545D2*
X2472724D1*
X2552194D2*
X2553612D1*
X2275334Y4697604D2*
D3*
X2364234D2*
X2366774D1*
X2470914D2*
X2473454D1*
X2552194D2*
X2552621D1*
X2249934Y4695064D2*
X2252474D1*
X2275334D2*
D3*
X2364234D2*
X2366774D1*
X2552194D2*
X2551479D1*
X2249934Y4692524D2*
X2252474D1*
X2272794D2*
D3*
X2364234D2*
X2366774D1*
X2473454D2*
X2475994D1*
X2549654D2*
X2550258D1*
X2272794Y4689984D2*
D3*
X2364234D2*
X2366774D1*
X2475126D2*
X2476885D1*
X2549654D2*
X2548999D1*
X2252474Y4687444D2*
X2255014D1*
X2364234D2*
X2366774D1*
X2476910D2*
X2477749D1*
X2547114D2*
X2547645D1*
X2270254Y4684904D2*
D3*
X2364234D2*
X2366774D1*
X2478968D2*
X2478534D1*
X2547114D2*
X2546046D1*
X2255014Y4682364D2*
X2257554D1*
X2270254D2*
D3*
X2364234D2*
X2366774D1*
X2481259D2*
X2481074D1*
X2544574D2*
X2544077D1*
X2267714Y4679824D2*
D3*
X2364234D2*
X2366784D1*
X2483687D2*
X2483614D1*
X2542034D2*
X2541825D1*
X2263023Y4677284D2*
X2267714D1*
X2364234D2*
X2366881D1*
X2486180D2*
X2486154D1*
X2539494D2*
X2539417D1*
X2259548Y4674744D2*
X2267714D1*
X2364234D2*
X2367273D1*
X2435354D2*
X2437894D1*
X2488694D2*
D3*
X2536954D2*
D3*
X2258406Y4672204D2*
X2267714D1*
X2364234D2*
X2368141D1*
X2434354D2*
X2438894D1*
X2493774D2*
D3*
X2531874D2*
D3*
X2257554Y4669664D2*
X2267714D1*
X2364234D2*
X2369314D1*
X2434674D2*
X2438574D1*
X2498854D2*
D3*
X2526794D2*
D3*
X2435354Y4667124D2*
X2437894D1*
X2503934D2*
X2519174D1*
X1689857Y4714641D2*
X1743197D1*
X1687252Y4707021D2*
X1745802D1*
X1684984Y4699401D2*
X1748070D1*
X1683510Y4691781D2*
X1749544D1*
X1682406Y4684161D2*
X1750648D1*
X1590797Y4676541D2*
X1598417D1*
X1681096D2*
X1751959D1*
X1834637D2*
X1842257D1*
X1583177Y4668921D2*
X1609269D1*
X1675988D2*
X1757066D1*
X1823786D2*
X1849877D1*
X1575587Y4661301D2*
X1621542D1*
X1660767D2*
X1772288D1*
X1811512D2*
X1857467D1*
X1568294Y4653681D2*
X1635937D1*
X1639064D2*
X1793991D1*
X1797117D2*
X1864760D1*
X1562241Y4646061D2*
X1870814D1*
X1557713Y4638441D2*
X1875342D1*
X1558267Y4630821D2*
X1874787D1*
X1562709Y4623201D2*
X1870345D1*
X1567774Y4615581D2*
X1865280D1*
X1572548Y4607961D2*
X1860507D1*
X1576398Y4600341D2*
X1856657D1*
X1579318Y4592721D2*
X1853737D1*
X1578402Y4585101D2*
X1854652D1*
X1575783Y4577481D2*
X1857242D1*
X1571840Y4569861D2*
X1861095D1*
X1560607Y4562241D2*
X1689887D1*
X1743167D2*
X1871223D1*
X1545841Y4554621D2*
X1682535D1*
X1750520D2*
X1884131D1*
X1531904Y4547001D2*
X1675916D1*
X1757139D2*
X1896106D1*
X1521183Y4539381D2*
X1670418D1*
X1762636D2*
X1905260D1*
X1517708Y4531761D2*
X1666021D1*
X1767034D2*
X1908204D1*
X1515888Y4524141D2*
X1662853D1*
X1770201D2*
X1909746D1*
X1515091Y4516521D2*
X1661285D1*
X1771769D2*
X1910420D1*
X1514895Y4508901D2*
X1660870D1*
X1772184D2*
X1910567D1*
X1515103Y4501281D2*
X1663873D1*
X1769182D2*
X1910336D1*
X1518654Y4493661D2*
X1668192D1*
X1764862D2*
X1906900D1*
X1530593Y4486041D2*
X1673692D1*
X1759362D2*
X1896066D1*
X1545217Y4478421D2*
X1680678D1*
X1752377D2*
X1883300D1*
X1558339Y4470801D2*
X1688896D1*
X1744159D2*
X1872140D1*
X1568736Y4463181D2*
X1697477D1*
X1735577D2*
X1863309D1*
X1573686Y4455561D2*
X1693670D1*
X1739385D2*
X1858892D1*
X1578352Y4447941D2*
X1690475D1*
X1742580D2*
X1854518D1*
X1583177Y4440321D2*
X1687273D1*
X1745782D2*
X1849877D1*
X1578192Y4432701D2*
X1683857D1*
X1749198D2*
X1854862D1*
X1573108Y4425081D2*
X1680474D1*
X1752581D2*
X1859947D1*
X1567909Y4417461D2*
X1677470D1*
X1755584D2*
X1865145D1*
X1562926Y4409841D2*
X1674790D1*
X1758264D2*
X1870128D1*
X1557924Y4402221D2*
X1671847D1*
X1761207D2*
X1875130D1*
X1552697Y4394601D2*
X1668539D1*
X1764516D2*
X1880357D1*
X1560317Y4386981D2*
X1665161D1*
X1767893D2*
X1872737D1*
X1567937Y4379361D2*
X1662087D1*
X1770967D2*
X1865117D1*
X1575557Y4371741D2*
X1621277D1*
X1651757D2*
X1659377D1*
X1773677D2*
X1781297D1*
X1811777D2*
X1857497D1*
X1583177Y4364121D2*
X1613657D1*
X1819397D2*
X1849877D1*
X1884377Y4986681D2*
X1880567Y4982871D1*
X2021537D2*
Y4979061D1*
X2025347Y4982871D2*
Y4979061D1*
Y4975251D1*
Y4971441D1*
Y4967631D1*
Y4963821D1*
Y4960011D1*
Y4956201D1*
X2459687Y4982871D2*
X2449153Y4979061D1*
X2440453Y4975251D1*
X2433481Y4971441D1*
X2428084Y4967631D1*
X2424189Y4963821D1*
X2421321Y4960011D1*
X2419009Y4956201D1*
X2417073Y4952391D1*
X2415602Y4948581D1*
X2414724Y4944771D1*
X2414300Y4940961D1*
X2414240Y4937151D1*
X2414648Y4933341D1*
X2415545Y4929531D1*
X2416660Y4925721D1*
X2417955Y4921911D1*
X2419869Y4918101D1*
X2422703Y4914291D1*
X2426637Y4910481D1*
X2432272Y4906671D1*
X2441066Y4902861D1*
X2454903Y4899051D1*
X2473279Y4895241D1*
X2491638Y4891431D1*
X2505365Y4887621D1*
X2515117Y4883811D1*
X2518560Y4880001D1*
X2519851Y4876191D1*
X2519819Y4872381D1*
X2518059Y4868571D1*
X2513491Y4864761D1*
X2501358Y4860951D1*
X2482666Y4857141D1*
X2459687Y4853331D1*
X2497787Y4982871D2*
X2510697Y4979061D1*
X2523432Y4975251D1*
X2536907Y4971441D1*
X2551127Y4967631D1*
X2548765Y4963821D1*
X2546592Y4960011D1*
X2544551Y4956201D1*
X2542592Y4952391D1*
X2540673Y4948581D1*
X2538862Y4944771D1*
X2537271Y4940961D1*
X2535887Y4937151D1*
X1884377Y4979061D2*
Y4975251D1*
Y4971441D1*
Y4967631D1*
Y4963821D1*
Y4960011D1*
X2623517Y4979061D2*
X2626433Y4975251D1*
X2628693Y4971441D1*
X2628521Y4967631D1*
X2627562Y4963821D1*
X2626093Y4960011D1*
X2624363Y4956201D1*
X2622529Y4952391D1*
X2620645Y4948581D1*
X2618752Y4944771D1*
X2616862Y4940961D1*
X2615080Y4937151D1*
X2613538Y4933341D1*
X2612183Y4929531D1*
X2610705Y4925721D1*
X2609037Y4921911D1*
X2607249Y4918101D1*
X2605389Y4914291D1*
X2603506Y4910481D1*
X2601605Y4906671D1*
X2599705Y4902861D1*
X2597798Y4899051D1*
X2595896Y4895241D1*
X2593988Y4891431D1*
X2592086Y4887621D1*
X2590178Y4883811D1*
X2588276Y4880001D1*
X2586368Y4876191D1*
X2584466Y4872381D1*
X2582558Y4868571D1*
X2580656Y4864761D1*
X2578748Y4860951D1*
X2576846Y4857141D1*
X2574938Y4853331D1*
X2573006Y4849521D1*
X2570820Y4845711D1*
X2567839Y4841901D1*
X2563647Y4838091D1*
X2558747Y4834281D1*
X2673047Y4979061D2*
X2669237Y4975251D1*
X2665427Y4971441D1*
X2667331Y4967631D1*
X2668929Y4963821D1*
X2670529Y4960011D1*
X2672252Y4956201D1*
X2674078Y4952391D1*
X2676065Y4948581D1*
X2678318Y4944771D1*
X2680766Y4940961D1*
X2683097Y4937151D1*
X2685238Y4933341D1*
X2687259Y4929531D1*
X2689209Y4925721D1*
X2691136Y4921911D1*
X2693045Y4918101D1*
X2694955Y4914291D1*
X2696858Y4910481D1*
X2698766Y4906671D1*
X2700668Y4902861D1*
X2702576Y4899051D1*
X2704478Y4895241D1*
X2706386Y4891431D1*
X2708288Y4887621D1*
X2710196Y4883811D1*
X2712098Y4880001D1*
X2714006Y4876191D1*
X2715908Y4872381D1*
X2717816Y4868571D1*
X2719718Y4864761D1*
X2721626Y4860951D1*
X2723528Y4857141D1*
X2725436Y4853331D1*
X2727368Y4849521D1*
X2729554Y4845711D1*
X2732535Y4841901D1*
X2736727Y4838091D1*
X2741627Y4834281D1*
X2756867Y4979061D2*
X2759928Y4975251D1*
X2762157Y4971441D1*
X2763433Y4967631D1*
X2764051Y4963821D1*
X2764319Y4960011D1*
X2764426Y4956201D1*
X2764466Y4952391D1*
X2764480Y4948581D1*
X2764485Y4944771D1*
X2764486Y4940961D1*
X2764487Y4937151D1*
Y4933341D1*
Y4929531D1*
Y4925721D1*
Y4921911D1*
Y4918101D1*
Y4914291D1*
Y4910481D1*
Y4906671D1*
Y4902861D1*
Y4899051D1*
Y4895241D1*
Y4891431D1*
Y4887621D1*
Y4883811D1*
Y4880001D1*
Y4876191D1*
Y4872381D1*
Y4868571D1*
Y4864761D1*
Y4860951D1*
Y4857141D1*
X2764472Y4853331D1*
X2764323Y4849521D1*
X2763690Y4845711D1*
X2762157Y4841901D1*
X2759720Y4838091D1*
X2756867Y4834281D1*
X2810207Y4979061D2*
X2808594Y4975251D1*
X2807607Y4971441D1*
X2808397Y4967631D1*
X2809703Y4963821D1*
X2811333Y4960011D1*
X2813131Y4956201D1*
X2814991Y4952391D1*
X2816884Y4948581D1*
X2818781Y4944771D1*
X2820687Y4940961D1*
X2822588Y4937151D1*
X2824496Y4933341D1*
X2826398Y4929531D1*
X2828306Y4925721D1*
X2830223Y4921911D1*
X2832250Y4918101D1*
X2834519Y4914291D1*
X2836973Y4910481D1*
X2839305Y4906671D1*
X2841459Y4902861D1*
X2843580Y4899051D1*
X2845852Y4895241D1*
X2848307Y4891431D1*
X2890217Y4979061D2*
X2891831Y4975251D1*
X2892817Y4971441D1*
X2892027Y4967631D1*
X2890721Y4963821D1*
X2889091Y4960011D1*
X2887294Y4956201D1*
X2885433Y4952391D1*
X2883540Y4948581D1*
X2881629Y4944771D1*
X2879603Y4940961D1*
X2877336Y4937151D1*
X2874882Y4933341D1*
X2872549Y4929531D1*
X2870407Y4925721D1*
X2868386Y4921911D1*
X2866436Y4918101D1*
X2864509Y4914291D1*
X2862585Y4910481D1*
X2860526Y4906671D1*
X2857978Y4902861D1*
X2854437Y4899051D1*
X2849777Y4895241D1*
X2844497Y4891431D1*
X2943557Y4979061D2*
X2940496Y4975251D1*
X2938268Y4971441D1*
X2936992Y4967631D1*
X2936373Y4963821D1*
X2936105Y4960011D1*
X2935999Y4956201D1*
X2935959Y4952391D1*
X2935945Y4948581D1*
X2935940Y4944771D1*
X2935938Y4940961D1*
X2935937Y4937151D1*
Y4933341D1*
Y4929531D1*
Y4925721D1*
Y4921911D1*
Y4918101D1*
Y4914291D1*
Y4910481D1*
Y4906671D1*
Y4902861D1*
Y4899051D1*
Y4895241D1*
Y4891431D1*
Y4887621D1*
Y4883811D1*
Y4880001D1*
Y4876191D1*
Y4872381D1*
Y4868571D1*
Y4864761D1*
Y4860951D1*
Y4857141D1*
X2935952Y4853331D1*
X2936101Y4849521D1*
X2936734Y4845711D1*
X2938268Y4841901D1*
X2940704Y4838091D1*
X2943557Y4834281D1*
X1941527Y4960011D2*
Y4956201D1*
Y4952391D1*
Y4948581D1*
Y4944771D1*
Y4940961D1*
Y4937151D1*
Y4933341D1*
Y4929531D1*
Y4925721D1*
Y4921911D1*
Y4918101D1*
Y4914291D1*
Y4910481D1*
Y4906671D1*
Y4902861D1*
Y4899051D1*
Y4895241D1*
Y4891431D1*
Y4887621D1*
Y4883811D1*
Y4880001D1*
Y4876191D1*
Y4872381D1*
Y4868571D1*
Y4864761D1*
Y4860951D1*
X1941512Y4857141D1*
X1941378Y4853331D1*
X1940878Y4849521D1*
X1939820Y4845711D1*
X1938244Y4841901D1*
X1936220Y4838091D1*
X1933907Y4834281D1*
X1968197Y4960011D2*
Y4956201D1*
Y4952391D1*
Y4948581D1*
Y4944771D1*
Y4940961D1*
Y4937151D1*
Y4933341D1*
Y4929531D1*
Y4925721D1*
Y4921911D1*
Y4918101D1*
Y4914291D1*
Y4910481D1*
Y4906671D1*
Y4902861D1*
Y4899051D1*
Y4895241D1*
Y4891431D1*
Y4887621D1*
Y4883811D1*
Y4880001D1*
Y4876191D1*
Y4872381D1*
Y4868571D1*
Y4864761D1*
Y4860951D1*
Y4857141D1*
X1968212Y4853331D1*
X1968361Y4849521D1*
X1968994Y4845711D1*
X1970528Y4841901D1*
X1972964Y4838091D1*
X1975817Y4834281D1*
X2017727Y4960011D2*
X2021537Y4956201D1*
X2467307Y4960011D2*
X2459992Y4956201D1*
X2453513Y4952391D1*
X2448517Y4948581D1*
X2444637Y4944771D1*
X2442934Y4940961D1*
X2442641Y4937151D1*
X2449036Y4933341D1*
X2460392Y4929531D1*
X2476920Y4925721D1*
X2494943Y4921911D1*
X2510682Y4918101D1*
X2522795Y4914291D1*
X2531391Y4910481D1*
X2537192Y4906671D1*
X2541076Y4902861D1*
X2543869Y4899051D1*
X2546130Y4895241D1*
X2548040Y4891431D1*
X2549499Y4887621D1*
X2550373Y4883811D1*
X2550795Y4880001D1*
X2550854Y4876191D1*
X2550447Y4872381D1*
X2549549Y4868571D1*
X2548434Y4864761D1*
X2547139Y4860951D1*
X2545240Y4857141D1*
X2542555Y4853331D1*
X2539270Y4849521D1*
X2535391Y4845711D1*
X2530266Y4841901D1*
X2522837Y4838091D1*
X2512865Y4834281D1*
X2501597Y4830471D1*
X2490167Y4960011D2*
X2500834Y4956201D1*
X2510518Y4952391D1*
X2518636Y4948581D1*
X2524753Y4944771D1*
X2528911Y4940961D1*
X2532077Y4937151D1*
X1884377Y4952391D2*
X2048207D2*
X2049966Y4948581D1*
X2051060Y4944771D1*
X2051614Y4940961D1*
X2051859Y4937151D1*
X2051959Y4933341D1*
X2051997Y4929531D1*
X2052010Y4925721D1*
X2052015Y4921911D1*
X2052016Y4918101D1*
X2052017Y4914291D1*
Y4910481D1*
Y4906671D1*
Y4902861D1*
Y4899051D1*
Y4895241D1*
Y4891431D1*
Y4887621D1*
Y4883811D1*
Y4880001D1*
Y4876191D1*
Y4872381D1*
Y4868571D1*
Y4864761D1*
Y4860951D1*
Y4857141D1*
Y4853331D1*
X2052002Y4849521D1*
X2051857Y4845711D1*
X2051268Y4841901D1*
X2049966Y4838091D1*
X2048207Y4834281D1*
X2086307Y4952391D2*
X2083246Y4948581D1*
X2081018Y4944771D1*
X2079742Y4940961D1*
X2079123Y4937151D1*
X2078855Y4933341D1*
X2078749Y4929531D1*
X2078709Y4925721D1*
X2078695Y4921911D1*
X2078690Y4918101D1*
X2078688Y4914291D1*
X2078687Y4910481D1*
Y4906671D1*
Y4902861D1*
Y4899051D1*
Y4895241D1*
Y4891431D1*
Y4887621D1*
Y4883811D1*
Y4880001D1*
Y4876191D1*
Y4872381D1*
Y4868571D1*
Y4864761D1*
Y4860951D1*
Y4857141D1*
X2078702Y4853331D1*
X2078851Y4849521D1*
X2079484Y4845711D1*
X2081018Y4841901D1*
X2083454Y4838091D1*
X2086307Y4834281D1*
X2109167Y4952391D2*
X2112228Y4948581D1*
X2114457Y4944771D1*
X2115733Y4940961D1*
X2116351Y4937151D1*
X2116619Y4933341D1*
X2116726Y4929531D1*
X2116766Y4925721D1*
X2116780Y4921911D1*
X2116785Y4918101D1*
X2116786Y4914291D1*
X2116787Y4910481D1*
Y4906671D1*
Y4902861D1*
Y4899051D1*
Y4895241D1*
Y4891431D1*
Y4887621D1*
Y4883811D1*
Y4880001D1*
Y4876191D1*
Y4872381D1*
Y4868571D1*
Y4864761D1*
Y4860951D1*
Y4857141D1*
X2116772Y4853331D1*
X2116623Y4849521D1*
X2115990Y4845711D1*
X2114457Y4841901D1*
X2112020Y4838091D1*
X2109167Y4834281D1*
X2154887Y4952391D2*
X2153288Y4948581D1*
X2152347Y4944771D1*
X2153704Y4940961D1*
X2156073Y4937151D1*
X2159185Y4933341D1*
X2162694Y4929531D1*
X2166385Y4925721D1*
X2170151Y4921911D1*
X2173945Y4918101D1*
X2177750Y4914291D1*
X2181573Y4910481D1*
X2185516Y4906671D1*
X2189812Y4902861D1*
X2194534Y4899051D1*
X2199336Y4895241D1*
X2203955Y4891431D1*
X2208708Y4887621D1*
X2213989Y4883811D1*
X2219657Y4880001D1*
X2215847Y4952391D2*
X2217606Y4948581D1*
X2218700Y4944771D1*
X2219254Y4940961D1*
X2219499Y4937151D1*
X2219599Y4933341D1*
X2219637Y4929531D1*
X2219650Y4925721D1*
X2219655Y4921911D1*
X2219656Y4918101D1*
X2219657Y4914291D1*
Y4910481D1*
Y4906671D1*
Y4902861D1*
Y4899051D1*
X2219642Y4895241D1*
X2219497Y4891431D1*
X2218908Y4887621D1*
X2217606Y4883811D1*
X2215847Y4880001D1*
X2253947Y4952391D2*
X2250430Y4948581D1*
X2247825Y4944771D1*
X2247030Y4940961D1*
X2246617Y4937151D1*
X2246437Y4933341D1*
X2246367Y4929531D1*
X2246341Y4925721D1*
X2246332Y4921911D1*
X2246329Y4918101D1*
X2246328Y4914291D1*
X2246327Y4910481D1*
Y4906671D1*
Y4902861D1*
Y4899051D1*
Y4895241D1*
Y4891431D1*
Y4887621D1*
Y4883811D1*
Y4880001D1*
Y4876191D1*
Y4872381D1*
Y4868571D1*
Y4864761D1*
Y4860951D1*
Y4857141D1*
Y4853331D1*
X2246357Y4849521D1*
X2246647Y4845711D1*
X2247339Y4841901D1*
X2250308Y4838091D1*
X2253947Y4834281D1*
X2265377Y4952391D2*
X2269187Y4948581D1*
X2272997Y4944771D1*
X2276792Y4940961D1*
X2280468Y4937151D1*
X2283793Y4933341D1*
X2286690Y4929531D1*
X2289509Y4925721D1*
X2292520Y4921911D1*
X2295491Y4918101D1*
X2298227Y4914291D1*
X2300979Y4910481D1*
X2303964Y4906671D1*
X2306926Y4902861D1*
X2309644Y4899051D1*
X2312260Y4895241D1*
X2314745Y4891431D1*
X2316646Y4887621D1*
X2317767Y4883811D1*
X2318321Y4880001D1*
X2318563Y4876191D1*
X2318661Y4872381D1*
X2318697Y4868571D1*
X2318710Y4864761D1*
X2318715Y4860951D1*
X2318716Y4857141D1*
X2318702Y4853331D1*
X2318553Y4849521D1*
X2317920Y4845711D1*
X2316387Y4841901D1*
X2313950Y4838091D1*
X2311097Y4834281D1*
X2314907Y4952391D2*
X2313163Y4948581D1*
X2312218Y4944771D1*
X2311897Y4940961D1*
X2313485Y4937151D1*
X2315850Y4933341D1*
X2318534Y4929531D1*
X2321169Y4925721D1*
X2324037Y4921911D1*
X2327727Y4918101D1*
X2332451Y4914291D1*
X2337767Y4910481D1*
X2349197Y4952391D2*
X2352098Y4948581D1*
X2354313Y4944771D1*
X2354093Y4940961D1*
X2352279Y4937151D1*
X2350172Y4933341D1*
X2347704Y4929531D1*
X2344833Y4925721D1*
X2341917Y4921911D1*
X2339233Y4918101D1*
X2336632Y4914291D1*
X2333957Y4910481D1*
X2398727Y4952391D2*
X2394204Y4948581D1*
X2390204Y4944771D1*
X2386658Y4940961D1*
X2383157Y4937151D1*
X2379667Y4933341D1*
X2376436Y4929531D1*
X2373579Y4925721D1*
X2370777Y4921911D1*
X2367771Y4918101D1*
X2364802Y4914291D1*
X2362067Y4910481D1*
X2359316Y4906671D1*
X2356330Y4902861D1*
X2353383Y4899051D1*
X2350799Y4895241D1*
X2348668Y4891431D1*
X2347096Y4887621D1*
X2346172Y4883811D1*
X2345716Y4880001D1*
X2345515Y4876191D1*
X2345434Y4872381D1*
X2345404Y4868571D1*
X2345393Y4864761D1*
X2345389Y4860951D1*
X2345388Y4857141D1*
X2345402Y4853331D1*
X2345551Y4849521D1*
X2346184Y4845711D1*
X2347718Y4841901D1*
X2350154Y4838091D1*
X2353007Y4834281D1*
X2642567Y4940961D2*
X2641964Y4937151D1*
X2640885Y4933341D1*
X2639398Y4929531D1*
X2637684Y4925721D1*
X2635853Y4921911D1*
X2633980Y4918101D1*
X2632098Y4914291D1*
X2630318Y4910481D1*
X2628763Y4906671D1*
X2627275Y4902861D1*
X2625310Y4899051D1*
X2622675Y4895241D1*
X2619707Y4891431D1*
X2646377Y4940961D2*
X2649584Y4937151D1*
X2652315Y4933341D1*
X2654638Y4929531D1*
X2656734Y4925721D1*
X2658713Y4921911D1*
X2660650Y4918101D1*
X2662563Y4914291D1*
X2664474Y4910481D1*
X2666392Y4906671D1*
X2668434Y4902861D1*
X2670826Y4899051D1*
X2673716Y4895241D1*
X2676857Y4891431D1*
X2791157Y4929531D2*
Y4925721D1*
Y4921911D1*
Y4918101D1*
Y4914291D1*
Y4910481D1*
Y4906671D1*
Y4902861D1*
Y4899051D1*
Y4895241D1*
Y4891431D1*
Y4887621D1*
Y4883811D1*
Y4880001D1*
Y4876191D1*
Y4872381D1*
Y4868571D1*
Y4864761D1*
Y4860951D1*
Y4857141D1*
Y4853331D1*
X2791187Y4849521D1*
X2791477Y4845711D1*
X2792169Y4841901D1*
X2795138Y4838091D1*
X2798777Y4834281D1*
Y4929531D2*
X2799381Y4925721D1*
X2800459Y4921911D1*
X2801946Y4918101D1*
X2803675Y4914291D1*
X2805625Y4910481D1*
X2807865Y4906671D1*
X2810308Y4902861D1*
X2812637Y4899051D1*
X2814778Y4895241D1*
X2816799Y4891431D1*
X2818749Y4887621D1*
X2820676Y4883811D1*
X2822585Y4880001D1*
X2824495Y4876191D1*
X2826398Y4872381D1*
X2828306Y4868571D1*
X2830223Y4864761D1*
X2832250Y4860951D1*
X2834519Y4857141D1*
X2836973Y4853331D1*
X2839294Y4849521D1*
X2841337Y4845711D1*
X2843043Y4841901D1*
X2844497Y4838091D1*
X2897837Y4929531D2*
X2897103Y4925721D1*
X2895655Y4921911D1*
X2893622Y4918101D1*
X2891477Y4914291D1*
X2889412Y4910481D1*
X2887420Y4906671D1*
X2885465Y4902861D1*
X2883423Y4899051D1*
X2881149Y4895241D1*
X2878693Y4891431D1*
X2876359Y4887621D1*
X2874217Y4883811D1*
X2872196Y4880001D1*
X2870231Y4876191D1*
X2868185Y4872381D1*
X2865909Y4868571D1*
X2863453Y4864761D1*
X2861119Y4860951D1*
X2858977Y4857141D1*
X2856956Y4853331D1*
X2854994Y4849521D1*
X2852968Y4845711D1*
X2850738Y4841901D1*
X2848307Y4838091D1*
X2905457Y4929531D2*
Y4925721D1*
Y4921911D1*
Y4918101D1*
Y4914291D1*
Y4910481D1*
Y4906671D1*
Y4902861D1*
Y4899051D1*
Y4895241D1*
Y4891431D1*
Y4887621D1*
Y4883811D1*
Y4880001D1*
Y4876191D1*
Y4872381D1*
Y4868571D1*
Y4864761D1*
Y4860951D1*
Y4857141D1*
Y4853331D1*
X2905427Y4849521D1*
X2905137Y4845711D1*
X2904445Y4841901D1*
X2901476Y4838091D1*
X2897837Y4834281D1*
X2139647Y4910481D2*
Y4906671D1*
Y4902861D1*
Y4899051D1*
Y4895241D1*
Y4891431D1*
Y4887621D1*
Y4883811D1*
Y4880001D1*
Y4876191D1*
Y4872381D1*
Y4868571D1*
Y4864761D1*
Y4860951D1*
Y4857141D1*
X2139662Y4853331D1*
X2139811Y4849521D1*
X2140444Y4845711D1*
X2141978Y4841901D1*
X2144414Y4838091D1*
X2147267Y4834281D1*
Y4910481D2*
X2151077Y4906671D1*
X2154887Y4902861D1*
X2158697Y4899051D1*
X2162507Y4895241D1*
X2166317Y4891431D1*
X2170127Y4887621D1*
X2173937Y4883811D1*
X2177747Y4880001D1*
X2181557Y4876191D1*
X2185367Y4872381D1*
X2189177Y4868571D1*
X2192987Y4864761D1*
X2196797Y4860951D1*
X2200607Y4857141D1*
X2204402Y4853331D1*
X2208049Y4849521D1*
X2211080Y4845711D1*
X2213358Y4841901D1*
X2212986Y4838091D1*
X2212037Y4834281D1*
X2425397Y4876191D2*
X2423035Y4872381D1*
X2420862Y4868571D1*
X2418836Y4864761D1*
X2416996Y4860951D1*
X2415420Y4857141D1*
X2413965Y4853331D1*
X2412206Y4849521D1*
X2410157Y4845711D1*
X2429207Y4876191D2*
X2431596Y4872381D1*
X2437093Y4868571D1*
X2445844Y4864761D1*
X2460444Y4860951D1*
X2482572Y4857141D1*
X2509217Y4853331D1*
X2612087Y4876191D2*
X2611484Y4872381D1*
X2610405Y4868571D1*
X2608918Y4864761D1*
X2607204Y4860951D1*
X2605388Y4857141D1*
X2603649Y4853331D1*
X2602282Y4849521D1*
X2601356Y4845711D1*
X2601886Y4841901D1*
X2604729Y4838091D1*
X2608277Y4834281D1*
X2676857Y4876191D2*
X2680064Y4872381D1*
X2682795Y4868571D1*
X2685118Y4864761D1*
X2687214Y4860951D1*
X2689193Y4857141D1*
X2691100Y4853331D1*
X2692730Y4849521D1*
X2693979Y4845711D1*
X2693344Y4841901D1*
X2690979Y4838091D1*
X2688287Y4834281D1*
X2413967Y4845711D2*
Y4849521D2*
X2421762Y4845711D1*
X2430163Y4841901D1*
X2439906Y4838091D1*
X2451265Y4834281D1*
X2463497Y4830471D1*
X2506474Y4763644D2*
X2519174D2*
X2364234Y4761104D2*
X2363857Y4758564D1*
X2362577Y4756024D1*
X2359788Y4753484D1*
X2356614Y4750944D1*
X2360131Y4748404D1*
X2362736Y4745864D1*
X2363531Y4743324D1*
X2363944Y4740784D1*
X2364124Y4738244D1*
X2364194Y4735704D1*
X2364220Y4733164D1*
X2364229Y4730624D1*
X2364232Y4728084D1*
X2364233Y4725544D1*
X2364234Y4723004D1*
Y4720464D1*
Y4717924D1*
Y4715384D1*
Y4712844D1*
Y4710304D1*
Y4707764D1*
Y4705224D1*
Y4702684D1*
Y4700144D1*
Y4697604D1*
Y4695064D1*
Y4692524D1*
Y4689984D1*
Y4687444D1*
Y4684904D1*
Y4682364D1*
Y4679824D1*
Y4677284D1*
Y4674744D1*
Y4672204D1*
Y4669664D1*
X2369314Y4761104D2*
X2368141Y4758564D1*
X2367412Y4756024D1*
X2367043Y4753484D1*
X2366879Y4750944D1*
X2366813Y4748404D1*
X2366788Y4745864D1*
X2366779Y4743324D1*
X2366775Y4740784D1*
X2366774Y4738244D1*
Y4735704D1*
Y4733164D1*
Y4730624D1*
Y4728084D1*
Y4725544D1*
Y4723004D1*
Y4720464D1*
Y4717924D1*
Y4715384D1*
Y4712844D1*
Y4710304D1*
Y4707764D1*
Y4705224D1*
Y4702684D1*
Y4700144D1*
Y4697604D1*
Y4695064D1*
Y4692524D1*
Y4689984D1*
Y4687444D1*
Y4684904D1*
Y4682364D1*
X2366784Y4679824D1*
X2366881Y4677284D1*
X2367273Y4674744D1*
X2368141Y4672204D1*
X2369314Y4669664D1*
X2498854Y4761104D2*
X2524254D2*
X2526794D2*
X2493774Y4758564D2*
X2531874D2*
X2488694Y4756024D2*
X2536954D2*
X2539484Y4753484D1*
X2541935Y4750944D1*
X2544141Y4748404D1*
X2545973Y4745864D1*
X2547440Y4743324D1*
X2548513Y4740784D1*
X2549180Y4738244D1*
X2549654Y4735704D1*
X2486154Y4753484D2*
X2483614Y4750944D2*
X2346454Y4748404D2*
X2348994D2*
X2481074D2*
X2227074Y4743324D2*
X2228649Y4740784D1*
X2230097Y4738244D1*
X2231458Y4735704D1*
X2232764Y4733164D1*
X2234043Y4730624D1*
X2235251Y4728084D1*
X2236311Y4725544D1*
X2237234Y4723004D1*
X2234694Y4743324D2*
X2234704Y4740784D1*
X2234793Y4738244D1*
X2235127Y4735704D1*
X2235824Y4733164D1*
X2236801Y4730624D1*
X2237876Y4728084D1*
X2238881Y4725544D1*
X2239774Y4723004D1*
X2293114Y4743324D2*
Y4740784D1*
X2295654Y4743324D2*
Y4740784D1*
X2475994Y4743324D2*
X2478534D2*
X2473454Y4738244D2*
X2475994D2*
X2293114Y4735704D2*
X2552194D2*
X2290574Y4733164D2*
Y4730624D1*
X2470914Y4733164D2*
Y4730624D1*
X2473454Y4733164D2*
Y4730624D1*
X2552194D2*
X2552291Y4728084D1*
X2552616Y4725544D1*
X2553225Y4723004D1*
X2553876Y4720464D1*
X2554319Y4717924D1*
X2554555Y4715384D1*
X2554668Y4712844D1*
X2554734Y4710304D1*
Y4730624D2*
X2554831Y4728084D1*
X2555156Y4725544D1*
X2555765Y4723004D1*
X2556416Y4720464D1*
X2556859Y4717924D1*
X2557095Y4715384D1*
X2557208Y4712844D1*
X2557274Y4710304D1*
X2288034Y4728084D2*
Y4725544D1*
X2468374D2*
Y4723004D1*
Y4720464D1*
Y4717924D1*
Y4715384D1*
X2468384Y4712844D1*
X2468473Y4710304D1*
X2468797Y4707764D1*
X2469406Y4705224D1*
X2470063Y4702684D1*
X2470545Y4700144D1*
X2470914Y4697604D1*
Y4725544D2*
Y4723004D1*
Y4720464D1*
Y4717924D1*
Y4715384D1*
Y4712844D1*
X2470924Y4710304D1*
X2471013Y4707764D1*
X2471339Y4705224D1*
X2471968Y4702684D1*
X2472724Y4700144D1*
X2473454Y4697604D1*
X2285494Y4723004D2*
Y4720464D1*
Y4717924D1*
X2239774D2*
X2240739Y4715384D1*
X2241822Y4712844D1*
X2242936Y4710304D1*
X2243954Y4707764D1*
X2244854Y4705224D1*
X2242314Y4717924D2*
X2243279Y4715384D1*
X2244362Y4712844D1*
X2245476Y4710304D1*
X2246494Y4707764D1*
X2247394Y4705224D1*
X2282954Y4715384D2*
Y4712844D1*
X2280414Y4710304D2*
Y4707764D1*
X2552194Y4705224D2*
Y4702684D1*
Y4700144D1*
Y4697604D1*
Y4695064D1*
X2554734Y4705224D2*
X2554331Y4702684D1*
X2553612Y4700144D1*
X2552621Y4697604D1*
X2551479Y4695064D1*
X2550258Y4692524D1*
X2548999Y4689984D1*
X2547645Y4687444D1*
X2546046Y4684904D1*
X2544077Y4682364D1*
X2541825Y4679824D1*
X2539417Y4677284D1*
X2536954Y4674744D1*
X2277874Y4702684D2*
Y4700144D1*
X2247394D2*
X2249934D2*
X2275334Y4697604D2*
Y4695064D1*
X2249934D2*
Y4692524D1*
X2252474Y4695064D2*
Y4692524D1*
X2272794D2*
Y4689984D1*
X2473454Y4692524D2*
X2475126Y4689984D1*
X2476910Y4687444D1*
X2478968Y4684904D1*
X2481259Y4682364D1*
X2483687Y4679824D1*
X2486180Y4677284D1*
X2488694Y4674744D1*
X2475994Y4692524D2*
X2476885Y4689984D1*
X2477749Y4687444D1*
X2478534Y4684904D1*
X2252474Y4687444D2*
X2255014D2*
X2270254Y4684904D2*
Y4682364D1*
X2255014D2*
X2252474Y4679824D1*
X2257554Y4682364D2*
X2267714Y4679824D2*
X2263023Y4677284D1*
X2259548Y4674744D1*
X2258406Y4672204D1*
X2257554Y4669664D1*
X2267714Y4677284D2*
Y4674744D1*
Y4672204D1*
Y4669664D1*
X2435354Y4674744D2*
X2434354Y4672204D1*
X2434674Y4669664D1*
X2435354Y4667124D1*
X2437894Y4674744D2*
X2438894Y4672204D1*
X2438574Y4669664D1*
X2437894Y4667124D1*
X2493774Y4672204D2*
X2531874D2*
X2498854Y4669664D2*
X2526794D2*
X2503934Y4667124D2*
X2519174D2*
X1689857Y4714641D2*
X1687252Y4707021D1*
X1684984Y4699401D1*
X1683510Y4691781D1*
X1682406Y4684161D1*
X1681096Y4676541D1*
X1675988Y4668921D1*
X1660767Y4661301D1*
X1639064Y4653681D1*
X1613657Y4646061D1*
X1743197Y4714641D2*
X1745802Y4707021D1*
X1748070Y4699401D1*
X1749544Y4691781D1*
X1750648Y4684161D1*
X1751959Y4676541D1*
X1757066Y4668921D1*
X1772288Y4661301D1*
X1793991Y4653681D1*
X1819397Y4646061D1*
X1590797Y4676541D2*
X1583177Y4668921D1*
X1575587Y4661301D1*
X1568294Y4653681D1*
X1562241Y4646061D1*
X1557713Y4638441D1*
X1558267Y4630821D1*
X1562709Y4623201D1*
X1567774Y4615581D1*
X1572548Y4607961D1*
X1576398Y4600341D1*
X1579318Y4592721D1*
X1578402Y4585101D1*
X1575783Y4577481D1*
X1571840Y4569861D1*
X1560607Y4562241D1*
X1545841Y4554621D1*
X1531904Y4547001D1*
X1521183Y4539381D1*
X1517708Y4531761D1*
X1515888Y4524141D1*
X1515091Y4516521D1*
X1514895Y4508901D1*
X1515103Y4501281D1*
X1518654Y4493661D1*
X1530593Y4486041D1*
X1545217Y4478421D1*
X1558339Y4470801D1*
X1568736Y4463181D1*
X1573686Y4455561D1*
X1578352Y4447941D1*
X1583177Y4440321D1*
X1578192Y4432701D1*
X1573108Y4425081D1*
X1567909Y4417461D1*
X1562926Y4409841D1*
X1557924Y4402221D1*
X1552697Y4394601D1*
X1560317Y4386981D1*
X1567937Y4379361D1*
X1575557Y4371741D1*
X1583177Y4364121D1*
X1598417Y4676541D2*
X1609269Y4668921D1*
X1621542Y4661301D1*
X1635937Y4653681D1*
X1651757Y4646061D1*
X1834637Y4676541D2*
X1823786Y4668921D1*
X1811512Y4661301D1*
X1797117Y4653681D1*
X1781297Y4646061D1*
X1842257Y4676541D2*
X1849877Y4668921D1*
X1857467Y4661301D1*
X1864760Y4653681D1*
X1870814Y4646061D1*
X1875342Y4638441D1*
X1874787Y4630821D1*
X1870345Y4623201D1*
X1865280Y4615581D1*
X1860507Y4607961D1*
X1856657Y4600341D1*
X1853737Y4592721D1*
X1854652Y4585101D1*
X1857242Y4577481D1*
X1861095Y4569861D1*
X1871223Y4562241D1*
X1884131Y4554621D1*
X1896106Y4547001D1*
X1905260Y4539381D1*
X1908204Y4531761D1*
X1909746Y4524141D1*
X1910420Y4516521D1*
X1910567Y4508901D1*
X1910336Y4501281D1*
X1906900Y4493661D1*
X1896066Y4486041D1*
X1883300Y4478421D1*
X1872140Y4470801D1*
X1863309Y4463181D1*
X1858892Y4455561D1*
X1854518Y4447941D1*
X1849877Y4440321D1*
X1854862Y4432701D1*
X1859947Y4425081D1*
X1865145Y4417461D1*
X1870128Y4409841D1*
X1875130Y4402221D1*
X1880357Y4394601D1*
X1872737Y4386981D1*
X1865117Y4379361D1*
X1857497Y4371741D1*
X1849877Y4364121D1*
X1697477Y4569861D2*
X1689887Y4562241D1*
X1682535Y4554621D1*
X1675916Y4547001D1*
X1670418Y4539381D1*
X1666021Y4531761D1*
X1662853Y4524141D1*
X1661285Y4516521D1*
X1660870Y4508901D1*
X1663873Y4501281D1*
X1668192Y4493661D1*
X1673692Y4486041D1*
X1680678Y4478421D1*
X1688896Y4470801D1*
X1697477Y4463181D1*
X1693670Y4455561D1*
X1690475Y4447941D1*
X1687273Y4440321D1*
X1683857Y4432701D1*
X1680474Y4425081D1*
X1677470Y4417461D1*
X1674790Y4409841D1*
X1671847Y4402221D1*
X1668539Y4394601D1*
X1665161Y4386981D1*
X1662087Y4379361D1*
X1659377Y4371741D1*
X1735577Y4569861D2*
X1743167Y4562241D1*
X1750520Y4554621D1*
X1757139Y4547001D1*
X1762636Y4539381D1*
X1767034Y4531761D1*
X1770201Y4524141D1*
X1771769Y4516521D1*
X1772184Y4508901D1*
X1769182Y4501281D1*
X1764862Y4493661D1*
X1759362Y4486041D1*
X1752377Y4478421D1*
X1744159Y4470801D1*
X1735577Y4463181D1*
X1739385Y4455561D1*
X1742580Y4447941D1*
X1745782Y4440321D1*
X1749198Y4432701D1*
X1752581Y4425081D1*
X1755584Y4417461D1*
X1758264Y4409841D1*
X1761207Y4402221D1*
X1764516Y4394601D1*
X1767893Y4386981D1*
X1770967Y4379361D1*
X1773677Y4371741D1*
X1628897Y4379361D2*
X1621277Y4371741D1*
X1613657Y4364121D1*
X1644137Y4379361D2*
X1651757Y4371741D1*
X1788917Y4379361D2*
X1781297Y4371741D1*
X1804157Y4379361D2*
X1811777Y4371741D1*
X1819397Y4364121D1*
X1799839Y2963106D2*
D93*
X1793803Y2975179D1*
X1781589Y2987392D1*
X1769516Y2993429D1*
X1745229D1*
X1733016Y2987392D1*
X1720943Y2975179D1*
X1714766Y2963106D1*
X1708729Y2944856D1*
Y2914392D1*
X1714766Y2896283D1*
X1720943Y2884069D1*
X1733016Y2871996D1*
X1745229Y2865819D1*
X1769516D1*
X1781589Y2871996D1*
X1793803Y2884069D1*
X1799839Y2896283D1*
X1839055Y2969002D2*
X1851268Y2975179D1*
X1869518Y2993288D1*
Y2865819D1*
X2025914Y5216887D2*
X2019878Y5228960D1*
X2007664Y5241174D1*
X1995591Y5247210D1*
X1971305D1*
X1959091Y5241174D1*
X1947018Y5228960D1*
X1940841Y5216887D1*
X1934805Y5198637D1*
Y5168174D1*
X1940841Y5150064D1*
X1947018Y5137851D1*
X1959091Y5125778D1*
X1971305Y5119601D1*
X1995591D1*
X2007664Y5125778D1*
X2019878Y5137851D1*
X2025914Y5150064D1*
X2137990Y5247070D2*
X2077343D1*
X2071307Y5192460D1*
X2077343Y5198497D1*
X2095593Y5204674D1*
X2113703D1*
X2131953Y5198497D1*
X2144167Y5186424D1*
X2150203Y5168174D1*
Y5156101D1*
X2144167Y5137851D1*
X2131953Y5125637D1*
X2113703Y5119601D1*
X2095593D1*
X2077343Y5125637D1*
X2071307Y5131814D1*
X2065130Y5143887D1*
X1973617Y5960105D2*
X1961544Y5954068D1*
X1949331Y5941855D1*
X1943294Y5929782D1*
Y5905495D1*
X1949331Y5893282D1*
X1961544Y5881209D1*
X1973617Y5875032D1*
X1991867Y5868995D1*
X2022330D1*
X2040440Y5875032D1*
X2052654Y5881209D1*
X2064727Y5893282D1*
X2070904Y5905495D1*
Y5929782D1*
X2064727Y5941855D1*
X2052654Y5954068D1*
X2040440Y5960105D1*
X1943434Y6029643D2*
X1949471Y6011534D1*
X1961544Y6005357D1*
X1973758D1*
X1985831Y6011534D1*
X1992008Y6023607D1*
X1998044Y6047893D1*
X2004081Y6066143D1*
X2016294Y6078216D1*
X2028367Y6084253D1*
X2046617D1*
X2058690Y6078216D1*
X2064867Y6072180D1*
X2070904Y6053930D1*
Y6029643D1*
X2064867Y6011534D1*
X2058690Y6005357D1*
X2046617Y5999320D1*
X2028367D1*
X2016294Y6005357D1*
X2004081Y6017570D1*
X1998044Y6035680D1*
X1992008Y6059966D1*
X1985831Y6072180D1*
X1973758Y6078216D1*
X1961544D1*
X1949471Y6072180D1*
X1943434Y6053930D1*
Y6029643D1*
X3105360Y1604223D2*
X3093287Y1598187D1*
X3081074Y1585973D1*
X3075037Y1573900D1*
Y1549614D1*
X3081074Y1537400D1*
X3093287Y1525327D1*
X3105360Y1519150D1*
X3123610Y1513114D1*
X3154074D1*
X3172183Y1519150D1*
X3184397Y1525327D1*
X3196470Y1537400D1*
X3202647Y1549613D1*
Y1573900D1*
X3196470Y1585973D1*
X3184397Y1598186D1*
X3172184Y1604223D1*
X3099464Y1643439D2*
X3093287Y1655652D1*
X3075178Y1673902D1*
X3202647D1*
X3099464Y1713118D2*
X3093287Y1725331D1*
X3075178Y1743581D1*
X3202647D1*
X1608711Y1163977D2*
X1602675Y1176050D1*
X1590461Y1188264D1*
X1578388Y1194300D1*
X1554102D1*
X1541888Y1188264D1*
X1529815Y1176050D1*
X1523638Y1163977D1*
X1517602Y1145727D1*
Y1115264D1*
X1523638Y1097154D1*
X1529815Y1084941D1*
X1541888Y1072868D1*
X1554102Y1066691D1*
X1578388D1*
X1590461Y1072868D1*
X1602675Y1084941D1*
X1608711Y1097154D1*
X1647927Y1169874D2*
X1660141Y1176050D1*
X1678391Y1194160D1*
Y1066691D1*
X1723783Y1163837D2*
Y1169874D1*
X1729820Y1182087D1*
X1735856Y1188124D1*
X1748070Y1194160D1*
X1772356D1*
X1784429Y1188124D1*
X1790466Y1182087D1*
X1796643Y1169874D1*
Y1157800D1*
X1790466Y1145587D1*
X1778393Y1127477D1*
X1717606Y1066691D1*
X1802679D1*
X1095070Y1401515D2*
X1082997Y1395478D1*
X1070784Y1383265D1*
X1064747Y1371192D1*
Y1346905D1*
X1070784Y1334692D1*
X1082997Y1322619D1*
X1095070Y1316442D1*
X1113320Y1310405D1*
X1143784D1*
X1161893Y1316442D1*
X1174107Y1322619D1*
X1186180Y1334692D1*
X1192357Y1346905D1*
Y1371192D1*
X1186180Y1383265D1*
X1174107Y1395478D1*
X1161894Y1401515D1*
X1089174Y1440731D2*
X1082997Y1452944D1*
X1064888Y1471194D1*
X1192357D1*
X1064888Y1522623D2*
Y1589306D1*
X1113461Y1552946D1*
Y1571196D1*
X1119497Y1583269D1*
X1125534Y1589306D1*
X1143784Y1595483D1*
X1155857D1*
X1174107Y1589306D1*
X1186320Y1577233D1*
X1192357Y1558983D1*
Y1540733D1*
X1186320Y1522623D1*
X1180144Y1516587D1*
X1168070Y1510410D1*
X1356647Y6996238D2*
X1484257D1*
Y7038774D1*
X1478080Y7057024D1*
X1466007Y7069238D1*
X1453794Y7075274D1*
X1435684Y7081311D1*
X1405220D1*
X1386970Y7075275D1*
X1374897Y7069238D1*
X1362684Y7057025D1*
X1356647Y7038775D1*
Y6996238D1*
X1381074Y7120527D2*
X1374897Y7132740D1*
X1356788Y7150990D1*
X1484257D1*
X3148204Y6946990D2*
X3275814D1*
Y6989526D1*
X3269637Y7007776D1*
X3257564Y7019990D1*
X3245350Y7026026D1*
X3227241Y7032063D1*
X3196777D1*
X3178527Y7026026D1*
X3166454Y7019990D1*
X3154241Y7007776D1*
X3148204Y6989526D1*
Y6946990D1*
X3178668Y7077455D2*
X3172631D1*
X3160418Y7083492D1*
X3154381Y7089529D1*
X3148344Y7101742D1*
Y7126029D1*
X3154381Y7138102D1*
X3160418Y7144138D1*
X3172631Y7150315D1*
X3184704D1*
X3196918Y7144138D1*
X3215027Y7132065D1*
X3275814Y7071278D1*
Y7156351D1*
X1156571Y6406577D2*
Y6309431D1*
X1150534Y6291181D1*
X1144357Y6285144D1*
X1132284Y6278968D1*
X1120071D1*
X1107998Y6285144D1*
X1101961Y6291181D1*
X1095784Y6309431D1*
Y6321504D1*
X1195787Y6382150D2*
X1208000Y6388327D1*
X1226250Y6406437D1*
Y6278968D1*
X1764376Y6767574D2*
Y6670428D1*
X1758340Y6652178D1*
X1752163Y6646141D1*
X1740090Y6639964D1*
X1727876D1*
X1715803Y6646141D1*
X1709766Y6652178D1*
X1703590Y6670428D1*
Y6682501D1*
X1809769Y6737110D2*
Y6743147D1*
X1815805Y6755360D1*
X1821842Y6761397D1*
X1834055Y6767433D1*
X1858342D1*
X1870415Y6761397D1*
X1876451Y6755360D1*
X1882628Y6743147D1*
Y6731074D1*
X1876451Y6718860D1*
X1864378Y6700751D1*
X1803592Y6639964D1*
X1888665D1*
X3498129Y6418130D2*
Y6320984D1*
X3492093Y6302734D1*
X3485916Y6296698D1*
X3473843Y6290521D1*
X3461629D1*
X3449556Y6296698D1*
X3443520Y6302734D1*
X3437343Y6320984D1*
Y6333057D1*
X3549559Y6417990D2*
X3616241D1*
X3579882Y6369417D1*
X3598132D1*
X3610205Y6363380D1*
X3616241Y6357344D1*
X3622418Y6339094D1*
Y6327021D1*
X3616241Y6308771D1*
X3604168Y6296557D1*
X3585918Y6290521D1*
X3567668D1*
X3549559Y6296557D1*
X3543522Y6302734D1*
X3537345Y6314807D1*
X2012274Y1627357D2*
Y1530211D1*
X2006238Y1511961D1*
X2000061Y1505924D1*
X1987988Y1499748D1*
X1975774D1*
X1963701Y1505924D1*
X1957665Y1511961D1*
X1951488Y1530211D1*
Y1542284D1*
X2112277Y1499748D2*
Y1627217D1*
X2051490Y1542284D1*
X2142600D1*
X2240004Y5330050D2*
Y5202441D1*
X2312864D1*
X2352080Y5305624D2*
X2364293Y5311800D1*
X2382543Y5329910D1*
Y5202441D1*
X2887363Y6600707D2*
X2875290Y6594811D1*
X2863076Y6582598D1*
X2857040Y6570384D1*
X2850863Y6552134D1*
Y6521811D1*
X2857040Y6503561D1*
X2863076Y6491488D1*
X2875290Y6479274D1*
X2887363Y6473238D1*
X2911649D1*
X2923863Y6479274D1*
X2935936Y6491488D1*
X2941973Y6503561D1*
X2948149Y6521811D1*
Y6552134D1*
X2941973Y6570384D1*
X2935936Y6582598D1*
X2923863Y6594811D1*
X2911649Y6600707D1*
X2887363D1*
X2905613Y6497524D2*
X2941973Y6461024D1*
X2993542Y6570244D2*
Y6576280D1*
X2999579Y6588494D1*
X3005615Y6594530D1*
X3017829Y6600567D1*
X3042115D1*
X3054188Y6594530D1*
X3060225Y6588494D1*
X3066402Y6576280D1*
Y6564207D1*
X3060225Y6551994D1*
X3048152Y6533884D1*
X2987365Y6473098D1*
X3072438D1*
X2686364Y6138478D2*
Y6193088D1*
X2680187Y6211338D1*
X2674150Y6217515D1*
X2662077Y6223551D1*
X2649864D1*
X2637791Y6217515D1*
X2631614Y6211338D1*
X2625577Y6193088D1*
Y6138478D1*
X2753187D1*
X2686364Y6181015D2*
X2753187Y6223551D1*
X2650004Y6262767D2*
X2643827Y6274980D1*
X2625718Y6293230D1*
X2753187D1*
X2567007Y5168193D2*
Y5222803D1*
X2560830Y5241053D1*
X2554794Y5247230D1*
X2542721Y5253266D1*
X2530507D1*
X2518434Y5247230D1*
X2512257Y5241053D1*
X2506221Y5222803D1*
Y5168193D1*
X2633830D1*
X2567007Y5210730D2*
X2633830Y5253266D1*
X2536684Y5298659D2*
X2530648D1*
X2518434Y5304695D1*
X2512398Y5310732D1*
X2506361Y5322945D1*
Y5347232D1*
X2512398Y5359305D1*
X2518434Y5365341D1*
X2530648Y5371518D1*
X2542721D1*
X2554934Y5365341D1*
X2573044Y5353268D1*
X2633830Y5292482D1*
Y5377555D1*
X1633460Y6244220D2*
X1633461Y6298830D1*
X1627284Y6317079D1*
X1621247Y6323256D1*
X1609174Y6329293D1*
X1596961D1*
X1584888Y6323256D1*
X1578711Y6317080D1*
X1572674Y6298830D1*
Y6244220D1*
X1700284D1*
X1633461Y6286756D2*
X1700284Y6329293D1*
X1572814Y6380722D2*
Y6447405D1*
X1621388Y6411045D1*
Y6429295D1*
X1627424Y6441368D1*
X1633461Y6447405D1*
X1651711Y6453582D1*
X1663784D1*
X1682034Y6447405D1*
X1694247Y6435331D1*
X1700284Y6417081D1*
Y6398831D1*
X1694247Y6380722D1*
X1688070Y6374685D1*
X1675997Y6368508D1*
X2921304Y1513330D2*
Y1567940D1*
X2915127Y1586189D1*
X2909090Y1592366D1*
X2897017Y1598403D1*
X2884804D1*
X2872731Y1592366D1*
X2866554Y1586190D1*
X2860517Y1567940D1*
Y1513330D1*
X2988127D1*
X2921304Y1555866D2*
X2988127Y1598403D1*
X2860658Y1710478D2*
Y1649832D1*
X2915267Y1643795D1*
X2909231Y1649832D1*
X2903054Y1668082D1*
Y1686192D1*
X2909231Y1704442D1*
X2921304Y1716655D1*
X2939554Y1722692D1*
X2951627D1*
X2969877Y1716655D1*
X2982090Y1704441D1*
X2988127Y1686191D1*
Y1668082D1*
X2982090Y1649832D1*
X2975914Y1643795D1*
X2963840Y1637618D1*
X1435690Y6576048D2*
X1435691Y6630658D1*
X1429514Y6648908D1*
X1423477Y6655085D1*
X1411404Y6661121D1*
X1399191D1*
X1387118Y6655085D1*
X1380941Y6648908D1*
X1374904Y6630658D1*
Y6576048D1*
X1502514D1*
X1435691Y6618585D2*
X1502514Y6661121D1*
X1393154Y6773197D2*
X1381081Y6767160D1*
X1375044Y6748910D1*
Y6736837D1*
X1381081Y6718587D1*
X1399331Y6706374D1*
X1429654Y6700337D1*
X1459977D1*
X1484264Y6706373D1*
X1496477Y6718587D1*
X1502514Y6736837D1*
Y6742873D1*
X1496477Y6760983D1*
X1484264Y6773196D1*
X1466014Y6779233D1*
X1459977D1*
X1441727Y6773197D1*
X1429654Y6760983D1*
X1423618Y6742874D1*
Y6736837D1*
X1429654Y6718587D1*
X1441727Y6706374D1*
X1459977Y6700337D1*
X3226120Y6601280D2*
X3226121Y6655890D1*
X3219944Y6674140D1*
X3213907Y6680317D1*
X3201834Y6686353D1*
X3189621D1*
X3177548Y6680317D1*
X3171371Y6674140D1*
X3165334Y6655890D1*
Y6601280D1*
X3292944D1*
X3226121Y6643817D2*
X3292944Y6686353D1*
X3189761Y6725569D2*
X3183584Y6737782D1*
X3165474Y6756032D1*
X3292944D1*
X3165474Y6831748D2*
X3171511Y6813498D1*
X3189761Y6801285D1*
X3220084Y6795248D1*
X3238334D1*
X3268657Y6801285D1*
X3286907Y6813498D1*
X3292944Y6831748D1*
Y6843821D1*
X3286907Y6862071D1*
X3268657Y6874144D1*
X3238334Y6880321D1*
X3220084D1*
X3189761Y6874144D1*
X3171511Y6862071D1*
X3165474Y6843821D1*
Y6831748D1*
X3189761Y6874144D2*
X3268657Y6801285D1*
X2776637Y5698872D2*
Y5753481D1*
X2770460Y5771731D1*
X2764424Y5777908D1*
X2752351Y5783945D1*
X2740137D1*
X2728064Y5777908D1*
X2721887Y5771731D1*
X2715851Y5753481D1*
Y5698872D1*
X2843460D1*
X2776637Y5741408D2*
X2843460Y5783945D1*
X2740278Y5823160D2*
X2734101Y5835374D1*
X2715991Y5853624D1*
X2843460D1*
X2740278Y5892840D2*
X2734101Y5905053D1*
X2715991Y5923303D1*
X2843460D1*
X3098330Y5904387D2*
X3152940D1*
X3171190Y5910564D1*
X3177367Y5916601D1*
X3183403Y5928674D1*
Y5940887D1*
X3177367Y5952960D1*
X3171190Y5959137D1*
X3152940Y5965174D1*
X3098330D1*
Y5837564D1*
X3140867Y5904387D2*
X3183403Y5837564D1*
X3222619Y5940747D2*
X3234832Y5946924D1*
X3253082Y5965033D1*
Y5837564D1*
X3298475Y5934710D2*
Y5940747D1*
X3304511Y5952960D1*
X3310548Y5958997D1*
X3322761Y5965033D1*
X3347048D1*
X3359121Y5958997D1*
X3365158Y5952960D1*
X3371334Y5940747D1*
Y5928674D1*
X3365158Y5916460D1*
X3353084Y5898351D1*
X3292298Y5837564D1*
X3377371D1*
X2131508Y6693814D2*
X2119434Y6706027D1*
X2101184Y6712064D1*
X2076898D1*
X2058648Y6706027D1*
X2046434Y6693814D1*
Y6681741D1*
X2052611Y6669527D1*
X2058648Y6663491D1*
X2070721Y6657454D1*
X2107221Y6645241D1*
X2119434Y6639204D1*
X2125471Y6633027D1*
X2131508Y6620954D1*
Y6602704D1*
X2119434Y6590631D1*
X2101184Y6584454D1*
X2076898D1*
X2058648Y6590631D1*
X2046434Y6602704D1*
X2170723Y6687637D2*
X2182937Y6693814D1*
X2201187Y6711923D1*
Y6584454D1*
X2269994Y4284602D2*
Y4193493D1*
X2276031Y4175243D1*
X2288244Y4163169D1*
X2306494Y4156993D1*
X2318568D1*
X2336818Y4163169D1*
X2349031Y4175243D1*
X2355068Y4193493D1*
Y4284602D1*
X2394283Y4260175D2*
X2406497Y4266352D1*
X2424747Y4284462D1*
Y4156993D1*
X2522540Y2027627D2*
Y1936518D1*
X2528576Y1918268D1*
X2540790Y1906194D1*
X2559040Y1900018D1*
X2571113D1*
X2589363Y1906194D1*
X2601576Y1918268D1*
X2607613Y1936518D1*
Y2027627D1*
X2653005Y1997164D2*
Y2003200D1*
X2659042Y2015414D1*
X2665078Y2021450D1*
X2677292Y2027487D1*
X2701578D1*
X2713651Y2021450D1*
X2719688Y2015414D1*
X2725865Y2003200D1*
Y1991127D1*
X2719688Y1978914D1*
X2707615Y1960804D1*
X2646828Y1900018D1*
X2731901D1*
X1990716Y2117810D2*
Y2026701D1*
X1996753Y2008451D1*
X2008966Y1996378D1*
X2027216Y1990201D1*
X2039289D1*
X2057539Y1996378D1*
X2069753Y2008451D1*
X2075789Y2026701D1*
Y2117810D1*
X2127219Y2117670D2*
X2193901D1*
X2157542Y2069097D1*
X2175792D1*
X2187865Y2063060D1*
X2193901Y2057024D1*
X2200078Y2038774D1*
Y2026701D1*
X2193901Y2008451D1*
X2181828Y1996237D1*
X2163578Y1990201D1*
X2145328D1*
X2127219Y1996237D1*
X2121182Y2002414D1*
X2115005Y2014487D1*
X3100725Y2294939D2*
D94*
X3139583Y2192851D1*
X3178442Y2294939D1*
X3222886D2*
Y2192851D1*
X3335389Y2294939D2*
Y2192851D1*
X3267331Y2294939D1*
Y2192851D1*
X1407423Y6121604D2*
X1402593Y6131263D1*
X1392823Y6141033D1*
X1383164Y6145863D1*
X1363735D1*
X1353964Y6141033D1*
X1344306Y6131263D1*
X1339364Y6121604D1*
X1334535Y6107004D1*
Y6082633D1*
X1339364Y6068146D1*
X1344306Y6058375D1*
X1353964Y6048716D1*
X1363735Y6043775D1*
X1383164D1*
X1392823Y6048716D1*
X1402593Y6058375D1*
X1407423Y6068146D1*
Y6082633D1*
X1383164D1*
X1519926Y6145863D2*
Y6043775D1*
X1451867Y6145863D1*
Y6043775D1*
X1564370Y6145863D2*
Y6043775D1*
X1598399D1*
X1612999Y6048716D1*
X1622770Y6058375D1*
X1627599Y6068146D1*
X1632428Y6082633D1*
Y6107004D1*
X1627599Y6121604D1*
X1622770Y6131263D1*
X1612999Y6141033D1*
X1598399Y6145863D1*
X1564370D1*
M02*
