G04 DipTrace 2.4.0.2*
%INBottomSilk.gbr*%
%MOMM*%
%ADD10C,0.25*%
%ADD37O,0.391X0.392*%
%ADD91C,0.196*%
%FSLAX53Y53*%
G04*
G71*
G90*
G75*
G01*
%LNBotSilk*%
%LPD*%
X9675Y22112D2*
D10*
Y20813D1*
X8202Y30150D2*
X6903D1*
X17965Y30166D2*
Y31465D1*
D37*
X15234Y6308D3*
X13861Y6174D2*
D10*
Y3174D1*
X13061Y6174D2*
Y3174D1*
X13861D2*
X13061D1*
X13861Y6174D2*
X13061D1*
X17216Y27158D2*
X10316D1*
Y25758D1*
X17216D1*
Y27158D1*
X15766Y27108D2*
Y25808D1*
X17352Y20832D2*
Y22131D1*
X11070Y19976D2*
D91*
X11130Y20096D1*
X11252Y20219D1*
X11373Y20279D1*
X11616D1*
X11738Y20219D1*
X11859Y20096D1*
X11921Y19976D1*
X11981Y19793D1*
Y19489D1*
X11921Y19307D1*
X11859Y19185D1*
X11738Y19065D1*
X11616Y19003D1*
X11373D1*
X11252Y19065D1*
X11130Y19185D1*
X11070Y19307D1*
X10556Y20277D2*
X9889D1*
X10252Y19792D1*
X10070D1*
X9949Y19731D1*
X9889Y19671D1*
X9827Y19489D1*
Y19368D1*
X9889Y19185D1*
X10010Y19063D1*
X10192Y19003D1*
X10375D1*
X10556Y19063D1*
X10616Y19125D1*
X10678Y19246D1*
X5245Y28485D2*
X5125Y28545D1*
X5003Y28667D1*
X4942Y28788D1*
Y29031D1*
X5003Y29153D1*
X5125Y29274D1*
X5245Y29336D1*
X5428Y29396D1*
X5733D1*
X5914Y29336D1*
X6036Y29274D1*
X6157Y29153D1*
X6218Y29031D1*
Y28788D1*
X6157Y28667D1*
X6036Y28545D1*
X5914Y28485D1*
X5125Y27364D2*
X5004Y27424D1*
X4944Y27607D1*
Y27728D1*
X5004Y27910D1*
X5187Y28032D1*
X5490Y28093D1*
X5793D1*
X6036Y28032D1*
X6158Y27910D1*
X6218Y27728D1*
Y27667D1*
X6158Y27486D1*
X6036Y27364D1*
X5853Y27304D1*
X5793D1*
X5610Y27364D1*
X5490Y27486D1*
X5429Y27667D1*
Y27728D1*
X5490Y27910D1*
X5610Y28032D1*
X5793Y28093D1*
X16431Y33199D2*
X16491Y33319D1*
X16613Y33441D1*
X16734Y33502D1*
X16977D1*
X17099Y33441D1*
X17220Y33319D1*
X17281Y33199D1*
X17342Y33016D1*
Y32711D1*
X17281Y32530D1*
X17220Y32408D1*
X17099Y32287D1*
X16977Y32226D1*
X16734D1*
X16613Y32287D1*
X16491Y32408D1*
X16431Y32530D1*
X15796Y32226D2*
X15188Y33500D1*
X16038D1*
X17864Y24693D2*
X17925Y24814D1*
X18047Y24936D1*
X18168Y24997D1*
X18410D1*
X18533Y24936D1*
X18653Y24814D1*
X18715Y24693D1*
X18775Y24511D1*
Y24206D1*
X18715Y24025D1*
X18653Y23903D1*
X18533Y23782D1*
X18410Y23721D1*
X18168D1*
X18047Y23782D1*
X17925Y23903D1*
X17864Y24025D1*
X16682Y24571D2*
X16744Y24389D1*
X16864Y24267D1*
X17047Y24206D1*
X17107D1*
X17290Y24267D1*
X17410Y24389D1*
X17472Y24571D1*
Y24632D1*
X17410Y24814D1*
X17290Y24935D1*
X17107Y24995D1*
X17047D1*
X16864Y24935D1*
X16744Y24814D1*
X16682Y24571D1*
Y24267D1*
X16744Y23963D1*
X16864Y23781D1*
X17047Y23721D1*
X17168D1*
X17350Y23781D1*
X17410Y23903D1*
X18711Y29066D2*
X18771Y29187D1*
X18893Y29309D1*
X19014Y29370D1*
X19257D1*
X19379Y29309D1*
X19500Y29187D1*
X19561Y29066D1*
X19622Y28884D1*
Y28579D1*
X19561Y28398D1*
X19500Y28276D1*
X19379Y28155D1*
X19257Y28093D1*
X19014D1*
X18893Y28155D1*
X18771Y28276D1*
X18711Y28398D1*
X18318Y29125D2*
X18196Y29187D1*
X18014Y29368D1*
Y28093D1*
X17257Y29368D2*
X17439Y29308D1*
X17561Y29125D1*
X17622Y28822D1*
Y28640D1*
X17561Y28336D1*
X17439Y28154D1*
X17257Y28093D1*
X17136D1*
X16953Y28154D1*
X16833Y28336D1*
X16771Y28640D1*
Y28822D1*
X16833Y29125D1*
X16953Y29308D1*
X17136Y29368D1*
X17257D1*
X16833Y29125D2*
X17561Y28336D1*
X18755Y12591D2*
Y12045D1*
X18693Y11863D1*
X18633Y11801D1*
X18512Y11741D1*
X18390D1*
X18269Y11801D1*
X18208Y11863D1*
X18147Y12045D1*
Y12591D1*
X19423D1*
X18755Y12166D2*
X19423Y11741D1*
Y10741D2*
X18149D1*
X18998Y11349D1*
Y10437D1*
X14632Y8094D2*
Y7183D1*
X14572Y7001D1*
X14450Y6880D1*
X14267Y6818D1*
X14147D1*
X13964Y6880D1*
X13842Y7001D1*
X13782Y7183D1*
Y8094D1*
X13328Y7789D2*
Y7850D1*
X13267Y7972D1*
X13207Y8032D1*
X13085Y8093D1*
X12842D1*
X12721Y8032D1*
X12661Y7972D1*
X12599Y7850D1*
Y7729D1*
X12661Y7607D1*
X12782Y7426D1*
X13390Y6818D1*
X12539D1*
X12175Y28814D2*
X11689Y28206D1*
Y27538D1*
X11203Y28814D2*
X11689Y28206D1*
X10811Y28569D2*
X10689Y28631D1*
X10506Y28812D1*
Y27538D1*
X15447Y20052D2*
X15507Y20172D1*
X15629Y20295D1*
X15750Y20355D1*
X15993D1*
X16115Y20295D1*
X16236Y20172D1*
X16297Y20052D1*
X16358Y19869D1*
Y19565D1*
X16297Y19383D1*
X16236Y19261D1*
X16115Y19141D1*
X15993Y19079D1*
X15750D1*
X15629Y19141D1*
X15507Y19261D1*
X15447Y19383D1*
X15054Y20111D2*
X14932Y20172D1*
X14750Y20353D1*
Y19079D1*
M02*
