G04 DipTrace 2.4.0.2*
%INTopPaste.gbr*%
%MOMM*%
%ADD26R,1.7X1.7*%
%ADD56R,3.05X1.95*%
%ADD58R,0.75X1.95*%
%ADD62R,1.4X2.0*%
%ADD64R,0.45X0.85*%
%ADD68R,0.8X1.15*%
%ADD74R,0.2X1.15*%
%ADD76R,1.4X1.2*%
%ADD84R,1.4X2.4*%
%ADD86R,1.3X1.1*%
%ADD88R,1.1X1.3*%
%ADD90R,2.4X1.4*%
%FSLAX53Y53*%
G04*
G71*
G90*
G75*
G01*
%LNTopPaste*%
%LPD*%
D90*
X9531Y15813D3*
X5931D3*
D86*
X22907Y18771D3*
Y16871D3*
D84*
X8232Y44351D3*
Y47951D3*
D86*
X10185Y52680D3*
Y54580D3*
X21260Y1981D3*
Y3881D3*
D88*
X13221Y12497D3*
X15121D3*
X5899Y3392D3*
X3999D3*
D86*
X2261Y60010D3*
Y61910D3*
X24308D3*
Y60010D3*
D26*
X14662Y1524D3*
X12262D3*
D76*
X10262Y3974D3*
X16662D3*
D74*
X12162Y4199D3*
X12812D3*
X13462D3*
X14112D3*
X14762D3*
D68*
X13761Y44328D3*
X12261D3*
D64*
X20816Y52867D3*
X22716D3*
X21766Y55167D3*
D86*
X15650Y46865D3*
Y44965D3*
X8204Y52629D3*
Y54529D3*
X19228Y3886D3*
Y1986D3*
X2200Y55826D3*
Y57726D3*
X24308Y56032D3*
Y57932D3*
X19831Y47112D3*
Y49012D3*
D88*
X21723Y50902D3*
X19823D3*
D86*
X16992Y56558D3*
Y54658D3*
D62*
X13462Y46787D3*
Y55987D3*
G36*
X18836Y26956D2*
X18907Y26885D1*
X17917Y25895D1*
X17846Y25966D1*
X18836Y26956D1*
G37*
G36*
X18482Y27309D2*
X18553Y27238D1*
X17563Y26249D1*
X17493Y26319D1*
X18482Y27309D1*
G37*
G36*
X18129Y27663D2*
X18200Y27592D1*
X17210Y26602D1*
X17139Y26673D1*
X18129Y27663D1*
G37*
G36*
X17775Y28016D2*
X17846Y27946D1*
X16856Y26956D1*
X16785Y27026D1*
X17775Y28016D1*
G37*
G36*
X17422Y28370D2*
X17493Y28299D1*
X16503Y27309D1*
X16432Y27380D1*
X17422Y28370D1*
G37*
G36*
X17068Y28723D2*
X17139Y28653D1*
X16149Y27663D1*
X16078Y27733D1*
X17068Y28723D1*
G37*
G36*
X16715Y29077D2*
X16785Y29006D1*
X15795Y28016D1*
X15725Y28087D1*
X16715Y29077D1*
G37*
G36*
X16361Y29431D2*
X16432Y29360D1*
X15442Y28370D1*
X15371Y28441D1*
X16361Y29431D1*
G37*
G36*
X16008Y29784D2*
X16078Y29713D1*
X15088Y28723D1*
X15018Y28794D1*
X16008Y29784D1*
G37*
G36*
X15654Y30138D2*
X15725Y30067D1*
X14735Y29077D1*
X14664Y29148D1*
X15654Y30138D1*
G37*
G36*
X15300Y30491D2*
X15371Y30420D1*
X14381Y29431D1*
X14311Y29501D1*
X15300Y30491D1*
G37*
G36*
X14947Y30845D2*
X15018Y30774D1*
X14028Y29784D1*
X13957Y29855D1*
X14947Y30845D1*
G37*
G36*
X11906Y30774D2*
X11977Y30845D1*
X12967Y29855D1*
X12896Y29784D1*
X11906Y30774D1*
G37*
G36*
X11553Y30420D2*
X11624Y30491D1*
X12613Y29501D1*
X12543Y29431D1*
X11553Y30420D1*
G37*
G36*
X11199Y30067D2*
X11270Y30138D1*
X12260Y29148D1*
X12189Y29077D1*
X11199Y30067D1*
G37*
G36*
X10846Y29713D2*
X10916Y29784D1*
X11906Y28794D1*
X11836Y28723D1*
X10846Y29713D1*
G37*
G36*
X10492Y29360D2*
X10563Y29431D1*
X11553Y28441D1*
X11482Y28370D1*
X10492Y29360D1*
G37*
G36*
X10139Y29006D2*
X10209Y29077D1*
X11199Y28087D1*
X11129Y28016D1*
X10139Y29006D1*
G37*
G36*
X9785Y28653D2*
X9856Y28723D1*
X10846Y27733D1*
X10775Y27663D1*
X9785Y28653D1*
G37*
G36*
X9431Y28299D2*
X9502Y28370D1*
X10492Y27380D1*
X10421Y27309D1*
X9431Y28299D1*
G37*
G36*
X9078Y27946D2*
X9149Y28016D1*
X10139Y27026D1*
X10068Y26956D1*
X9078Y27946D1*
G37*
G36*
X8724Y27592D2*
X8795Y27663D1*
X9785Y26673D1*
X9714Y26602D1*
X8724Y27592D1*
G37*
G36*
X8371Y27238D2*
X8442Y27309D1*
X9431Y26319D1*
X9361Y26249D1*
X8371Y27238D1*
G37*
G36*
X8017Y26885D2*
X8088Y26956D1*
X9078Y25966D1*
X9007Y25895D1*
X8017Y26885D1*
G37*
G36*
X9007Y24905D2*
X9078Y24834D1*
X8088Y23844D1*
X8017Y23915D1*
X9007Y24905D1*
G37*
G36*
X9361Y24551D2*
X9431Y24481D1*
X8442Y23491D1*
X8371Y23562D1*
X9361Y24551D1*
G37*
G36*
X9714Y24198D2*
X9785Y24127D1*
X8795Y23137D1*
X8724Y23208D1*
X9714Y24198D1*
G37*
G36*
X10068Y23844D2*
X10139Y23774D1*
X9149Y22784D1*
X9078Y22854D1*
X10068Y23844D1*
G37*
G36*
X10421Y23491D2*
X10492Y23420D1*
X9502Y22430D1*
X9431Y22501D1*
X10421Y23491D1*
G37*
G36*
X10775Y23137D2*
X10846Y23067D1*
X9856Y22077D1*
X9785Y22147D1*
X10775Y23137D1*
G37*
G36*
X11129Y22784D2*
X11199Y22713D1*
X10209Y21723D1*
X10139Y21794D1*
X11129Y22784D1*
G37*
G36*
X11482Y22430D2*
X11553Y22359D1*
X10563Y21369D1*
X10492Y21440D1*
X11482Y22430D1*
G37*
G36*
X11836Y22077D2*
X11906Y22006D1*
X10916Y21016D1*
X10846Y21087D1*
X11836Y22077D1*
G37*
G36*
X12189Y21723D2*
X12260Y21652D1*
X11270Y20662D1*
X11199Y20733D1*
X12189Y21723D1*
G37*
G36*
X12543Y21369D2*
X12613Y21299D1*
X11624Y20309D1*
X11553Y20380D1*
X12543Y21369D1*
G37*
G36*
X12896Y21016D2*
X12967Y20945D1*
X11977Y19955D1*
X11906Y20026D1*
X12896Y21016D1*
G37*
G36*
X13957Y20945D2*
X14028Y21016D1*
X15018Y20026D1*
X14947Y19955D1*
X13957Y20945D1*
G37*
G36*
X14311Y21299D2*
X14381Y21369D1*
X15371Y20380D1*
X15300Y20309D1*
X14311Y21299D1*
G37*
G36*
X14664Y21652D2*
X14735Y21723D1*
X15725Y20733D1*
X15654Y20662D1*
X14664Y21652D1*
G37*
G36*
X15018Y22006D2*
X15088Y22077D1*
X16078Y21087D1*
X16008Y21016D1*
X15018Y22006D1*
G37*
G36*
X15371Y22359D2*
X15442Y22430D1*
X16432Y21440D1*
X16361Y21369D1*
X15371Y22359D1*
G37*
G36*
X15725Y22713D2*
X15795Y22784D1*
X16785Y21794D1*
X16715Y21723D1*
X15725Y22713D1*
G37*
G36*
X16078Y23067D2*
X16149Y23137D1*
X17139Y22147D1*
X17068Y22077D1*
X16078Y23067D1*
G37*
G36*
X16432Y23420D2*
X16503Y23491D1*
X17493Y22501D1*
X17422Y22430D1*
X16432Y23420D1*
G37*
G36*
X16785Y23774D2*
X16856Y23844D1*
X17846Y22854D1*
X17775Y22784D1*
X16785Y23774D1*
G37*
G36*
X17139Y24127D2*
X17210Y24198D1*
X18200Y23208D1*
X18129Y23137D1*
X17139Y24127D1*
G37*
G36*
X17493Y24481D2*
X17563Y24551D1*
X18553Y23562D1*
X18482Y23491D1*
X17493Y24481D1*
G37*
G36*
X17846Y24834D2*
X17917Y24905D1*
X18907Y23915D1*
X18836Y23844D1*
X17846Y24834D1*
G37*
D58*
X4131Y5955D3*
X6431D3*
X8731D3*
D56*
X6431Y11755D3*
M02*
